<svg version="1.1" id="Слой_1" xmlns="http://www.w3.org/2000/svg" x="0" y="0" viewBox="0 0 1440 470" xml:space="preserve"><style>.st1{fill:none}.st3{fill:#d0a877}.st4{fill:#fff}.st5{fill:#299351}.st6{fill:#004326}.st7{fill:#784311}</style><path d="M528.2 193.5c0-25.4-5.1-50.6-15.1-74-10-23.5-24.6-44.8-43.1-62.8-18.4-18-40.4-32.2-64.5-41.9C381.5 5 355.6 0 329.5 0s-51.9 5-76 14.7-46 24-64.5 41.9c-18.4 18-33 39.4-43 62.9s-15.1 48.6-15.1 74h397.3z" fill="#fff" fill-opacity=".9"/><path class="st1" d="M185.1 25h317.7v170H185.1z"/><path d="M260.5 159.5h199.3v-24H261c1 2.1 2.6 6 2.7 11.2.1 6.2-2.1 10.8-3.2 12.8z" fill="#fecb8b"/><path class="st3" d="M312.4 162.7zm-10.4 1.1c0-.1 0-.1 0 0zm157.8-9.5c-.1-.1-.2-.2-.3-.4-.2.2-.3.2-.5.4v-.2c-.7-.1-1.4-.2-2.1-.2-1.3-.2-2.6-.2-3.7-.4.1-.1.2-.2.4-.3-.2-.1-.4-.2-.6-.2-.6-.1-1.1-.1-1.8-.1v.2c.4 0 .8.1 1.2.1v.2c-1.3-.1-2.6-.1-3.9-.2v-.2c.4 0 .9 0 1.3.1.6.2.9.1 1-.4-1.8-.2-3.6-.4-5 .5-.7.5-1.6.4-2.3.7.2-.2.5-.4.6-.6.2 0 .2-.1.4-.1-.2-.2-.2-.3-.4-.4-.6-.1-1.1-.2-1.8-.2.2.3.2.5.3.6h-.9l.3-.3c-.6.1-1 .2-1.6.2.2-.3.3-.5.5-.7-.1 0-.1 0-.2-.1-.4.2-.8.5-1.3.7-.2.1-.6.1-.8.1h-.7c-.6 0-1.4 0-2-.1h-.2c-1.5.1-3 .2-4.6.3-1.4 0-2.9-.1-4.2-.2-.2 0-.2-.2-.4-.3.3-.1.6-.1.9-.2v-.1H426l.2.2c-.4.2-.9.4-1.3.4-1.3 0-2.6-.2-3.9-.2-.8 0-1.7-.3-2.5.2 0 0-.1-.1-.2-.1-.4-.1-1-.3-1.1-.2-1 .5-2.1 0-3.1.1-.1 0-.2-.1-.2-.1-1 .2-1.4-.2-2-.6 1 .1 2.1.1 3 .2v.2h.2c.3-.2.6-.3.9-.4-.4-.1-.8-.1-1.1-.2-.6-.2-1-.3-1.5-.5l.2-.2c.6.2 1.3.3 1.9.5.2.1.6.2.7.2.6-.2 1.3-.2 2-.2.8 0 1.5-.3 2.3-.3 1.8 0 3.6-.2 5.4.3.6.2 1.5.1 2.2 0 .9-.1 2 0 2.6.5.5-.4 1-.3 1.7-.1.4.2 1 .1 1.6.1.6 0 1.3-.2 2-.2h5.8c.3 0 .6.1.9.1h1.3c-.1.1-.2.2-.3.4.7-.1 1.6.2 1.8-.5 0-.1.7-.2 1.1-.1l12 .3c.2 0 .3 0 .5.1-.2-.4.5-.3.7-.4v2.3zm-109.9 11.5c.1 0 .1 0 0 0zm-14.3-27.4c.3-.2.4-.2.6-.3 0-.1 0-.1-.1-.2-1 .1-2.1.2-3 .3-1.8.4-3.6.2-5.4.2-.6 0-1.1-.1-1.6-.1-2.1.2-4.2.4-6.3.5-3.5.2-7 .2-10.5.2-1.5 0-3-.1-4.6-.1-1.8 0-3.4-.1-5.2-.1-.6 0-1.4.1-2 0-1-.1-2 .4-2.8-.3-.1.4-1.3 1-1.7.7-.9-.5-1.6-.3-2.3.1-.1 0-.3 0-.6-.1.4-.2.6-.2.8-.3 0-.1-.1-.1-.1-.2-.6.1-1 .1-1.6.2 0 .1 0 .1.1.2.2.1.3.1.6.2-1 0-1.9.4-3.1.2-1.3-.3-3-.1-4.5-.1-.6 0-1.3.2-1.9.2-1.1 0-2.2-.2-3.3-.2-1.4 0-2.7.2-4.1.2-1.6.1-3.2.2-4.8.2-.4 0-.8-.1-1.3-.1h-4.2c.1.2.2.3.2.5 1.4 0 2.6 0 4-.1 2.2 0 4.3-.1 6.5-.2.8 0 1.6-.2 2.4-.2h.6c.1.5.6.2.9.2 1.4-.1 2.9-.2 4.3-.2 1.1 0 2.2.1 3.4.1 3-.1 5.9-.2 8.8-.3 2.5-.1 5-.1 7.5-.2 4.2 0 8.2 0 12.4-.1 2.6-.1 5.2.2 7.8-.3 1.1-.2 2.4-.2 3.6-.2v.2h-2.4v.2c2.7-.1 5.5-.2 8.2-.3v-.2h-1.2v-.2h3.4c1.2 0 2.2.2 3.2.1 1-.2 2.2.2 3-.3l-3.7.2zm124.2 20.9c-.2 0-.5 0-.5-.1-.2-.4-.4-.2-.9-.1-.3.1-.9 0-1.6-.1-.3.2-1.6.2-3.4 0 1 0 1.9-.1 2.9-.1v-.2h-4v-.2h2.7v-.2c-1.4-.3-2.8.1-4.2.1.3 0 .6-.1 1-.1v-.1h-1.4v-.1c.6 0 1.3 0 1.9-.1h-1.9c-.1-.1-.1-.2-.2-.3h-.6c-.8.1-1.6.2-2.7.3.6.1 1 .1 1.4.2v.1c-.9.1-1.8.1-2.7.2v-.1c.4 0 .8-.1 1.1-.1-.1-.2-.2-.4-.2-.6h-.3c-.8.7-2.1.4-3.1.5-.4 0-.7.2-1.1.2-.2 0-.5.1-.6 0s-.1-.2-.1-.4c-.9.2-1.8.6-3 .9-.3-.6-1.8.2-2-.6-.7.1-1.4.2-2.2.2 0 0 0 .1.1.2-.3-.2-.5-.2-.7-.3-.2.2-.3.2-.6.5 0-.2-.1-.3-.1-.6-.4.2-.8.3-1.3.5.2-.2.2-.2.3-.4-.3.1-.5.1-.6.2l-.1-.1c.3-.1.6-.2 1.3-.4H428v-.2c.5 0 1 0 1.5-.1v-.1c-2.1.1-4.2.1-6.3.4-.9.1-1.7 0-2.5.1-.9.1-1.8 0-2.7 0 .2 0 .5-.1.7-.1v-.1c-.2 0-.3-.1-.5-.1-1.8-.1-3.4-.2-5.2-.3h5.6c1.5 0 3-.1 4.6-.1.6 0 1.1.1 1.8.1.8 0 1.5 0 2.3-.1 1 0 2 .1 3-.1.3-.1.6-.1 1.1-.2.3.3.7.2 1.4.2 1-.2 2.2 0 3.2 0 1.6.1 3.2.3 4.8-.2v.5c2.2-.1 4.4-.1 6.6-.2.6 0 1-.2 1.6-.2.8 0 1.5.2 2.4.2.2-.3.9-.2 1.6-.2 1.5.2 3 .2 4.5-.2.5.7 1.5 0 2.2.3l.5-.5c-.4 1-.4 1.6-.4 2.4zm-127.5-18.9c-1.3 0-2.6.1-3.9.1-.3 0-.6-.2-.9-.2-1.1.2-2.2.4-3.2 0h-.3c-1.2.2-2.3.3-3.5.4-1.4.1-2.7 0-4 0v-.2h4.2v-.2c-3.1.1-6.2.2-9.4.2v-.2c.3 0 .6-.1 1-.1v-.1c-3.9.2-7.8.3-11.9.5.2-.1.3-.1.6-.2-1 .1-1.9-.2-2.7.3-.1.1-.6 0-.6 0-.2-.4-.7-.2-1.1-.2-1 .1-2-.2-2.8.3h-.2c0-.1-.1-.2-.1-.3-.2.1-.5.2-.6.2-.8.2-1.6.3-2.3.3-1.8 0-3.6-.3-5.4-.2-1 .1-2.1.1-3.1.1-4.2 0-8.2.1-12.4.1-1.4 0-2.7.1-4.2.1-.6 0-1.3-.1-1.8-.1.1.2.2.4.2.6h2.4c.2 0 .6 0 .7-.1.6-.4 1.3-.2 2-.2.6.1 1.3.2 1.9.2 1.8 0 3.6 0 5.4-.1 1.7-.1 3.4.3 5.1-.2.6.5 1.4-.1 2 0 .4 0 .9.2 1.3.2 1.8 0 3.6-.1 5.4-.2 1 0 1.9 0 2.9-.1 2.3-.1 4.6-.1 7-.2 1.4 0 2.6-.2 4-.2 2.1-.1 4.2 0 6.2-.1 2.7-.1 5.5-.2 8.2-.2h7c2.2 0 4.4-.2 6.6-.2.5 0 1-.1 1.4-.1v-.2c-.4.5-.7.5-1.1.5zm-49.2 4.1h-9v-.2c.3 0 .6-.1 1-.2h-2.8c-.7 0-1.6-.2-2.1-.1-1.5.6-3 .1-4.5.3 0-.1 0-.1-.1-.2.4-.1.8-.2 1.2-.2-1 0-2.2.1-3.2.1.3.6.5 1.4.3 2.2.3 0 .6-.1 1-.1h1.3c1.6-.1 3.2-.1 4.8-.2.8-.1 1.8 0 2.4-.3 1.2-.5 1.1-.6 2.3-.7 2.3-.2 4.6-.2 7-.4.2 0 .4-.1.6-.2-.2.3-.2.3-.2.2zm176.7 3.9c-.2-.1-.4-.1-.6-.2.1-.1.2-.2.3-.4-2 .2-3.8.2-5.8.4.2-.2.3-.2.5-.3-.6 0-1.1.2-1.5 0-1.4-.4-2.9-.1-4.3-.2-.3 0-.6-.1-.9-.1.2-.3.5-.4 1.1-.3.6.1 1.4 0 2.2 0 .2 0 .2-.2.3-.3-.6-.1-1.3-.2-1.8-.2 0 0 0 .1.1.1.9-.2 1.8-.3 2.8-.5-.2.2-.5.4-.6.6-.1.1.1.2.2.3.2-.1.4-.1.5-.2.7-.7.7-.7 2.1-.7-.1-.4.2-.6.9-.6.9 0 1.7 0 2.6-.1-.3 0-.6-.1-1.1-.2 1-.5 2.2-.7 3.4-.6-.4 1.5-.4 2.5-.4 3.5zm0 8c-.3 0-.7-.1-1.1-.1-.3-.3-1.6-.5-2.5-.3-1 .2-2.2.2-3.2.2-.9 0-1.8 0-2.4.2-.1-.2-.2-.3-.3-.5-.6.4-1.1.5-1.5.2-.8.1-1.4.1-2 .2-.6 0-1.1.1-1.6.1-.6 0-1.1.1-1.8-.2-.4-.2-1.3.1-1.9.2-.2 0-.5-.1-.7-.1-.2 0-.4-.1-.5-.1-.9.3-1.8-.2-2.6.1h-.2c-.7-.6-1.4-.1-2.1-.1-.6 0-1.3.4-1.8-.1-.1 0-.3 0-.6.1s-.6.1-1 .2l-.2-.2c.2 0 .3-.1.5-.1-1.4.1-2.8-.5-4 .3l-.3-.3c.2-.1.5-.2.7-.2 1.9-.1 3.8-.1 5.7-.1.2 0 .3.2.3.2.6-.1 1.1-.2 1.6-.2.6-.1 1.4-.1 2-.1.7.3 1.5.1 2.3.1.6 0 1.5.2 1.9-.6.1.5.2.8 1 .5.6-.2 1.2-.2 1.9-.4 0 .2 0 .3-.1.5 1.4-.2 2.6-.4 4.1-.6.1.3.2.5.2.8.4-.2.8-.2 1.2-.3 0 .1.1.2.2.3.2-.2.3-.2.6-.4v.2c.8.1 1.6.1 2.6.2.6-.6 1.8-.2 2.9-.1 1 .1 1.8 0 2.8 0-.1 0-.1.2-.1.5zm-186-.8c-1 0-2.2-.2-3.1 0-1.2.2-2.2 0-3.4 0-1.3.1-2.6 0-3.9 0-.1 0-.2.1-.2.1-.1 0-.2-.1-.3-.1-.1.4-.2.8-.4 1.1 1.3-.1 2.5-.2 3.8-.2 1.8 0 3.6.1 5.4.1.6 0 1 .1 1.4-.3.2-.2.8-.2 1.2-.4-.2-.1-.4-.3-.5-.3zm5.5-1c-.2-.1-.2-.2-.4-.2-1.9-.1-3.8-.2-5.8-.2-.7 0-1.4.1-2 .2-.3-.1-.6-.2-.9-.2-1.8-.1-3.4-.2-5-.6-.2-.1-.4-.2-.6-.2h-1.1v.6h.1c0 .1-.1.2-.1.2v.2c2.1-.3 4 .1 6 .3l-.2-.1c3.2-.1 6.6-.1 10 0zm-5.7-12h-5.7c-.8 0-1.5-.2-2.3-.2-.6 0-1.2 0-1.8.1v.7c1.1-.1 2.3-.1 3.4-.1 2.5 0 5 .1 7.4.2v-.5c-.2-.2-.6-.2-1-.2zm186.2-.8c-2 0-3.9.1-5.8.1-1.4.1-2.8.2-4.2.2-.3 0-.6 0-1-.2h1.4c0-.1 0-.1.1-.2-.3-.1-.6-.2-.9-.2 0-.1.1-.1.1-.2.9.2 1.7.2 2.6.3.2 0 .5 0 .6-.1.6-.3 1.3-.2 2-.1.5.2.9.2 1.1-.2.1-.2.9-.2 1.4-.2.9-.1 1.8-.1 2.8-.2-.2.6-.2.9-.2 1zm0-2.7c-3.9-.1-7.8-.1-11.8-.2v-.1h1.6c1.5 0 3.1-.1 4.6-.1.5 0 .9-.2 1.4-.2 1.4-.1 2.8-.2 4.2-.2v.8zm0 1.3h-4.6l-.1-.1c1-.2 2-.3 3-.5.6-.1 1.1-.1 1.7-.2v.8zm0-2.7c-1.4-.1-2.9-.2-4.2-.2-.1 0 .1 0 .2.1l-.2.2c-.8-.2-1.5-.2-2.3-.4h6.5v.3zm0-1.2c-2.2.2-4.5.1-6.7-.2 2.3.4 4.5-.2 6.7-.2v.4zm-197.9.9c1 0 1.8-.1 2.6-.1-.3-.1-.8-.2-1.4-.4-.2-.1-.6-.1-.6 0-.2.2-.5.3-.7.3.1.1.1.1.1.2zm197.9 6.3c-.7 0-1.4.1-2.2.1-.2 0-.3-.2-.4-.2.2 0 .5.1.6.1 0 0 0-.1.1-.1-.1-.1-.2-.1-.4-.2.9.1 1.6.1 2.3.2v.1zM328 148.5c.2-.1.2-.2.4-.2 1.4-.1 2.6-.1 4-.1.2 0 .5-.1 1-.2-1 0-1.9-.1-2.7-.1v-.2c1.8.1 3.7.2 5.6.2.2 0 .6 0 .7-.1.6-.3 1.5-.2 2.2-.3.9-.2 1.6.2 2.5.1.6-.1 1-.1 1.9-.2-.5-.2-.6-.2-.8-.3v-.2h4.2c.1-.1.2-.2.2-.5-.5 0-.9 0-1.2.1v-.2c.6 0 1.4-.1 2.2-.1-.2.2-.3.2-.4.3.6.1 1.1.2 1.8.2-.2-.2-.4-.2-.5-.3 1.1-.1 2.2-.2 3.5-.2l-.5-.5c.6.2 1 .3 1.4.3.2.1.6 0 .9-.1.1 0 .2.1.2.2 4.5-.1 9-.4 13.4-.2-.2.1-.5.2-.7.2h-4.9v.2c.2 0 .5.1.8.2-1.5.1-2.9.2-4.3.2-2.2.1-4.4.2-6.6 0-.8-.1-1.6.2-2.4.3-.1.2-.1.4-.2.6.5-.1.8-.1 1.2-.1-.1.1-.2.2-.3.2.2.1.4.1.6.2-.6.4-1.3.5-2.2.3-.4-.1-.8 0-1.2 0-1.2.1-2.5.4-3.4.2-1.4-.2-2.7-.2-4.2-.2-.6 0-1.2.1-1.8.1-2.2.1-4.6.2-6.8.2-1 0-2 .4-2.2.7 1.5.2 3.1.2 4.6.4.6.2 1.1 0 1.6.1 1.3.1 2.6.2 3.9.2.1 0 .2.1.2.1 2.1-.6 4 .2 6 .2.7 0 1.5.2 2.5.2.2.1.6.3 1 .6v-.1c1 .2 2 .5 3 .8 0 .5.9.2 1.1.2.8-.2 1.2 0 1.4.3-.3.1-.6.2-1 .3.5.3-1.3.6-.2.9.3-.3.4-.3.8-.1.1.1.3.2.5.2 1.4.1 2.8.2 4.2.2.5 0 .9-.1 1.4-.2.8 0 1.6 0 2.4.1h-2.2c-.5 0-1.1-.1-1.4.3-.6.1-1.3.2-1.9.2-.5 0-1-.2-1.4-.2h-.8c-1 .1-2 .1-3 .2-.1 0-.1-.2-.2-.2l.4-.2c-.3-.1-.7-.3-1-.3-.7 0-1.4.2-2.2.3 1 .1 2 .1 2.9.2-1.4 0-2.8 0-4.2.1.1 0 .2-.1.2-.1-.2 0-.3-.1-.5-.1-.6-.1-1.4.2-1.8-.3-.2-.2-1 0-1.5-.1.4 0 .8 0 1.4-.1-.6-.2-1-.2-1.4-.3v-.1c.6 0 1.3-.1 2-.1v-.1h-.8c-.3 0-.6-.1-.9-.2 1 0 1.9-.1 2.8-.1v-.2H346v-.1h5.7v-.2h-4.5c.2-.3.4-.6.6-.8.6.3 1.4.4 1.9.3-.5-.2-1.2-.5-1.7-.6-.9 0-1.7.1-2.7.1 1 .1 1.8.2 2.6.2-.9-.1-1.8.1-2.6.2-.6.1-1.1 0-1.8 0v.2h3.1v.2c-1.8.2-3.5.3-5.3.5l.6-.3.4-.2c.2-.5.1-.6-.7-.6-.7 0-1.4-.1-2.2-.2h3.5v-.2h-2.2c-.8 0-1.8.2-2.5 0-2.7-.5-5.5 0-8.2-.4.2-.1.3-.2.3-.2.6.3.7-.2 1.1-.2 0-.1-.1-.1-.1-.2-.7.1-1.4.2-2.2.3 0 .1.1.1.1.2.2 0 .5 0 .7.1-.5.1-1 .1-1.6.2.3-.3.6-.5.7-.6-1-.2-2.1-.2-3.1-.4h-.3c-.6.5-1.4.2-2.2.3-.3.1-1-.1-1.5-.2l.2-.4c-.4.2-.6.2-.7.3-.4-.1-.8-.2-1.2-.2.8-.1 1.6-.2 2.5-.2-.2-.2-.3-.2-.5-.3.1 0 .1-.1.2-.1.3.2.6.2 1 .5.6-.1 1.3-.2 2-.4-.3-.1-.6-.2-1.1-.2.7-.1 1.3-.2 1.8-.2.3.2.7.2 1.2.4.7-.2 1.7-.3 2.6-.5v-.2c-.6.4-1.3.4-1.9.4zm9.6 2v-.2h-5.4c.6.6 1.8.6 2.7.2h2.7zm14.2 2.4c-1.1-.2-2.2-.6-3.3 0h3.3zm35.4-.6c-1-.2-2.1-.2-3.1-.4 0 .1 0 .1-.1.2h1.2v.1h-2.6c-.9 0-1.8-.2-2.6-.2 1.2 0 2.5-.1 3.7-.1.2-.7.1-.8-2.2-.6.3.1.5.1.6.1v.2c-.5 0-1 0-1.4.1l-.1-.1h.6c-.1-.1-.2-.1-.2-.2h-2.5c-.5 0-1 .1-1-.3-.6.1-1 .2-1.7.4-.1-.2-.2-.3-.2-.5h1c-.4-.2-.6-.2-1.1-.5.6-.2 1.2-.3 1.7-.6.2-.1.2-.2.2-.3.7-.1 1.4-.2 2.2-.2 0-.1-.1-.2-.1-.2-.2 0-.4 0-.6.1-.2.1-.4.2-.6.2-.2 0-.5 0-.9-.1.6-.2 1-.2 1.5-.3v-.1c-.3 0-.6 0-1-.1.8 0 1.7.1 2.5 0 1.1-.1 2.2-.4 3.3-.5.8-.1 1.6 0 2.5 0h1.3c-.6-.2-1-.3-1.4-.4 0-.1.1-.1.1-.2.5-.1 1.2 0 1.4-.2.9-.8 2.1 0 3.2-.4 0 0 .2-.2.2-.3 2.7.5 5.4-.2 8.1-.2-.3 0-.6-.1-.9-.1 0-.1.1-.1.1-.2.5.1 1 .2 1.4.2.2.1.7.1.7.1.5-.6 1.2-.4 2.1-.2-.6.4-1.4.4-2.2.5-.4 0-.9.2-1.3.2-.1 0-.2.1-.3 0-1.4-.2-2.6.2-3.9.3-1.1 0-2.3.1-3.4 0-1 0-1.5.2-1.8.6.2.1.5.2.8.4-1.4.5-2.8.4-4.2.6-.1 0-.2-.2-.2-.2-1 .1-2.1.2-3.1.3-.9.1-1.8.4-2.6.1-.2.2-.3.2-.6.4-.2.2-.4.3-.6.4.3.1.6.2.9.2.9 0 1.9-.2 2.6.1.8.2 1.4-.1 2.2.2.5.2 1.4-.2 2.1-.3h.2c0 .1 0 .1.1.2-.6.1-1 .2-1.5.2v.1c.7.1 1.4.2 2.2.2.2.2.6.5 1 .8 1-.2 2 .6 2.9-.1.1.1.2.1.2.2-.3.2-.7.4-1.1.6.2.1.6.1 1 .2-.6.3-1 .6-1.5.9 0 .1 0 .1.1.2h3.1c-.1.1-.1.2-.1.3h2.7c.6 0 1.1-.2 1.6-.2.6 0 1.1 0 1.6.2.3.1.4.3.6.6.7.1 1.6.2 2.5.4l-2.4.3c0-.1-.1-.1-.1-.2.2-.1.4-.1.6-.2v-.2c-.6 0-1.1.1-1.8.1.1-.1.2-.2.4-.2-.1 0-.2-.1-.2-.1-.5.1-.9.2-1.4.2h-.3c-1-.6-2.2-.2-3.3-.3-.5-.1-1-.2-1.5-.2-.5-.1-1 .2-1.6-.1-.3-.2-1.1.1-1.7.1-.3-.4-.6-.7-1.6-.6.2.1.2.2.4.2-.7.1-1.4.1-2.3.2.5-.2.7-.2 1-.3v-.1c-.6.1-1.1.1-1.7.2 0-.1.2-.2.3-.3-.4 0-.7.1-1 .1v-.2c.8 0 1.5-.1 2.3-.1.7 0 1.4.1 1.9-.3-.7-.6-1-.7-1.3-.8zm-3-1.1c.2.1.3.2.5.2.5 0 1.1 0 1.3-.5-.6.1-1.1.2-1.8.3zm-15.5-8.3c-.9-.1-1.8-.1-2.8-.2 2.2-.1 4.3-.2 6.4-.2v-.2h-3.8v-.2l4.8-.3c-.1.1-.2.2-.3.2.2 0 .2.1.3.1l4.8-.3c.5 0 1-.2 1.5.2.2.1.6 0 1-.1-.7-.1-1.4-.2-2.1-.2v-.2c1.2.1 2.4.2 3.6.2v.2c-1.4 0-2.7.1-4.1.1-.2 0-1.4.3-1.7.5-.3.2-1.8.1-2.2-.2-.2.5-.7.6-1.4.7-2.5.1-5 .2-7.4.2-.2 0-.5 0-.9-.1l.2.2c-1.9.1-3.9.2-5.8.2-1.5.1-3 0-4.6.1-.6 0-1.3.2-1.9.2-1.1.1-2.2.3-3.3.2-1.7-.2-3.2.4-4.8.1-.6-.1-1.4.2-2.1.3l-.2-.2c.1 0 .2 0 .5-.1-1.6-.2-1.6-.2-1.4.2-1.7 0-3.4.4-4.9 0-.2.2-.6.5-.8.8-.1 0-.2-.1-.2-.1.1-.1.2-.2.3-.4-2.4.1-4.6.2-7 .2.6-.4 1.3-.5 1.8-.4.8.1 1.7.1 2.6.1.1 0 .2-.2.4-.3-.5-.1-.8-.2-1.2-.2v-.2c.9 0 1.8.1 2.7.1v-.2h-1.2l-.1-.1c.2-.1.3-.2.5-.2h7.1c.5 0 1-.1 1.5-.1.2 0 .4.1.6.1.4.1.9.2 1 .2.9-.4 1.8-.2 2.8-.2.5 0 1-.2 1.5-.2h4.5c-.1 0-.3 0-.5.1v.1c2 .1 3.9.2 5.9.2.8 0 1.7-.2 2.4-.5 1-.3 2.2-.2 3.2-.2 1.4.1 3 .2 4.4.2.4-.1.4-.2.4-.2zm-80.1 13.3h3c.6 0 1.1-.2 1.8-.4 0 .2.1.4.1.7 1.3-.8 2.6-.3 3.8-.2 1 .1 2.2.4 3.1-.2l.4.4c2.8.2 5.4.2 8.2.4v.1c-.5.1-.9.1-1.6.2.5.1.8.1 1 .1-1.1.2-2.2.3-3.4.5-.6.1-1.1-.1-1.7-.1-.9 0-1.8-.1-2.7.1-.8.1-1.5 0-2.2-.2-.2-.1-.4-.1-.6-.1-1.4 0-2.8 0-4.2-.1-.7 0-1.4-.2-2.2-.2-.6 0-1.3-.2-1.8.2-.1.1-.5 0-1 0 .4-.1.5-.2.9-.2-.6 0-1 0-1.4-.1.1-.1.2-.2.4-.2-.6 0-1 0-1.6-.1.1-.2.2-.2.2-.5-1 .2-1.8.9-2.7.2.8-.1 1.7-.2 2.5-.2.8-.2 1.3-.1 1.7-.1-.1.2-.2.3-.3.3.5.1 1.2.2 1.8.3 0-.1.1-.1.1-.2-.3-.1-.6-.2-.9-.2-.1 0-.4-.1-.7-.2zm-3-1.2c.7-.1 1.4-.2 2.2-.2.5 0 1 .1 1.5.2h.5c1.5-.1 3-.2 4.6-.2 1 0 2 .1 3 .1 1 .1 2 .1 3 .2 1.6.1 3.1.1 4.7.2-.3 0-.6.1-.9.1 0 .1.1.1.1.2l1.5-.3c.5-.1 1 0 1.4 0s1 .2 1.5-.1c.1-.1.6.2.9.2h2.2c.7 0 1.4.2 2.1.2h1.4c1.2 0 2.4.1 3.6.1h.4c1.8-.4 3.4.2 5.2 0 .5-.1 1 .1 1.5.2.6.1 1 .2 1.6-.1.6-.2 1.8 0 2.7 0 .1 0 .2.2.2.4-1 0-2-.1-3-.1s-2.2.2-3.1.1c-1.8-.3-3.6-.1-5.4-.2-1.2-.1-2.5-.2-3.6-.1-1.4.2-2.7.2-4-.2-.6-.2-1.1 0-1.6 0-1.1 0-2.2-.1-3.3-.1-1.3-.1-2.6-.2-3.9-.2-1.6-.1-3.2-.1-4.8-.2-.3 0-.7-.2-1-.2-.7 0-1.4.1-2.2.1-.9.1-1.8.1-2.7.1-1.1 0-2.2.1-3.3.1h-.5c-.2-.5-.7-.2-1-.2-.4-.1-1-.1-1.5-.1zm45 1.2c1.3-.7 3-.4 4.4-.6h.1c1 .1 2 .2 3 .2 1.7.1 3.4.1 5 .1h.3c1 .6 2 .3 3 .2.6-.1 1.1 0 1.7 0 1 .1 2.1.2 3.1.2.4 0 .8-.1 1.4-.1.1.2.3.4.4.6 1.4-.8 3.1-.4 4.9-.3-.1.2-.2.2-.3.3.1 0 .1.1.2.1.3-.2.6-.2 1-.4.1.1.2.2.2.3-.4.1-.8.2-1.3.2-.6.1-1.3 0-1.9 0-.6 0-1.1.1-1.7.1-.2 0-.2.1-.4 0-1.3-.3-2.6-.4-4.2-.3.6-.2.8-.2 1.1-.3-.6 0-1.4-.6-1.8.2 0 0-.2 0-.2.1-1.4.2-2.8.3-4.3.2-.2 0-.4-.2-.6-.2.2-.1.4-.2.6-.2h3.8v-.2c-.4 0-.7-.1-1-.1-1 0-2.1 0-3.1.1-.9.1-1.7.3-2.5.4-.5.1-1 .1-1.5.1h-1.4c.2-.1.2-.2.4-.2 0-.1-.1-.1-.1-.2-.3.1-.7.2-1 .3-1.1-.1-2.2-.2-3.4-.3v-.2h2.2c-1.7.2-3.9-.4-6.1-.1zm116.5-6.8c-.4.1-.8.2-1.2.2-1 .1-2.1.2-3 .2-.3-.1-.8-.2-1-.2-1 .3-2.1-.1-3.1 0h-1.3v.2h1v.1h-3.9c-.2 0-.6-.1-.8-.2-.8-.3-1.4-.3-2.1.2.1-.2.1-.3.1-.4-.4.1-.8.2-1.3.2v-.6l-.6.6c-.1 0-.2-.1-.2-.1 0-.1-.1-.2-.1-.3-3-.1-6.1-.2-9-.2.7-.1 1.5-.2 2.4-.3v-.1h-1.8v-.2h4.6v-.2h-3.4v-.1c1.1-.1 2.2-.2 3.4-.2.2 0 .5.1.7.1.9.3 1.8.5 2.9 0-.1.2-.2.4-.2.5 2.2.2 4.4.2 6.6.4.1.2.1.3.2.5.2 0 .5 0 .6-.1.6-.3 1.1-.2 1.8-.2 2.4.1 4.7 0 7.1-.1-1.1-.1-2.2-.2-3.3-.2v-.2c.5 0 .9-.2 1.4-.1.6.1 1 0 1.5 0 .7 0 1.4.2 2.2.4-.4.3-.3.3-.2.4zm-134.2-12c-.2.1-.3.2-.5.2-1 .1-2.1.2-3.1.2-4.3.1-8.6.2-12.9.2-2.1.1-4.1.1-6.2.1-1 0-1.9-.2-2.9-.1-2.8.1-5.7.2-8.5.2h-4.2c0-.1.1-.2.1-.4.7.1 1.5.2 2.2.2h.9c1.8-.1 3.5-.1 5.3-.2h6c2.6-.1 5.3-.2 7.9-.2 2.1-.1 4.2-.1 6.2-.2.7 0 1.5.2 2.2.1 1.7-.2 3.4 0 5-.3.3-.1.8.2 1.2.2.5.2.8.1 1.3 0zm144.2 6.1c-1.5.2-3 .3-4.6.5-1 .1-2 .2-3 .1-1 0-2-.2-3-.2-.4 0-.9.2-1.4.2h-2.6c.3.2.4.2.6.3-1-.1-2-.1-3-.2v.2c.2 0 .6 0 .8.1v.1h-2.6v.2h3.4l.1.1c-.6.1-1.3.2-1.9.3-.7.1-1.4.1-2.2.2-.7 0-1.4 0-2.2.1.2 0 .5.1.8.1v.2c-1.4 0-2.9-.1-4.3-.1v-.2c.8-.1 1.6-.1 2.4-.2 0 0 0-.1.1-.1-.3-.1-.6-.2-1.1-.2 1.4-.2 2.6-.3 4-.5-.3-.1-.6-.1-.8-.1v-.1h3v-.2H436v-.2h2.2c2.2 0 4.5-.1 6.7-.1 1.6 0 3.2.1 4.9.2-.1-.1-.2-.2-.5-.3h6.2s0-.1.1-.1c-.1.1-.2.1-.3.2.8-.2 1.4-.2 1.8-.3zm-20.9 1.2c0 .1 0 .2-.1.2.8.1 1.6.1 2.4.2v-.2c-.7 0-1.5-.1-2.3-.2zm-118-2.1c-.5.1-1 .2-1.5.2-1.4.1-2.9.1-4.3.2-1.2 0-2.5.1-3.7.1-3.3.1-6.6.1-9.9.1h-5.2c-.3 0-.6-.1-.8-.2-.4.1-.8.2-1 .2-.3-.1-.4-.3-.6-.5.5 0 .9.1 1.1-.1.6-.2.9-.2 1 .3.3-.6 1-.3 1.5-.3 2 0 4.1-.1 6.1-.1h1.9c1.3-.1 2.6-.2 3.9-.2.7-.1 1.4-.1 2.1-.1-.7.6-1.8.1-3 .3.8.1 1.4.2 2.2.2.7-.4 1.6-.4 2.6-.2.3.1.8 0 1.2 0v-.2h-.7c-.2 0-.5-.1-.6-.2h5.4v.1H313v.2c1.7.2 3.5.2 5.2.2zm-15.7.4v-.2c-1.2-.2-2.4-.2-3.5.2h3.5zm-4.4-.1c-.7-.1-1.5-.1-2.2-.1v.1h2.2zm95.4.4c-.4 0-.7 0-1.1.1 1.2 0 2.3.1 3.5 0 1.7-.1 3.4-.1 5 .2.6.1.8 0 .8-.3 1.8.1 3.7.2 5.4.2v.1c-.7 0-1.4.1-2.2.1-1.6.1-3.2.2-4.8.2-.3 0-.6-.2-1-.2-.5-.1-1-.2-1.4-.2 0 .1 0 .1-.1.2.3 0 .6.1 1 .1 0 .1-.1.2-.1.2-.6-.1-1.4-.2-2.1-.3l-.2.4c-1.6-.2-3.2-.3-4.8-.5 0 .1 0 .1-.1.2.6.1 1.3.2 2.1.2h-3.8v.2c1 0 1.9.1 3 .1-1.6.9-3.4.6-5.1.6.6 0 1 0 1.8.1-1 .2-1.8.2-2.2.3-1-.2-1.7-.2-2.6-.4.9-.1 1.6-.2 2.2-.2-.2-.3-.4-.4-1.2-.4-.6 0-1.2 0-1.8-.1h1.2c1.2.1 2.2-.2 3.3-.4.2-.1.6-.1.9-.2-.3 0-.7-.1-1-.1v-.5h1.8c0 .1.1.2.1.2 1.2-.1 2.3-.2 3.4-.2.1.2.1.3.1.3zm-5.5.7c.6.6 1.6.6 2.3.3-.7-.1-1.4-.2-2.3-.3zm1-4.3h.9c-1.3.1-2.6.2-3.9.2-.3-.1-.7-.2-1.1-.3 1.5-.2 3 .1 4.5-.2 1.4-.2 3-.1 4.4-.1v-.2c-.2 0-.4-.1-.8-.2h.6c1.1 0 2.2.2 3.3-.1 1-.2 2.3 0 3.4-.1 1-.1 1.9-.1 2.7-.3 1.3-.4 2.6-.2 3.8-.2.8.1 1.6.2 2.5.3.2 0 .6-.2.9-.2.5 0 1-.1 1.6-.1v.1c-1 .2-1.8.5-2.8.6-2.1.2-4.2.2-6.4.3-1.4.1-2.9.1-4.3.1-1.2 0-2.5-.2-3.7-.1-1 0-2 .2-3 .2-.9 0-1.7-.1-2.6-.1v.4z"/><path class="st3" d="M425.6 155.7c-.4.1-.8.2-1.2.2-.4.1-.8.1-1.4.2.3-.2.4-.2.5-.2 0-.1-.1-.1-.1-.2-.6.1-1 .2-1.7.2l.6-.6c-.1-.1-.2-.1-.2-.2-.2.1-.3.2-.6.3-.2.1-.2.2-.4.2l-.2-.2c-1-.1-1.9-.1-2.9-.2-1.4-.1-2.7-.2-4.1-.2-2 0-4 0-6-.1-.6 0-1.4-.2-2-.2-.5-.1-1 0-1.4-.1-.3 0-.6-.2-1-.2-.5-.1-.9-.2-1.4-.3 2.9-.1 5.7-.2 8.6-.2v.2c-.6.1-1.3.1-1.9.2.3.3.3.3.9.2.4-.1.9.1 1.3.1 2.6.1 5 .2 7.6.3.4 0 .8 0 1.4.1 1.8-.1 3.7.2 5.6.7zm-40.3-18.8c.6-.7 1.8-.3 2.8-.6-.2.2-.3.2-.5.4.2 0 .3.1.3.1 1.2-.4 2.4-.2 3.7-.2 1.6 0 3.2 0 4.8-.1h3.3c.2 0 .4.2.6.2.5-.1 1 .3 1.6-.1.3-.2 1.4-.2 1.8-.2 1.1.3 2.2 0 3.2 0 2.2 0 4.6-.2 6.9-.2.6 0 1.3 0 2 .1v-.1c-.1 0-.2-.1-.5-.2 1.1 0 1.9.1 2.8.1v.2c-.2 0-.3.1-.5.1-2.2.1-4.4.2-6.6.2-1.8.1-3.5.2-5.3.2-3.6 0-7.1-.1-10.7-.1-2.1 0-4.2.1-6.2.1-1.5 0-3.1.1-4.6.2-.2 0-.3 0-.4-.2.4 0 .9.1 1.5.1zM444 142c.1-.1.3-.2.4-.2.7.2 1.3-.1 2-.2.2 0 .4 0 .6.2-.3 0-.6 0-1 .1.5.1 1 .5 1.4-.2.1-.1.7-.1 1.2-.1-.4.4-.7.6-1.6.6-1.4 0-2.7.2-4 .2-2.6.1-5.1.1-7.7.2-.2 0-.6 0-.8-.1-.4-.1-.8-.2-1.3-.4.1.2.1.4.1.5h-2.9c-.1-.2-.2-.4-.2-.6h.5c.4.5.8.3 1.4.1.4-.2 1-.6 1.6 0 .1.1.7 0 1.1 0 .5 0 1-.1 1.4-.1 1-.1 2 .4 2.8-.2h.2c1 0 1.8 0 2.8.1.7 0 1.4.1 2 .1zm-10.1-6.1h-2.6v.2h3.3v-.2h3.5c.5 0 1 0 .7.3-3.3.1-6.6.2-9.8.2-3.4 0-6.6-.1-10-.2.6 0 1 0 1.7-.1-.2-.1-.3-.2-.4-.2.4-.1.8-.1 1.4-.2.9.6 2.3.6 3.4.2 1.4-.4 2.9-.4 4.3-.3 1.3 0 2.6.1 3.9.1.2 0 .5.1.6.2 0-.1 0 0 0 0zm-1.6 2.4s0 .1-.1.2h.2c.8-.5 1.8-.2 2.7-.3h2.7c.2 0 .3.1.4.1.5.2.9.3 1.4.4 1.8.1 3.7.1 5.5.2.2 0 .3 0 .6.1h-5c-1.7 0-3.3-.1-5 .1-1.5.2-3.1-.2-4.6-.1-1.6.1-3.3 0-5 0v-.2h1.8v-.2h-1.5v-.2c2-.1 4-.1 5.9-.1zm-8.9-.9c.3-.5 1.1-.2 1.7-.3 2.9-.1 5.8-.1 8.7-.2 2.7 0 5.5-.1 8.2-.1.2 0 .5.1.6.2-6.3.3-12.7.9-19.2.4zm-28.1 19c.8 0 1.7.1 2.5.1v-.1c-.6-.1-1-.1-1.6-.2.6-.2 1.6-.1 2.1.2.1.1.4.1.5 0 .2-.1.5-.2.6-.3.3.4.3.4.8.2.8-.4 1.6-.2 2.4-.1.9 0 1.8.2 2.6.2.8.2 1.6.4 2.4.5 1.1.2 2.2.2 3.4.4.1 0 .2 0 .4.1h-7.3c.1 0 .4-.1.9-.2-.9-.1-1.6-.1-2.3-.2 0 .1 0 .1-.1.2.2 0 .3.1.6.2-.5 0-.9.1-1.2.1l-.1-.1c.4-.2.7-.3 1.2-.6-1.1-.1-2.2-.1-3.6-.2-1.3.2-2.8-.2-4.4-.2.2.1.2.1.2 0zm-111.8-11.5c.6-.5 2.1-.6 3-.4.3.1.8 0 1.2 0 1-.1 1.9-.2 3-.2.5 0 1 .1 1.5 0 .5 0 1 0 1.4.1-.4.1-.7.1-1.1.2v.2c1.4-.1 2.8-.2 4.2-.2v.1h-.5c-.2 0-.2.1-.3.2 2.2-.1 4.2-.2 6.5-.2 0 .2-.1.3-.1.5.2 0 .5 0 .8.1-.1 0-.1.1-.1.1-1.8 0-3.6-.1-5.4-.1h-5.2c-.2 0-.5 0-.6-.1-.9-.2-1.8-.2-2.6-.2-1.9-.2-3.6-.1-5.7-.1zm63.1-3.7c-3.2.7-10.5 1.2-12.8.8 1-.1 1.8-.1 2.6-.2v-.2h-2.2v-.2h7.8v-.2c-.5 0-1-.1-1.5-.1v-.2c1.9.1 3.9.2 6.1.3zm-55.7-4.5h3.8c1.4-.1 3-.2 4.4-.2 1.8-.1 3.4-.2 5.2-.3 1.6-.1 3.2-.2 4.7-.2 1.8 0 3.5 0 5.3.1-3.9.2-7.8.3-11.8.5-3.9.2-7.8.3-11.8.5.2-.2.2-.3.2-.4zm125.9 8.1c.2 0 .4.1.6.1v.1c-.4 0-.8-.1-1.2-.1v.2c.5.1.9.1 1.4.2-1 .2-1.8.8-2.9.3h-.2c-.5.8-1.5.1-2.3.2.3.1.5.1.6.1v.1c-.9.1-1.8.2-2.7.2.2-.2.4-.3.6-.4h-3.8v-.2c.6 0 1.1.1 1.7 0 .6 0 1.1-.2 1.7-.2.2 0 .7-.1.8 0 .5.3 1 .3 1.5.2.3-.1.7-.1 1.2-.1-.2-.1-.2-.2-.4-.2 1.7-.6 3.4-.7 5.2-.5.9.1 1.6.2 2.3-.2.2.2.2.4.2.4-.7.2-1.5.3-2.2.5 0 0-.1 0-.1-.1.2-.1.4-.2.7-.3-1.2-.2-1.9-.3-2.7-.3zm-57.8 9.4c2.5-.1 5-.1 7.4-.2.2 0 .4-.2.6-.2.8.4 2.3-.1 3 .8-1.7.1-3.2.3-5 .1-1.1-.2-2.4 0-3.6 0h-.4c.7-.1 1.4-.2 2.1-.2 0-.1-.1-.2-.1-.2l-3.3.6.3-.3c-.2-.3-.6-.4-1-.4zm2.7-13.1c-.4.1-.9.2-1.4.2 0-.2 0-.2.1-.4h-.2c-.3.1-.6.2-1 .2h-4.6c-1.6 0-3.1.1-4.7.1h-2.6v-.2h5.8c-.2 0-.3-.1-.4-.1.4-.7.8-.8 2.7-.6-.7 0-1.3.1-1.8.1.7.2 1.4.4 2.2.6.2.1.6 0 .8 0 1.7-.2 3.4-.2 5.1-.1v.2zm-43.5 1.5c3.3-.2 6.6-.4 9.8-.6-.2 0-.6-.1-.8-.1v-.1h2.9c-.6.6-.7.7-2.8.7-1.5 0-3 .1-4.6.1-1.4.1-3 0-4.5 0zm42.1-2c.6-.7 7.8-1.2 9.2-.4h-5.3c-.1.2-.2.3-.2.5-.9-.1-1.8-.2-2.8-.3.4.2.6.2 1.1.4-.9-.1-1.4-.2-2-.2zm-31.2-3.5c-1.6 0-3.1.1-4.7.1h-3.6c.1-.1.2-.2.2-.3-1 .2-1.8.2-2.6.3-.6.1-1.4.4-2.1 0-.2-.1-.5.1-.8.2-.7.2-1.5.2-2.2.4-.1-.1-.1-.2-.2-.3.3-.1.6-.2.9-.2 1.1-.1 2.3-.2 3.4-.2 2.5 0 5 .1 7.4.1.6 0 1-.2 1.6-.2.6-.1 1.3-.1 1.9-.1.4-.2.6 0 .8.2zm-64.8 1.6c.1-.6.9-.3 1.4-.3.6 0 1 .2 1.4-.2.1-.1.4-.2.6-.2 1 0 2.2.1 3.2.1h3.7c-.4.2-.6.4-.8.4-1 .1-2.2.2-3 .1-1.3-.2-2.4.1-3.6 0-1.1-.1-2 0-2.9.1zm117.8 17.1h-4.8c-.2 0-.5-.1-.6-.1-.4-.7-.7-.3-1.2.1-.2-.2-.5-.4-.7-.6 2.5-.2 5 0 7.5.2-.1.1-.2.3-.2.4zm-107.4-12.6c1-.2 2.1-.3 3.1-.4.9-.1 1.8-.1 2.8 0 .5 0 .9.2 1.4.2h2c-.2.2-.2.2-.3.2-2.6.2-5.1.3-7.7 0h-1.3zm41.1 1.8c.5-.6 1.3-.5 2.1-.5h4.6c.3.5.1.6-1 .6h-3c-.3 0-.6-.1-.8-.1h-1.6c0 .2-.1 0-.3 0zm119.3-4.9c.1-.1.2-.1.3-.2.1.1.1.2.1.2.6 0 1.2.1 1.8.1.5 0 1-.2 1.4-.2 1.2-.2 2.4-.2 3.7.2.6.2 1.4 0 2.4 0-.4.2-.6.2-.9.2h-7.5c-.5.1-1.2.2-1.3-.3zm-56.3 5.4c-1 .1-1.9.2-2.9.2-1.1.1-2.2 0-3.3.1-.4 0-.8.2-1.2.2 0-.1-.1-.1-.1-.2.4-.1.8-.2 1.4-.4h-2.9v-.2h4.2c.6 0 1.2-.1 1.8-.1.5 0 1 .2 1.5.2.5.2 1 .2 1.5.2zm41.3-3h4.5v-.2c-.6 0-1.4-.1-2-.1v-.1c1-.1 1.9-.1 2.9-.2.9-.1 1.8-.1 2.8 0-.2.2-.5.2-.8.4.1 0 .2.1.3.1l-.1.1c-2.6.1-5.1.1-7.6 0 0 .1 0 .1 0 0zm-58.4-4.6c-1.2.1-2.5.2-3.7.3-2.7.2-5.4.2-8.2.3-.1 0-.2 0-.3-.1.4-.1.8-.1 1.4-.2-.6 0-1-.1-1.4-.1v-.1c.8 0 1.6-.2 2.3 0 .9.2 1.7-.1 2.5 0 .6 0 1.4.3 1.8-.2.2 0 .2.1.4.1.4.1.8.1 1.3.1l4.2-.3s.1 0 .1.1c-.4 0-.4 0-.4.1zm-82.1-.8h-15.3v-.2h15.3v.2zM392 156.2h-7c0-.1 0-.2-.1-.2.4 0 .9-.2 1.2-.1.6.2 1 .1 1.4-.2 1.8 0 3.7-.1 5.4.3H390v.1c.6 0 1.3.1 2 .1zm12.2-18.7c3.4-.2 7-.3 10.5-.6v.2c-3.4.6-7 .2-10.4.6-.1 0-.1-.1-.1-.2zm29.7 2.7c-.2.1-.5.2-.9.3.1-.2.1-.3.2-.5h-.2c-.4.1-.9.3-1.3.3-1.1 0-2.2-.2-3.4-.2-.6 0-1.3.2-1.9.2 0-.1-.1-.2-.1-.2.6-.1 1.2-.1 1.8-.2 1-.1 2.2.2 3 0 1-.2 1.9-.2 2.9 0-.1.2-.1.2-.1.3zm-15.7-1.6c.4 0 .9-.1 1.3-.1 0-.1-.1-.1-.1-.2.5-.1 1-.2 1.6-.3-.2.6-.2.6 2.6.4-.2 0-.6-.1-.8-.1-.2 0-.5 0-.7-.1h3.7c-.9.7-5.9.7-7.6.4zM342 152.1l-.4.2c-1.6-.1-3.2-.1-4.9-.2-1.4-.1-2.8-.2-4.2-.2h5s-.1 0-.2-.1c.1-.1.1-.2.1-.2 1.6.1 3.1.3 4.6.5zm75.7-12.2h5.8v.2c-.2 0-.4 0-.6.1v.1c.2 0 .5 0 .9.1-.2.1-.2.1-.3.1-1.6 0-3.2 0-4.8-.1-.3 0-.6-.2-1-.2-.1-.1-.1-.2 0-.3zm-20.6-4h-9.3c.6-.6 1.2-.2 1.8-.2h1c.7 0 1.4-.2 2.2-.2s1.3.2 2.1 0c.6-.2 1.5.1 2.2.2v.2zm-116.2 20.2c-.3 0-.6 0-.6.1-.2.2-.2.4-.3.4-1.3.2-2.5.2-3.8.2.3-.1.6-.2.9-.2v-.1c-.2 0-.5-.1-.7-.1l.1-.1c1.4.2 2.6-.5 3.9-.6.2.1.6 0 .5.4-.1 0 0 0 0 0zm103-11.2c-.6-.1-1.4-.1-2-.2v.2c1.3.1 2.6.1 3.9.2v.1c-.9 0-1.8 0-2.6-.1-1-.1-1.9-.2-3-.2.6-.2 1.1-.2 1.8-.4-.3-.1-.6-.2-1-.2h3v.1c-.3 0-.6.1-1 .1.5.1.9.2 1.3.2-.3.2-.4.2-.4.2zm-70.5 0c-2.6.5-5.2 0-7.8.2v-.2c2.6-.1 5.1-.2 7.7-.2.1 0 .1.1.1.2zm56 12.6c.4-.1.8-.1 1.2-.2.4.1.9.2 1.5.4-.7.1-1.2.2-1.9.2.2-.2.3-.2.6-.3h-6.1v-.1c1.3-.2 2.6-.3 3.8-.4h1c.1 0 .2.1.2.2-.1 0-.3.1-.3.2 0-.2 0-.1 0 0zm-89.3-20.7c3.4.2 6.7-.4 10.1 0-3.4.1-6.7.2-10.1.2v-.2z"/><path class="st3" d="M402.3 146c1.1-.2 2.3.2 3.4-.3 1 .4 2.2.2 3.4.3-2.3.1-4.5.7-6.8 0zm-28.5 9c-1.1.7-2.5.3-3.8.2.4-.1.7-.1 1.1-.2v-.2c-1.3.1-2.5.1-3.6.1 2.1-.3 4.3-.1 6.3.1zm-8.5-18.6c2.2-.2 4.5-.2 6.8-.4-.7.4-2.6.6-4.2.6-.6 0-1.1.1-1.7.2h-.9v-.4zm15.5-.5c-1.3.2-2.6.2-3.9.2-1.3 0-2.6.2-4 .2.3-.2 5.8-.6 7.9-.4zm-13.1 10.3c-1-.2-1.9-.4-3-.3h-1.2c2.2 0 4.5-.6 6.7.2-.8.1-1.6.4-2.5.1zm-19.8-9.1c.1 0 .2-.1.3-.1 0-.1 0-.1-.1-.2l-3 .3v-.2c.8-.1 1.6-.2 2.4-.2h2.7c.7 0 1.4.2 2.1.3-1.4.2-2.9.2-4.4.1zm29.9 3c1.1-.2 2.3-.3 3.5-.5.2 0 .3.1.5.1 1 .1 2 .1 3 .2.2 0 .2.2.3.2-2.5-.5-5 .3-7.3 0zm-37.7-2.8c-1.2-.1-2.3-.1-3.4-.2s-2.2-.2-3.2-.5c1.2.2 2.4.2 3.6.3.2 0 .5 0 .7-.1-.1-.1-.2-.1-.3-.2.9.1 1.9-.1 2.6.7zm29.7 0c.6 0 1.2 0 1.8.1.2 0 .4.1.5 0 .8-.6 1.8-.2 2.7-.2.7 0 1.4-.2 2.1-.3.2 0 .5.1.8.1-.2.1-.4.3-.6.3-.9.1-1.8.1-2.7.2-.9.1-1.8.1-2.7.2-.6 0-1.2-.1-1.8-.1l-.1-.3zm29.6 3.9c.6-.1 1-.1 1.6-.2v-.1c-.5-.1-1-.1-1.2-.2h5.7c-2.1.2-4.1.3-6.1.5 0 .1 0 .1 0 0zm-115.1 1.7h5.1v.2c-.3.1-.6.2-1 .2-.6.1-1.3.1-1.9.1-.2 0-.4-.2-.6-.2h-.8c-.2 0-.6.1-.8.1v-.4zm.4 13.5c-.2.1-.4.2-.6.2-.5 0-1.4.2-1.4 0-.5-.6-1-.2-1.6-.1.4 0 .8.1 1.1.1v.1c-.4 0-.8.1-1.4.1 0-.2 0-.4-.1-.6 1.4-.1 2.7-.1 4.1-.2 0 .1 0 .2-.1.4zm69.5-17.4c2.6-.1 5-.2 7.6-.2v.2c-2.6.1-5 .2-7.6.2v-.2zm-80 17c.9-.4 1.9-.4 3.1-.2-1.4.4-2.6.7-3.8 1-.1-.1-.1-.2-.2-.2.6-.2 1-.3 1.7-.5-.2 0-.5-.1-.8-.1zm49.9-10.9c-.3-.2-.6-.4-.7-.6 1-.2 2-.3 3.2-.5-.3.2-.5.3-.6.3.2.2.6.3.9.6-1.1.3-2-.8-2.8.2zm106.9.6c-1.3-.1-2.5-.2-3.8-.2v-.1c.7-.2 1.4-.3 2.1-.3.6 0 1.3.2 2.2.3h-2.6v.2h2.1v.1zm16.1 3.7c-.1-.1-.2-.2-.3-.2.1-.3.9-.5 1.4-.2.2.1.2.2.3.2.2 0 .4 0 .6-.1-.2.2 0 .6-.7.5-.4-.1-.9-.1-1.3-.2zm-86.3-12.6c-.2.1-.3.2-.5.2-1.8 0-3.5 0-5.4-.1 1.8-.2 3.6-.2 5.4-.4-.2.1-.4.2-.9.4.7 0 1.1 0 1.4-.1zm43 .4c-.2.3-.2.5-.2.6h-3.2c0-.1 0-.1-.1-.2 1.1-.1 2.2-.3 3.5-.4zm-17.8 4.5c.1-.1.3-.2.6-.3-.7-.1-1.2-.1-1.7-.1 2 .1 4 .2 6.2.2-.8.1-1.6.2-2.4.2H386zm-25.1-4.9c.6-.6 1.7-.2 2.5-.3.4-.1.8.1 1.3.2v.2c-1.3-.1-2.6-.1-3.8-.1zm54.3 13.8l1.8-.9c-.2-.1-.3-.2-.6-.3.6 0 1.1.1 1.7.1-.2.3-1.2.2-.6.8-.9-.4-1.3.8-2.3.3zm-53.5-12.8c.2-.1.6-.2.8-.2.2-.1.5-.2.8-.2 1 0 2.2.1 3.2.1v.1h-2.4v.1c.2 0 .6 0 .8.1v.2c-1.1-.1-2.2-.1-3.2-.2 0 .1 0 0 0 0zm-10.1 2.7h-3.4v-.1h4.3c-.3.6-.3.6-2.4.2.5 0 1-.1 1.5-.1zm61.5-.2c-1 .7-2.3.4-3.5.5.7-.1 1.4-.1 2.2-.2v-.2c-.3 0-.7-.1-1-.1-.4 0-.8.1-1.2 0h3.5zm-20.2 15.8c1-.2 1.2-.2 2 .4h-4.3v.1c.5-.1.9-.2 1.4-.2.6 0 1.2-.1 1.8-.1-.4-.2-.6-.2-.9-.2zm-63.8-19c1-.2 2-.3 3-.5 0 .1.1.1.1.2-.2 0-.3.1-.6.2 1 .1 1.8.1 2.6.2v.1c-1.8-.2-3.5-.2-5.1-.2zm92.2-.1c-.2.1-.6.2-1 .3-.1 0-.3 0-.4-.1-.2-.1-.4-.2-.6-.2-.5-.1-1 .1-1.4-.1-.8-.3-1.4-.2-2.1 0 .2-.1.6-.2.8-.2 1 0 1.8.1 2.8.2.8.1 1.5.1 1.9.1zm-83.2-1.3h5.3v.1c-1.8-.1-3.6-.1-5.3-.1z"/><path class="st3" d="M366.5 137.7c0-.2-.2-.2-.1-.3.5-.3 2.2-.2 2.9.3h-2.8zm10.8.3c.6.1 1 .1 1.8.2-.3-.2-.4-.2-.5-.2h3.4v.2c-1.6-.1-3.2-.1-4.7-.2-.1.1-.1.1 0 0zm-45.7-2.3c2-.1 3.9-.1 5.9-.2v.2h-1.2c-.5 0-1 .1-1.5.1-1.1-.1-2.2-.1-3.2-.1zm80.6 15.5c.2-.3.2-.6.4-.9.2.1.6.2.9.4.1.1 0 .3-.1.4-.3.1-.7.1-1.2.1zm-30.4-15.3c.5 0 1 .1 1.5.1.2 0 .5-.1.6-.1.7-.2 1.5-.3 2.3.1-1.6.1-3 .1-4.5.2.1-.1.1-.2.1-.3zm-25.4 4.3c1.2.1 2.4.2 3.5.2 0 .1 0 .2-.1.2-1.1-.2-2.4.1-3.5-.3l.1-.1zm-40.5 4.8c-.6.1-1.3.1-1.9.2-.1-.1-.1-.2-.2-.2.4-.2.7-.3 1.1-.3.4-.2.7.2 1 .3-.1 0 0 0 0 0zm58.5-4.9c-.5.1-1 .2-1.4.2l-.1-.1c.2-.1.3-.2.4-.2-.3-.1-.6-.2-1-.2 0 0 0-.1.1-.1h1.9c0 .1 0 .3.1.4zm20 .9l-.3.3c-1.4-.1-2.9-.2-4.4-.2v-.1h4.7zm56-.5H445v-.2h5.4c-.1.1-.1.1 0 .2zm-64-2.5c-1.1.3-3.4.2-3.8 0h3.8zm62.8 11.4c.4-.1.4-.6 1.1-.2.2.1.6-.2 1-.2v.2h.9v.2h-3zm-62 2.9c.3.1.6.2 1 .2-1.4.1-2.9.1-4.3.2v-.1c1-.1 2.2-.2 3.3-.3zm-45-15.6c-.1.1-.2.2-.3.2h2.6v.2h-3.8c.5-.2 1-.3 1.4-.5.1 0 .1.1.1.1zm24.8 20.5c-1.8-.1-3.7-.2-5.6-.2h5.6v.2zm15-1.4c.7.1 1.4.2 2.2.2v.2h-2.3c0-.1.1-.3.1-.4zm-16.4-17.2c-.2 0-.4-.1-.6-.1l2.1.3c-1.2.1-2.5.2-3.8.2v-.2c.7 0 1.5-.1 2.2-.1.1 0 .1 0 .1-.1zm65.1 19.8h-4.9v-.2h4.9v.2zm12.4-22.1h-3.3c.4-.3 1.9-.3 3.3 0zm-98.9 16.5c-.2 0-.5 0-.5.1-.2.6-1 .3-1.6.4.4-.1.7-.2 1-.3l-.1-.1c-.4 0-.7-.1-1-.1.7-.1 1.6-.2 2.6-.2-.2.1-.3.1-.4.2zM321.5 136l-.2.1c-1.6 0-3.2 0-4.8-.1h5zm127.1 1.3h-3.3v-.2c1 0 2.2.1 3.3.2zm-105.2 1.2c-1.3.1-2.6.2-3.8.2v-.2c1.3-.1 2.6-.2 3.8-.2-.1.2 0 .2 0 .2zm35.4 7c.1 0 .2-.1.6-.2-.6-.1-.8-.1-1.1-.1v-.1c.9.1 1.8.1 2.6.2v.2h-2.1zm46.7 10.2c.7.1 1.4.1 2.2.2v.1c-1 .1-2 .2-3 .2v-.2h1.6c-.2-.1-.4-.2-.8-.3zm-10.9-13.2c1.3.7 2.5-.1 3.6.3-1.2 0-2.4.1-3.6.1v-.4zm-29.2-.9c-1 .2-2.2-.1-3.3-.2h.5c.7-.2 1.4 0 2.2.1.2 0 .4-.1.6-.2v.3zm-40.1-2.2c1.2 0 2.3.1 3.5.1v.2c-1.1 0-2.3-.1-3.5-.3 0 .1 0 .1 0 0zm-18.5 5.3c.7-.2 1.1-.4 1.5-.6.1.1.2.1.2.2-.2.2-.4.5-.7.6-.1 0-.5-.1-1-.2zm107.1-4.5v-.2c.8-.5 1-.5 1.3 0-.4.4-.7.7-1.3.2zm-95.1-.1c-1 0-2 .1-3 .1v-.2c.9.1 2 .1 3 .1-.1 0 0 0 0 0zm91.1 2.6c-.6 0-1 0-1.7.1.5-.5.5-.5 1.7-.1zm-36.7 10.6c1 0 1.9-.1 3-.1v.2c-1 0-2 0-3-.1zm1.3-12.3c.3-.2.3-.2.5 0 .6 0 1 .1 1.4.1v.2c-.8.1-1.5.2-1.9-.3-.1 0 0 0 0 0zm-15.1 3.9H376c1.3-.3 2.4-.1 3.4 0zm10.8 6.3c-.4 0-1-.1-1.8-.1.4-.2.5-.2.6-.3.1.1.2.2.2.3.4-.2.8-.2 1.3-.4-.1.2-.2.3-.3.5zM347 138.5h-3.1v-.1c1 .1 2 .1 3.1.1zm40.4 17.2h-3v-.2c1 .2 2 .2 3 .2zm19.1-12.4h2.8v.2c-1-.1-1.9-.2-2.8-.2zm-88.3-1.2h-1.7v-.2c.7-.1 1.4-.1 2.2-.2v.1c-.5 0-1 0-1.5.1v.1c.2.1.5.1 1 .1zm-32.9-6.5h-1.4l-9 .3c-3.3.1-6.6 0-9.9 0h-3.7c0 .1.1.2.1.2 0 .1.1.1.1.2h.1c1.8-.1 3.7-.2 5.5-.2h11.6c3.2 0 6.3-.2 9.5-.2 1 0 1.9-.2 2.9-.2.2 0 .5.1.7.1s.5.1.7.1c1.8-.1 3.8-.2 5.6-.2l-12.8-.1zm15 23.9zm-3.5 0c.4-.2.5-.2.9-.3-1.1.2-2 .5-2.6 0-1 .1-1.8.2-2.6.2-.6 0-1.3-.2-1.9-.2h-3c-.5 0-.9-.1-1.4-.1-1.9 0-3.8.1-5.7.1-.6 0-1.3-.2-1.9-.2-1.8 0-3.4.1-5.2.1-1.1 0-2.2-.2-3.4-.2-.6 0-1.3.1-1.9.2h-.2c-1-.1-2.2-.2-3.3-.2-1-.1-1.9-.1-2.9-.2-.1.2-.2.5-.4.7h39.1-3.6v.1zm90.7-22c1 .1 2.3.2 3.5.2.2-.2.5-.3.8-.5l.1.2c-.2.1-.2.2-.4.2h6.6c0 .1.1.2.1.2-.7.1-1.4.2-2.2.3-.3-.4-1-.2-1.8-.2-.9.1-1.8.1-2.6.2-1.3.1-2.6.2-3.9.2h-.8c.1-.4.3-.6.6-.8zm15.7 21.8c-.5-.5-1.4 0-2.2.1.2-.2.4-.4.7-.6-.6 0-1.2 0-1.7.1 0-.2-.1-.2 0-.2-.9 0-1.6.1-2.4.1-.3 0-.6-.2-.9-.2h-2c-2.6 0-5-.5-7.5-.4-1.1 0-2.3-.2-3.5-.2-.2 0-.4-.2-.6-.2-.6.1-1.2.2-1.8.2 0-.1-.1-.1-.1-.2.1-.1.2-.2.3-.2-.7 0-1.4.2-2.2.1-.4 0-.8-.3-1.2-.3-1.6-.1-3.3-.1-4.9-.1-.1 0-.2.2-.5.3h1.8v.2c-1.4.2-2.8.2-3.5.3 4 .1 8.6.2 13.2.2v.1c-.5.1-.9.1-1.4.2 2 .1 3.9 0 5.8.4 1.1.2 2.4.1 3.7.2.8 0 1.6.1 2.4.2v.1c-.5.1-.9.1-1.4.2v.1h1.7c-.1 0-.2.1-.2.1h12.9c-.2 0-.6-.1-.8-.1-1.1-.5-2.3-.5-3.7-.5zm-58-.3h1.6c-.1-.1-.2-.1-.2-.1h-.7c-.6 0-1.4.1-2 .1-.2 0-.5-.1-.7-.1h-6.5c.9.2 1.8.5 2.7.4 2.1-.2 4.1.2 6.2 0 .9-.1 1.9.2 2.6-.3-1 0-2 .1-3 0 .1.2 0 .1 0 0zm107.9-23.3c.2.1.2 0 .4.1 2.1.1 4.2.1 6.3.2v-.2c-2.3-.3-4.5-.4-6.7-.1zm-108.7-.2c-.2 0-.3.1-.4.1.6.1 1.2 0 1.8 0 .8 0 1.6.1 2.4.1 2.4 0 8-.2 10.4-.2m-73 19.5h-4.4v-.2c.3 0 .6-.1 1-.1v-.2H280v-.2c1.4.1 2.7.2 4.2.2.5 0 .9 0 1.4.1-.2.2-.1.3 0 .4z"/><path class="st4" d="M208.7 63c.2.1.3.1.5.2-.3-.2-.6-.2-1-.3.1 0 .2.1.2.1.1-.1.2 0 .3 0zm11.1 7l-.3.6c-.2.3-.4.6-.6 1-.1.2-.2.4-.4.6.2-.2.3-.3.4-.6.5-.4.7-1 .9-1.6zm2.4-2.6c-.2 0-.3.1-.5.2.2-.1.6-.2.8-.2h-.3z"/><path class="st5" d="M224.8 65.5c.2 0 .4.1.6.2.1-.1.2-.1.3-.2.1-.1.2-.1.2-.2h-.1c.2-.1.2-.2.3-.4.1-.3.1-.6-.2-.9-.2-.3-.6-.5-1-.6-.3-.1-.6-.1-.9-.1h-.5c-.2 0-.4 0-.6-.1-.2 0-.4-.1-.6-.2-.5-.3-.7-.8-.6-1.3.1-.2.1-.4.2-.6l.3-.6.3-.6c.1-.2.2-.3.2-.6.1-.4-.1-.7-.4-1-.1-.1-.2-.2-.4-.2-.2-.1-.2-.2-.4-.2-.2-.1-.3-.2-.4-.3-.2-.2-.2-.4-.2-.6v-.2s0-.1-.1-.1h-.2c-1 .2-1.8 0-2.6-.5-.1-.1-.2-.1-.2-.2h-.1c0 .1-.1.2-.1.2-.2.4-.4.7-.8 1-.2.2-.6.3-.9.5-.3.1-.6.2-.9.2-.3.1-.6.2-1 .2-1 .3-1.8.9-2.4 1.7-.3.5-.6 1-.8 1.6-.2.5-.2 1-.3 1.4v.5c0 .1 0 .2-.1.2.1.3-.3.5-.5.2h-.1c.2.2.3.4.5.6 0 .1.1.1 0 .2l-.2-.2c-.3-.2-.6-.5-1-.6-.1-.1-.2-.1-.3-.2-.3-.1-.6-.2-1-.2-.6-.1-1.4 0-2 .2-.6.2-1.2.6-1.6 1.2-.2.2-.4.6-.6.8-.2.3-.3.6-.5 1-.2.3-.3.7-.5 1-.2.2-.3.6-.5.8-.4.7-1 1.2-1.8 1.5-.3.2-.6.2-1 .4-.3.1-.6.2-1 .3-.2.1-.6.2-.8.3-.6.3-1.1.7-1.4 1.3l-.6 1.2c-.2.6-.3 1-.4 1.6-.2.6-.2 1.2-.4 1.8-.1.4-.2.8-.4 1.2l-.3.6c-.2.4-.6.8-.9 1-.3.2-.6.5-.9.6-.3.2-.6.4-1 .6-.2.2-.5.4-.7.6-.4.4-.6.9-.7 1.4-.1.3-.1.6 0 1s.2.7.2 1c.6 2 1.2 4.1 1.8 6.1.1.2.1.4.2.6l-.1-.1c.1.2.2.4.2.6v-.3c.1-.5.1-.9.2-1.4.1-.6.2-1.3.5-1.8.1-.2.2-.4.2-.6.2-.3.3-.6.4-.9.4-.8.9-1.5 1.4-2.2.4-.6.8-1 1.2-1.6.3-.5.7-1 1-1.4.2-.4.5-.7.7-1.1.6-.9 1-1.8 1.4-2.9 0-.1 0-.2-.1-.2h-.7c-.3.1-.6.2-1 .4-.2.2-.6.4-.7.6-.2.2-.4.5-.6.7-1.3 1.6-2.4 3.4-3.3 5.2-.2.2-.2.5-.3.7l-.1.1v-.1c0-.2.1-.4.1-.6.3-1.7 1-3.2 2.1-4.6 1.1-1.4 2.4-2.6 4.1-3.4.3-.2.7-.4 1.1-.6.1-.1.2-.1.2-.2.5-1 1.1-1.8 1.9-2.7l1-1c.9-.8 1.8-1.6 2.6-2.4l.2-.2c0 .1 0 .1-.1.2-.1.2-.2.2-.4.4-.7.8-1.5 1.6-2.2 2.5-.3.3-.6.7-.9 1.1-1 1.1-1.7 2.4-2.2 3.8-.2.6-.5 1.2-.7 1.8-.1.3-.2.6-.3.8-.4 1-1 1.9-1.7 2.7-.3.4-.6.8-1 1.1-.5.6-1 1.1-1.4 1.7-.1.2-.2.2-.3.4v.2c.4-.3.8-.6 1.4-.6h.4v.1l-.2.2c-.5.5-1 .9-1.5 1.4l-.2.2c-.1.1-.2.2-.2.3-.2.3-.3.7-.4 1.1s-.2.8-.2 1.3c-.1.6-.1 1.2-.1 1.8 0 1.6-.1 3.3-.1 4.9v.7c0 .7.2 1.4.4 2.2.2.3.2.7.4 1 .2.5.4.9.6 1.4 0 .1 0 .2.2.2 0-.1 0-.1.1-.2 0-.2 0-.4.1-.6 0-.4.1-.8.2-1.2 0-.3.1-.7.2-1V99c0-.2 0-.4.1-.6-.1-.1-.1-.2 0-.3 0-.4.1-.8.2-1.3.1-.9.3-1.7.5-2.5.4-1.3.9-2.5 1.6-3.6.5-.7 1-1.4 1.8-2.1.6-.6 1.3-1 2-1.4.3-.2.7-.3 1.1-.4h.1l-.1.1c-1.5 1.4-2.7 2.9-3.8 4.5-1.1 1.7-2 3.5-2.6 5.4 0 .1-.1.2-.1.2v.1h.1c.4-.3.9-.5 1.4-.7.4-.2.7-.4 1-.6.8-.6 1.4-1.3 2.1-2 .6-.6 1-1.2 1.5-1.8.4-.5.9-1 1.3-1.4.5-.6 1-1 1.6-1.5.2-.2.5-.4.8-.6.7-.5 1.5-.9 2.3-1.2-.1-.1-.1-.3.1-.4 1.1-.6 1.7-1.7 2-2.8 0-.2.1-.2.1-.4-.1.2-.2.5-.2.7-.2.4-.3.7-.6 1l-.2.2h-.1c0-.2-.1-.3-.1-.5-.1-.5-.1-.9-.1-1.4v-4.5c0-.2 0-.6.1-.8.1-.4.3-.7.7-1 .2-.1.2-.2.4-.2.2-.1.3-.1.4-.2 1.7-.6 3.1-1.5 4.3-2.7l.2-.2s.1-.1.2-.1v.1h.1c.2-.2.3-.4.6-.6.3-.2.7-.3 1-.5.2-.1.3-.2.5-.3.2-.2.5-.6.7-.9.2-.3.5-.6.6-1 .2-.4.5-.9.6-1.3.2-.4.5-.9.7-1.3.2-.3.4-.6.6-1 .2-.2.2-.4.3-.6 0-.1.1-.2.1-.2l.1-.1.6-.3c.4-.3.8-.6 1.2-.7.5.2 1 .1 1.5.2zm-7.6-5.9zm-5.3 4.9c.1-.3.2-.7.4-1 .2-.3.4-.6.6-1 .7-.9 1.6-1.6 2.6-2.1.5-.2 1-.5 1.5-.7h.1s0 .1-.1.1c-.1.1-.2.2-.3.2-.2.2-.6.4-.8.6-.7.6-1.4 1.1-2 1.8-.6.6-1 1.2-1.6 1.8l-.5.5h-.1c.2-.1.2-.2.2-.2zm-1.1.3c-.1 0-.1 0 0 0-.1-.1-.1-.1 0 0zm-3.1 3.4c.4-.5.9-1 1.4-1.4.2-.2.3-.2.5-.4.1-.1.2-.2.4-.2.3-.2.7-.2 1.1-.2 1.1-.6 2.2-.8 3.4-.8l-.1.1c-.2 0-.2.1-.4.1-.3.1-.6.2-.9.2-.7.2-1.4.7-1.9 1.3-.1.1-.2.2-.2.3-.2.6-.4 1.1-.6 1.7-.1.2-.1.4-.1.6v.3c0 .1-.1.1-.1 0-.1-.1-.1-.1-.2 0s-.1.2-.2.4c-.2.3-.2.6-.4 1 0 .1-.1.2-.2.2.1-.1.1-.2.1-.2.2-.5.2-1 .4-1.4 0-.1 0-.1.1-.2 0-.1 0-.2-.1-.3-.2-.2-.3-.5-.5-.7-.1-.1-.1-.2-.2-.2.1-.4.2-.7.5-1 .1-.1.2-.2.2-.3h-.1c-.2.1-.2.2-.4.2-.6.3-1 .6-1.5 1 .1-.1.1-.1 0-.1 0 .1 0 0 0 0zm-.1.1c0 .1 0 .1 0 0 0 .1 0 0 0 0zm0 .1zm-.1 0c0 .1 0 .1 0 0 0 .1 0 0 0 0zm.8 17.3c-.4-.1-.8-.1-1.2-.2-.6-.1-1.1-.2-1.8-.2-.4-.1-.9-.1-1.3-.1s-.8-.1-1.2-.1c-.9 0-1.8-.1-2.6-.1-.6 0-1.3.1-1.8.2-.3.1-.6.2-.9.2-.1 0-.2.1-.2.1h-.1.1v-.1c.1-.1.2-.1.2-.2.6-.2 1.3-.5 2-.6.8-.2 1.7-.2 2.5-.2.9 0 1.8.2 2.7.3 1.2.5 2.4.7 3.6 1 0 0 .1.1.2.1-.1-.1-.2-.1-.2-.1zm4.1-10.5s-.1 0 0 0l-.3-.3c-.6-.4-1.1-.6-1.8-.6-.5 0-.9.1-1.3.3-.2.1-.2.2-.3.3-.1.3-.2.6-.2 1-.2.6-.2 1.4-.3 2.1-.1.8-.1 1.6-.1 2.3 0 .6 0 1 .1 1.6 0 .2 0 .4.1.6l-.1-.1c-.1-.3-.2-.6-.2-1-.1-.6-.2-1.2-.2-1.8-.1-.6-.1-1.2 0-1.8 0-.4.1-.7.1-1.1.1-.9.2-1.8.5-2.6V74h-.4c-.1.1-.2.2-.2.3-.1.2-.2.2-.3.4-.4.3-.8.7-1.1 1-1.3 1.4-2.2 2.9-3 4.6-.4 1-.7 2.1-1 3.2v.1s0 .1-.1.1-.1 0-.1-.1c-.1-.2-.2-.3-.2-.5-.2-.5-.2-.9-.1-1.4s.2-1 .5-1.4c.2-.3.4-.6.6-1 .2-.3.5-.6.7-.9 1.7-2.1 3.4-4.2 5.1-6.2l.2-.2c0-.1.1-.1.2-.1s.2 0 .2.1v.2c-.1.2-.1.5-.2.7 0 .1-.1.2-.1.2s0 .1.1.1h.3c.6 0 1 .2 1.5.4.6.3 1 .7 1.3 1.3.1.2.1.3.1.3zm3.1-.9c0-.1.1-.1 0 0 .1 0 .1.1 0 0zm.1 0v-.2c0-.1.1-.1.1-.2 0 .2-.1.3-.1.4zm.4-3.1c0 .3-.1.6-.2.9 0 0-.1 0-.1-.1v-.4c-.2-1-1-1.9-2.2-2.1-.6-.1-1.1-.1-1.7.1-.3.1-.7.2-1 .4-.2.1-.5.2-.7.3h-.1l.2-.2c.3-.2.6-.3.9-.4.7-.2 1.4-.4 2.1-.5h1c.8.2 1.4.6 1.6 1.3.2.3.2.5.2.7zm3.5-5.8c-.8.1-1.5.1-2.3 0-.5-.1-1-.1-1.5-.1h-.2c.1-.1.2 0 .3 0h1.6c.8.1 1.6.1 2.4 0 .2 0 .3 0 .5-.1h.2c-.3.1-.7.2-1 .2z"/><path class="st4" d="M215.3 74.6c-.3.4-.6.7-.9 1 .1-.1.2-.1.2-.2.2-.2.7-.5.7-.8zM210 62.9s0 .1 0 0zm-.9-11.7c-.1 0-.2-.1-.2-.1 0 .1 0 .1.2.1.2.2.6.2.9.3-.4-.1-.6-.2-.9-.3zm42.4-8.3c.3.2.6.3 1 .4-.2-.2-.6-.2-.8-.4-.2-.1-.4-.2-.6-.2l.4.2zm-2.2 54.6c.2-.1.4-.2.6-.2h.1c-.3 0-.6 0-.7.2zm1.4-.6c.4-.2.9-.2 1.3-.4-.6.2-1.1.3-1.7.5.2-.1.3-.1.4-.1z"/><path class="st5" d="M242 97.3c-.3-.2-.6-.5-1-.7-1-.7-2.1-1.2-3.3-1.4-.3-.1-.6-.1-1-.1-.8-.1-1.5.1-2.3.3-.3.2-.6.2-1 .4s-.8.3-1.1.6c-.1 0-.1.1-.2.1s-.1.1-.1.2c.1.2.2.4.4.5h.4c.7-.2 1.4-.2 2.2-.1 1.3.2 2.5.6 3.7 1.2.7.3 1.4.7 2 1.1 1 .6 1.9 1.4 2.9 2.1l.1.1h-.2c-.5 0-.9-.1-1.3-.2-.4-.2-.7-.3-1-.5-.4-.2-.7-.4-1-.6-.3-.2-.7-.5-1-.7-.4-.2-.7-.5-1.1-.7-.8-.5-1.7-.8-2.6-1-.4-.1-.9-.2-1.3-.1h-.9c-.3 0-.6-.1-.9-.2-.2.1-.4.3-.6.5v.1c.2.2.3.6.4.8.2.4.3.7.6 1l.6.9c.3.5.7 1 1 1.5l.2.2c.4.2.8.5 1.2.6.5.2 1 .4 1.4.6l1.2.6c.4.2.9.5 1.3.7.6.5 1.1 1 1.5 1.6.4.6.6 1.3.7 1.9-.1 0-.1-.1-.1-.1-.4-.9-1-1.6-1.9-2.2-.4-.3-.8-.6-1.3-.7-.3-.2-.7-.4-1.1-.6-.3-.2-.7-.3-1-.6-.5-.2-1-.6-1.4-1-.1 0-.1-.1-.2-.1v.2c.3.9.5 1.8.6 2.6.2.7.2 1.5.3 2.2.2.9.2 1.8.4 2.7.5 2.4 1.4 4.7 2.8 6.8.2.3.5.6.7 1 0 .1.1.1.1.2-.1 0-.1-.1-.2-.1-.8-.9-1.6-1.8-2.2-2.7-.6-1-1.1-2.2-1.5-3.3-.2-.9-.5-1.8-.6-2.6-.2-.8-.3-1.7-.5-2.5 0-.2-.1-.3-.1-.6-.1.1-.1.2-.1.2 0 .2 0 .3-.1.5-.1.8-.2 1.6-.4 2.4-.2.7-.4 1.5-.6 2.2-.2.7-.3 1.4-.5 2.2-.1.6-.2 1.4-.1 2 .1.6.2 1.3.4 1.9 0 .1.1.2.1.3-.1 0-.1-.1-.2-.1-.2-.2-.3-.5-.5-.7-.3-.6-.5-1-.6-1.6-.2-.6-.2-1.3-.2-1.9 0-.6.1-1.1.2-1.7.2-1 .5-2 .7-3 .2-.7.4-1.4.6-2.2.2-.8.3-1.7.3-2.5v-.2c0-.2 0-.3-.1-.5-.2-.7-.5-1.4-.8-2-.2-.3-.4-.6-.6-1-.3-.5-.6-1-1-1.4-.2-.3-.3-.6-.5-.9-.2-.2-.2-.6-.4-.8 0-.1-.1-.2-.2-.2-.2 0-.4 0-.6.1-.2.1-.2.2-.4.3-.5.6-.7.9-1.2 1.4-.5.6-1 1-1.4 1.6-.4.4-.8.9-1.1 1.3-.1.2-.2.3-.2.5-.2.6-.2 1.1-.3 1.7 0 .7 0 1.4.1 2.2.1.6.2 1.4.2 2 .1.7.2 1.5.2 2.2 0 1 0 2-.2 3-.2 1.1-.5 2.2-.9 3.2 0 .1-.1.2-.2.3 0 .1-.1.1-.1.1.1-.2.1-.5.2-.7.2-.6.2-1.1.2-1.7 0-.7 0-1.4-.1-2.2-.1-.7-.2-1.4-.2-2.2-.1-.6-.2-1.2-.2-1.8-.1-1-.2-1.8-.2-2.8 0-.6.1-1.1.2-1.8 0 0 0-.1-.1-.1l-.2.2c-1.4 1.8-2.6 3.6-3.8 5.4-.1.2-.2.3-.3.5-.2.2-.2.4-.2.6-.1.7-.1 1.5-.1 2.2 0 .6.1 1.3.1 1.9.1 1 .1 1.8-.1 2.8-.1.8-.2 1.6-.6 2.3-.2.5-.4.9-.7 1.3-.1.1-.1.1-.1.2h-.2.2c0-.1-.1-.1 0-.2.4-.6.6-1.4.6-2.1.1-.6.1-1.2.2-1.8 0-1.3.1-2.6.1-4 0-.6 0-1.1.1-1.7v-.2c-.1.1-.1.2-.2.2-.6 1-1.1 2-1.6 3-1 2.2-2 4.3-3 6.6-.5 1.2-1 2.4-1.4 3.6-.1.2-.2.3-.2.4-.1 0-.1-.1-.1-.1.4-1.5.9-3 1.3-4.5.6-2.2 1.5-4.5 2.6-6.6 1-1.9 2-3.8 3.2-5.6.6-.8 1.1-1.7 1.7-2.5.1-.1.2-.2.2-.3v-.1h-.2c-.7.1-1.5.2-2.2.3-1.3.2-2.5.6-3.7 1-1.4.6-2.6 1.4-3.8 2.4-1.1 1-2.1 2.2-2.9 3.4-.1.2-.2.2-.2.4h-.1c.1-.1.1-.1.1-.2.6-1.7 1.7-3.1 3.1-4.4 1-.9 2.2-1.7 3.4-2.3.8-.5 1.7-.8 2.6-1.2 1-.4 1.9-.7 2.9-1.1 1-.4 1.9-.7 2.9-1.2.1 0 .2-.1.2-.1.2-.1.3-.2.5-.3.1-.1.2-.2.2-.3.2-.2.4-.5.5-.7.1-.1.1-.2.2-.2s.2-.1.2-.2l1.5-1.8c.4-.5.8-1 1.2-1.4.2-.2.4-.6.6-.8.1-.1.1-.2.2-.2-.1-.2-.2-.4-.5-.6-.8-.4-1.7-.7-2.6-.8-.7-.1-1.5-.2-2.2-.1-1 .1-1.9.2-2.9.4-.3.1-.7.2-1 .2-.2.1-.4.2-.6.2-.6.4-1.3.9-1.8 1.4-.6.6-1.3 1.1-1.8 1.7l-1.4 1.4c-.4.4-.9.8-1.3 1.3-.6.6-1.1 1-1.8 1.4-.5.3-1 .6-1.5 1-.1 0-.2.1-.2.1v-.1c.1-.1.2-.1.2-.2.6-.4 1.2-.9 1.7-1.4.6-.6 1.1-1.2 1.6-1.8.6-.6 1-1.3 1.6-1.9.3-.4.6-.8 1-1.1.4-.4.9-.9 1.4-1.2.1-.1.2-.1.2-.2h-.1c-.9.2-1.8.3-2.7.4-.8.1-1.7.2-2.5.3-1 .1-1.8.2-2.8.2-.8.1-1.5.1-2.3.1h-2.6c-.8 0-1.6-.1-2.4-.1-.5 0-.9-.1-1.4-.1-.3 0-.6-.1-1-.1-.2 0-.2-.1-.4-.1.1-.1.2 0 .2-.1.6 0 1.3-.1 1.9-.1 1-.1 2.1-.1 3.1-.2.9-.1 1.8-.1 2.6-.2.6 0 1.2-.1 1.8-.1.7-.1 1.4-.1 2.2-.2.5 0 1-.1 1.4-.1.5-.1 1-.1 1.4-.2.3 0 .6-.1.9-.1.2 0 .5-.1.8-.1.1 0 .2 0 .2-.1 0 0 .1-.1.2-.1.5-.1 1-.1 1.5-.2.2 0 .4-.1.6-.1.2 0 .3-.1.5 0h.2c1.2-.2 2.4-.4 3.5-.6.7-.2 1.4-.2 2.1-.3.8-.1 1.5-.1 2.3.1.8.2 1.5.4 2.2.9.2.1.3.2.5.1s.4-.2.6-.4c.2-.2.2-.6.1-.8 0-.1-.1-.2-.1-.2 0-.1-.1-.1-.2-.2-.3-.1-.6-.3-.9-.6l-.6-.6c-.3-.3-.7-.6-1.1-.7-.4-.2-.8-.3-1.2-.4-.2-.1-.5-.2-.7-.2-1.4-.5-2.6-1.2-3.6-2.2-1-1-1.8-2.1-2.3-3.4 0 0 0-.1-.1-.1V86c0 .1 0 .1.1.2 1.6 2.1 3.5 3.8 5.9 5 .5.2.9.4 1.4.6.3.1.6.2 1 .4s.7.3 1.1.6c.2.2.5.3.7.6.2.2.4.4.5.7 0 .1.1.2.1.3 0 .2.1.2.2.3h.1l.1-.1c.2-.4.3-.7.5-1.1.1-.1.1-.2.1-.2-.2-1.8-.9-3.5-2-5.1-.3-.5-.7-.9-1.1-1.3-1-1-2.2-1.8-3.6-2.2-.6-.2-1.4-.4-2.1-.6-.8-.2-1.7-.3-2.5-.5-.7-.2-1.5-.3-2.2-.6-1-.3-1.9-.7-2.7-1.4-.1-.1-.1-.1-.2-.1 0 .1 0 .1.1.2.2.4.2.8.3 1.2.1.5 0 1-.1 1.5-.2 1-.7 1.9-1.5 2.7-.4.4-1 .8-1.4 1.1-.5.3-1 .6-1.5.8-.4.2-.7.3-1.1.5-.3.2-.6.2-.9.4-1.2.5-2.2 1.2-3.3 2-.6.6-1.3 1.1-1.9 1.7-.6.5-1 1-1.6 1.4-.6.5-1.1 1-1.8 1.4-.5.3-1 .6-1.4.8-.5.2-1 .4-1.4.5-.2 0-.4.1-.6.1h-.2l.2.2c.1 0 .1-.1.2-.1h.4c.2.1.4.2.6.2.3.2.6.3.9.5.8.5 1.7 1 2.4 1.5 1.5 1.1 2.6 2.6 3.4 4.2.3.9.5 1.7.5 2.6 0 1-.2 1.8-.5 2.6-.1.1-.1.2-.2.3 0 .1 0 .1-.1.2-.2.6-.6 1-1 1.4.3 0 .6.1 1 .2-.2-.1-.2-.2-.3-.4h.1c.1 0 .2 0 .2.1.4.2.8.3 1.1.6.4.2.7.6 1 .9.8 1 1.3 2 1.4 3.1.1.6.2 1.2.2 1.8 0 .5.1.9.2 1.4.1.6.3 1.1.6 1.6l.6 1.2c.2.4.6.8.8 1.3.4.6.7 1.2 1 1.8.2.7.5 1.5.6 2.2.1.6.1 1 .2 1.6 0 1-.1 2-.3 3 0 .1-.1.2-.1.3v.1c.1-.1.1-.2.1-.2.2-.3.2-.6.4-1 .2-.6.6-1.1 1-1.6s.9-1 1.4-1.4c1.6-1.4 3.3-2.6 5.2-3.7 1.8-1 3.8-1.8 5.9-2.4l2.7-.6c1.4-.2 2.7-.2 4.2-.2.6 0 1.1.1 1.7.1 1.1.1 2.2.3 3.3.6 1 .2 2 .6 3 1 .5.2 1 .4 1.4.6s.8.6 1.2.9c.5.4.8.9 1 1.4 0 .1.1.2.1.2s.1 0 .1.1c0-.2 0-.3-.1-.5 0-.1-.1-.2-.1-.2-.2-.5-.3-1-.4-1.4-.1-.2-.2-.5-.2-.7-.2-.8-.2-1.6-.2-2.4 0-2.6.6-5.2 1.8-7.7.6-1.3 1.4-2.4 2.4-3.4.5-.5.9-1 1.4-1.4.1-.1.1-.1.2-.1v.1c.1-.1.2-.2.3-.2l-.2-.4c-.2-.2-.3-.5-.5-.7-.4-.7-.6-1.5-.8-2.3-.1-.4-.1-.8-.2-1.2-.1-1.1.2-2.2.6-3.3.1-.1.1-.2.1-.3 0 0 0-.1-.1-.1h-.2c-.5.2-1 .1-1.4-.1-.3-.1-.6-.2-1-.4s-.6-.4-.9-.6c-.4-.3-.8-.6-1.1-1-.1.1-.4-.1-.7-.4zm-34-4c1.4.2 2.6.6 3.8 1.2.4.2.7.5 1.1.7l.9.6c.5.3.9.6 1.4.9.1 0 .1 0 .1.2-.4.1-.9.2-1.3.2h-.2c-.2-.1-.2-.2-.3-.2-1.2-1-2.5-1.8-3.8-2.5-.8-.4-1.6-.6-2.4-.9-.1 0-.2-.1-.2-.1.1-.1.6-.1.9-.1zm4.9 33.4zm27-7.5c.1 0 .1 0 0 0zm8.4-10.8s-.1 0 0 0c-.1 0 0 0 0 0zm37.8-23.5c.2 0 .2-.1.3-.1-.2-.1-.4-.1-.6-.2-.3-.2-.6-.3-.9-.5-.4-.2-.7-.6-1.1-1-.5-.4-.9-.9-1.3-1.4-.3-.4-.6-.7-.9-1.1s-.6-.8-1-1.2c-.5-.6-1.1-1-1.8-1.5l-.9-.6c-.3-.2-.7-.5-1-.7-.4-.3-.8-.6-1.1-1-.4-.5-.7-1-.8-1.6-.2-.6-.2-1.1.1-1.7.1-.3.2-.6.5-.9-.1 0-.2 0-.2.1-.3.2-.6.3-1 .4-.5.1-.9.2-1.4.2h-3.7c-.6 0-1.2.1-1.8.2-1 .2-1.8.6-2.6 1.3-1 .7-1.7 1.7-2.2 2.7-.3.6-.5 1.3-.6 1.9v.1c0 .1.1.1.1.1.2 0 .4-.1.6-.2.1-.1.1-.2.1-.2.1-.2.2-.4.5-.6.2-.2.4-.2.7-.3.4-.2.7-.2 1.1-.2l1.5-.3c1.6-.4 3-1.1 4.2-2.1.2-.2.4-.3.6-.4l.1-.1c0 .1.1.1 0 .2 0 0 0 .1-.1.1-.8 1.1-1.8 1.9-3.1 2.5-.6.2-1.4.4-2 .5-.4.1-.8.1-1.2.2-.3.1-.7.2-1 .4-.1.1-.2.2-.3.2-.2.2-.5.3-.8.3-.1 0-.2.1-.2.2-.1.1-.1.2-.2.3-.1.4.2.6.5.8h.2c.1 0 .2-.1.2-.1.6-.2 1-.2 1.6-.2.5 0 1 .1 1.4.2.4.1.8.2 1.2.4l2.4.9.4.2c.1 0 .1.1.2.1.3 0 .6.2 1 .2l.9.3c.1 0 .2.1.2.1h.1c.1-.1.2-.1.4-.2l.9-.3c.3-.2.6-.2.8-.4.6-.2 1.1-.5 1.8-.6.6-.1 1.2-.2 1.8-.1.2 0 .6.1.8.2 0 0 0 .1-.1.1s-.2.1-.3.1c-1.7.2-3.3.6-4.7 1.4-.1 0-.1.1-.2.1v.1c.1 0 .2.1.3.1.5.2 1 .2 1.4.4 2 .6 3.9 1 5.9 1.4.7.2 1.4.3 2.1.5.1 0 .2.1.3.1h-.4c-.8-.1-1.6-.2-2.5-.3-1-.2-2.1-.3-3.1-.6-2.2-.5-4.3-1-6.4-1.8-.1 0-.2-.1-.3-.1 0 .1.1.1.1.2.4.4.8.9 1 1.4l.9 1.5c.2.4.4.7.6 1.1.4.7.9 1.4 1.5 2h-.1c-.1-.1-.2-.1-.2-.2-.4-.3-.7-.7-1.1-1.1-.4-.4-.7-.9-1-1.4-.3-.4-.6-.8-.9-1.3-.4-.6-.8-1.1-1.2-1.6-.3-.4-.7-.8-1.1-1.2-.1-.1-.2-.2-.3-.2-.9-.3-1.8-.7-2.6-1-.6-.2-1.4-.3-2-.3s-1.2.1-1.8.2c-.2.1-.3.2-.4.2 0 .1-.1.1 0 .2 0 .1.1.2.1.2.2.2.3.5.5.8.4.7.9 1.4 1.3 2.2.1.1.1.2.2.2.1.1.2.2.2.3.1.3.2.6.4.8 0 .1.1.1.2.2.2.1.3.2.5.3.6.4 1.1.7 1.8 1 .6.3 1.1.6 1.7 1 .6.3 1.1.7 1.7 1.1.8.6 1.5 1.2 2.1 1.9.6.8 1.2 1.7 1.5 2.6.1.2.2.5.2.7v.2s-.1 0-.1-.1l-.2-.4c-.5-1.2-1.2-2.2-2.2-3.2-.8-.8-1.7-1.4-2.7-2-1-.5-2-.8-3-1.1 0 .1-.1.1 0 .1 0 .1.1.2.2.3.6 1.4 1.3 2.7 1.8 4.2.5 1.3.8 2.5 1 3.8.2.6.2 1.2.3 1.8.1.9.2 1.7.2 2.6 0 .4.1.9.2 1.3v.4s-.1 0-.1-.1c-.2-.7-.3-1.4-.5-2.2-.5-2.4-1.1-4.9-1.9-7.2-.1-.2-.1-.3-.2-.5l-.1-.1c-.1.1-.1.2-.1.2-.2.7-.2 1.4-.3 2.2-.1.6-.2 1.1-.3 1.6-.1.5-.2 1-.2 1.4 0 .4 0 .8.2 1.3 0 .1 0 .2.1.2-.3-.5-.5-1-.5-1.6-.1-.7 0-1.4.1-2.1.2-.6.2-1.2.4-1.8.2-.6.2-1.2.3-1.8v-.2c0-.2 0-.4-.1-.6-.6-1.5-1.3-3-2-4.5 0-.1-.1-.2-.2-.2h-.4c0 .2-.1.2-.1.4-.1.7-.2 1.4-.4 2-.2.6-.4 1.1-.6 1.7-.2.6-.5 1.3-.6 1.9-.2.8-.3 1.7-.3 2.6v.2c-.1 0-.1 0-.1-.1-.1-.3-.2-.6-.2-1-.1-.6-.1-1.4 0-2 .1-.7.2-1.4.5-2.2.2-.5.3-1 .5-1.4.2-.6.4-1.1.5-1.7.1-.5.2-1 .2-1.5 0-.2-.1-.4-.2-.6-.4-.7-.9-1.4-1.4-2.1l-.6-.9c-.1-.1-.2-.2-.2-.3-.1-.2-.3-.3-.6-.4-.1 0-.2 0-.2.1-.4.6-1 1.1-1.5 1.7l-.6.6c-.4.4-.7.9-1 1.4-.1.2-.2.3-.2.5-.1.6-.2 1.3-.1 1.9 0 .8.1 1.5.2 2.2.1.6.1 1.3 0 2s-.2 1.4-.5 2c-.2.4-.4.8-.7 1.1l-.2.2h-.1c0-.1.1-.1.1-.2.3-.5.5-1 .6-1.4s.2-1 .2-1.5 0-1-.1-1.5-.1-1-.1-1.5c0-.6 0-1.2.1-1.8-.1 0-.1.1-.1.2l-.3.9c-.2.6-.5 1.2-.8 1.8-.2.3-.3.6-.5 1-.5.8-1 1.6-1.8 2.2-.4.4-.8.7-1.3 1-.1 0-.1.1-.2.1v-.1l.2-.2c1.4-1.2 2.4-2.6 3-4.3.2-.6.5-1.3.7-1.9.2-.7.6-1.4.8-2.2l.6-1.2v-.1h-.1c-.6.3-1.4.5-2 .7-.4.1-.9.2-1.3.4-.3.1-.6.2-.8.3-.5.2-1 .6-1.3 1-.1.1-.1.1-.2.1.2-.4.4-.8.7-1.1.4-.4.8-.7 1.4-1 .5-.2 1-.3 1.4-.5l1.5-.3c.3-.1.7-.2 1-.3.1 0 .2-.1.2-.2.2-.3.6-.6.9-.9l.6-.6.3-.3c.2-.2.3-.5.5-.6 0-.1.1-.1 0-.2l-.2-.2s-.1 0-.1-.1h-.1c-.2.1-.5.1-.6 0-.2-.1-.4-.1-.6-.1-.3-.1-.6-.1-1-.1-.6 0-1.4.1-2 .3-.3.1-.7.2-1 .4-.3.2-.6.2-1 .4s-.7.2-1.1.3c-.4.1-.8.1-1.2 0h.5v.4s0-.1.1-.1c1-.5 2.2-1 3.3-1.4.7-.2 1.4-.4 2.1-.5.6-.1 1-.1 1.6 0 .4 0 .8.1 1.2.3.1 0 .1.1.2.1h.2c.2 0 .2-.1.3-.2V79c-.5-.3-.9-.6-1.4-1-.6-.4-1.3-.6-2-.6-.7-.1-1.4 0-2.2.2-.4.1-.9.3-1.3.5-.3.2-.6.4-1 .6-.3.2-.6.3-.9.5s-.7.3-1 .4c-.4.1-.7.1-1.1.1-.2 0-.4-.1-.6-.2 0 0-.1 0-.1.1v.1c0 .2.1.3.1.4.1.5.1.9 0 1.4-.1.6-.3 1.3-.6 1.9-.2.5-.6.9-1 1.3l-.1.1c-.1.2-.1.3 0 .5l.9 1.2c.6 1 1.1 2.2 1.4 3.4.2 1 .3 2 .2 3-.1 1.2-.3 2.3-.7 3.4-.1.2-.2.3-.2.4-.2.3-.3.6-.6 1 0 .1-.1.1-.1.2 0-.1-.1-.1-.1-.2s.1-.2.1-.2c-.1.1-.1.2-.1.3s0 .2.1.2l.1-.1c.4-.4.9-.7 1.4-1 .5-.2.9-.3 1.4-.4 1-.2 2.1-.2 3.1-.2 3.4 0 6.6.9 9.4 2.6 1.5.9 2.9 2 4.1 3.2.4.4.8.8 1.1 1.3.3.4.6.8 1 1.2.3.5.6 1 .7 1.6 0 .2.1.3.2.5.1-.1 0-.2 0-.2v-.8c.1-1.3.4-2.4 1-3.5.2-.4.5-.7.8-1.1l.7-.7c.2-.2.5-.5.6-.7.5-.6.8-1.1 1-1.8.1-.4.2-.7.3-1.1.1-.2.1-.3.2-.6.3-.8.9-1.5 1.7-2.1.2-.2.6-.3.8-.4.4-.2.8-.2 1.2-.2-.2-.4-.3-.8-.4-1.2-.2-1.4.2-2.6 1-3.8.6-.8 1.5-1.4 2.5-1.9.8-.4 1.7-.7 2.6-1 .3-.6.6-.7.9-.7zm-33.9 8.4s.1 0 0 0c.2-.1.2-.2.2-.1-.1.1-.2.1-.2.1zm.3 0c0-.1 0-.1 0 0zm23.2-5.3c0-.1 0-.1-.1-.2.1.1.1.1.1.2zm0-25.7c-.7-1.1-1.3-2.2-1.6-3.5-.2-.6-.2-1.2-.2-1.8 0-.4-.1-.8-.2-1.2s-.3-.8-.6-1.1l-.5-.5c-.2-.2-.4-.3-.6-.6-.2-.2-.4-.4-.5-.6-.2-.2-.2-.5-.3-.8 0-.3 0-.6.2-.8l.1-.1c-.1-.2-.2-.6-.2-.8-.1-.2-.2-.5-.2-.7-.2-.2-.2-.3-.4-.5s-.6-.4-.9-.6-.6-.6-1-.8l1.2 1.2.1.1h-.1c-.1 0-.1-.1-.2-.1-.9-.7-1.8-1.2-2.9-1.6-.9-.4-1.8-.6-2.8-.9-1.4-.4-3-.8-4.4-1.1-.6-.2-1-.2-1.6-.4-.6-.2-1.2-.2-1.8-.2h-1.7c-.5 0-1 0-1.4-.1-.3 0-.6-.1-.8-.2h-.1s0 .1.1.1.1.1.2.1c.6.4 1.1.8 1.8 1.2.3.2.6.4 1 .6.5.3 1 .5 1.5.6.2.1.6.2.8.2.6.2 1.3.5 1.8.9.2.2.5.3.7.5.5.3 1 .6 1.5.8.6.2 1.4.5 2 .7l1.8.6c.3.1.7.2 1 .4 1.4.6 2.5 1.5 3.4 2.7.7 1 1.2 2.1 1.4 3.2 0 .2.1.4.1.6v.1c-.1-.1-.1-.2-.2-.3-.2-.5-.3-1-.6-1.5-.7-1.4-1.8-2.6-3.1-3.5-.6-.4-1.2-.7-1.8-1l-1.5-.6c-.5-.2-1-.3-1.5-.6-.6-.2-1.2-.5-1.7-.8-.1 0-.1-.1-.2-.1v.1s0 .1.1.1c1.4 1.8 2.9 3.6 4.3 5.4l2.4 3c.1.1.2.2.2.3v.1h-.1c-.2-.1-.2-.2-.4-.3-1.4-1-2.6-2.2-3.7-3.4-.8-1-1.6-1.9-2.2-3-.2-.4-.5-.8-.7-1.1l-.6-.9c-.2-.3-.5-.6-.8-.8-.4-.4-1-.6-1.5-.8-.2-.1-.5-.2-.8-.2-.2-.1-.5-.2-.7-.2-.5-.2-1-.4-1.4-.7-.2-.2-.4-.3-.6-.6-.2-.2-.3-.3-.6-.5l-.4-.4c-.2-.2-.3-.2-.5-.4-.6-.4-1.1-.6-1.8-.6-.1 0-.2-.1-.2-.1 0-.2 0-.2-.1-.4 0-.1-.1-.2-.2-.2-.7-.4-1.4-.9-2-1.3-.3-.2-.6-.4-1-.6-.4-.2-.7-.3-1.2-.5-.3-.1-.6-.2-1-.1-.2 0-.4.1-.6.1-.3 0-.6.1-1 0 0 0-.1 0-.1-.1v-.1l.1-.1c-.1 0-.2 0-.3-.1v.1c-.2.5-.3 1-.6 1.4-.1.1-.1.2-.2.3.1.2.2.3.5.3.2.1.5.1.7.1.3-.1.6-.2.8-.2.2-.1.5-.2.8-.2 1.1-.2 2.2-.1 3.1.6 0 0 0 .1.1.1-.2 0-.2-.1-.4-.1-.5-.2-1-.2-1.4-.3-.6-.1-1.2-.1-1.8.1-.3.1-.6.2-1 .4-.5.2-.8.6-1 1.1-.1.1-.1.2 0 .3.1.1.1.2.1.3.2.6.3 1.3.5 1.8 0 0 0 .1.1.1h.1c.1-.1.1-.2.2-.2.2-.3.4-.6.7-.8.6-.6 1.3-.9 2.2-1 .2 0 .4-.1.6 0 0 .1 0 .1-.1.1-.2 0-.2.1-.4.1-1.2.4-2.2 1-2.9 2.1-.1.1-.1.2-.2.2.1 0 .1.2.1.2s0 .2.1.3h.1c.1 0 .2-.1.2-.1.9-.6 1.8-.7 2.9-.6h.8c.6-.1 1.3-.2 1.9-.3.7-.2 1.4-.2 2.2-.2.4 0 .7.1 1.1.2.2.1.5.2.7.3.1.1.2.1.2.2-.1.1-.1 0-.2 0-1-.2-2.2-.2-3.2-.1-.6.1-1.3.2-1.9.2 0 0-.1 0-.1.1 0 0 0 .1.1.1 1 .5 1.9 1.2 2.6 2 .1.1.1.1.1.2-.1 0-.1-.1-.2-.1-.2-.1-.2-.2-.4-.4-.5-.5-1.1-.9-1.8-1.2-.6-.3-1.2-.5-1.8-.6-.7-.1-1.4.1-2.2.4-.4.2-.6.5-.9.8-.1.2-.1.3-.1.5v1.4c0 .7-.1 1.4-.2 2.1-.1.6-.2 1.1-.2 1.6 0 .2-.1.3-.1.5s0 .2.1.4c.2.3.3.6.5.9.3.5.8 1 1.2 1.4.4.3.7.6 1.2.9.4.2.9.6 1.3.8.5.3 1 .6 1.4.9.4.2.8.6 1.1.9l.6.6c.1.2.2.2.4.2.2.1.5.2.7.2.2.1.6.1.8.2.2.1.6.2.8.2.3.2.6.4.8.6.1.1.1.2.2.3h-.1c-.3-.4-.8-.6-1.4-.7-.2-.1-.4-.1-.6-.2-.3-.1-.6-.2-.9-.2h-.1v.1c0 .1.1.1.1.2l.3.6c.2.5.2 1 .2 1.4 0 .2-.1.5-.1.6 0 .1-.1.1-.1.2v-.2c.1-1.3-.2-2.4-1-3.4-.4-.6-.9-1-1.4-1.4-.4-.2-.7-.4-1.1-.6l-1.2-.6c-.4-.2-.8-.3-1.1-.6-.6-.2-1-.6-1.4-1-.4-.4-.8-.9-1-1.4 0 0 0-.1-.1-.1h-.1c-.1.5-.2.9-.2 1.4-.2.9-.4 1.8-.6 2.6-.1.2-.1.5-.2.7 0 .1 0 .2.1.2l.6.9c.1.2.2.3.4.5s.5.4.7.6l.9.6c1.2 1 1.8 2.1 2.2 3.5.2.6.2 1.3.1 1.9v.1c0-.1 0-.1-.1-.1 0-.2-.1-.6-.1-.8-.2-1.4-.8-2.6-1.9-3.4-.2-.2-.5-.4-.7-.6l-.9-.6c-.5-.4-1-.8-1.4-1.4l-.2-.2h-.1c0 .1-.1.2-.1.2-.1.6-.2 1.1-.2 1.7-.1.6-.2 1.1-.2 1.6-.1.6-.1 1.3-.2 2 0 .2 0 .3.1.5.2.3.3.6.6.8l.6.6.6.6c.2.2.4.5.6.7.1.2.2.4.2.6 0 .1.1.2 0 .3-.1 0-.1-.1-.1-.2-.2-.3-.4-.6-.6-1-.2-.2-.5-.4-.6-.6-.2-.2-.5-.4-.7-.6l-.4-.4h-.1v.2c0 .6.1 1.1.2 1.7l.3 1.8v.2c-.1-.1-.1-.2-.2-.2-.2-.6-.5-1.3-.6-1.9-.1-.3-.2-.6-.2-1v-.1l-.1-.1s-.1 0-.1.1l-.9 1.2c-.2.2-.2.4-.4.6-.2.4-.3.8-.4 1.2l-.1.1s-.1 0-.1-.1c-.1-.2-.1-.5-.1-.7.1-.3.2-.7.2-1 .2-.2.2-.6.4-.8s.3-.6.6-.8c.2-.2.3-.6.5-.9.1-.2.1-.4.1-.6v-1.7c0-.3.1-.6.1-1V65l-.1-.1c-.1.1-.2.1-.2.2-1 .6-1.8 1.5-2.5 2.5-.4.6-.7 1.3-1 1.9 0 .1-.1.2-.1.2 0-.1-.1-.2-.1-.3-.1-.8.1-1.5.5-2.2.2-.4.6-.7 1-1 .2-.2.5-.3.7-.5.2-.2.6-.3.8-.5.4-.2.7-.5 1-.8.1-.1.2-.2.2-.3 0-.2.1-.5.1-.8l.6-3.3c.2-.7.3-1.5.6-2.2v-.2h-.2c-.4.2-.9.4-1.3.6-.3.1-.6.2-.8.3-1.8.6-3.1 1.5-4.2 2.9-.9 1-1.4 2.2-1.8 3.6 0 .1-.1.2-.1.2v.1h-.1c-.1-.5 0-1 .1-1.5.2-1 .5-1.8 1-2.7.3-.6.8-1 1.3-1.4.6-.5 1.2-.9 1.8-1.1.5-.2.9-.3 1.4-.5.4-.2.7-.2 1.1-.4.5-.2.9-.4 1.3-.6.2-.2.5-.4.7-.6.1-.1.2-.2.2-.3.2-.9.3-1.7.5-2.6.2-1 .2-2.2.3-3.2v-1.1c-.1-.2-.1-.4-.1-.6s0-.5-.1-.7v.1s0 .1-.1.1c-.1-.2-.2-.3-.2-.4-.6-1-1.4-1.8-2.6-2.4-.4-.2-.7-.2-1.1-.3-.1 0-.1 0-.2-.1.1 0 .1-.1.2-.1.2-.1.4-.1.6 0 1.3.1 2.2.6 3 1.5.1.1.2.2.2.3v-.2c-.2-.4-.3-.8-.5-1.2-.2-.3-.4-.7-.7-1-.4-.5-.9-.8-1.4-1.1-.3-.2-.6-.2-.9-.3-.3-.1-.6-.1-1-.2-.2 0-.2-.1-.3-.1.2-.1.4-.2.6-.1.5.1.9.2 1.3.3.2.1.3.1.6.2.4.1.8.2 1.2 0 .1 0 .2-.1.2-.1.1-.1.2-.1.2-.2.1-.6.1-1.4-.1-2-.2-.6-.4-1-.8-1.4-.2-.2-.5-.5-.7-.6-.3-.2-.6-.2-.9-.3-.3-.1-.6 0-1 .1-.3.1-.7.2-1 .5-.3.2-.6.4-.8.6l-.6.6-.8.8c-.2.2-.5.4-.8.6-.7.5-1.5.6-2.4.6-.4-.1-.8-.2-1.3-.2-.4-.1-.7-.2-1.1-.2-.4-.1-.9-.1-1.3-.1-.3 0-.6.1-1 .2-.3.1-.7.2-1 .4-.3.2-.7.3-1 .5-.8.3-1.6.5-2.5.6-.7.1-1.5.1-2.2.1s-1.5 0-2.2-.1h-.2c-1.3 0-2.5-.1-3.8-.1-.7 0-1.4-.1-2.2-.1h-1c-.3 0-.6.1-1 .2-.6.2-1.1.6-1.4 1-.2.4-.4.8-.5 1.2-.1.3-.1.6-.1.9v1.1c0 .3 0 .6-.1 1 0 .3-.1.6-.2 1-.2.5-.4.9-.7 1.3 0 0-.1.1-.1.2v.1h.1c.6 0 1 .1 1.5.2 2 .6 3.8 1.7 5.1 3.2.4.5.7 1 1 1.4 0 .1.1.1.2.1 0-.1.1-.1.1-.2.2-.6.6-1 1.1-1.5.4-.3 1-.6 1.4-.6 1-.2 1.8-.1 2.7.2.6.2 1.2.6 1.8 1 .5.4.9.9 1.3 1.4.4.5.6 1 1 1.6.2.4.4.8.6 1.3.1.1.1.2.2.3l.7.7.6.6 2.7 3.3c1.4 1.7 2.9 3.4 4.4 5 1.5 1.7 3.1 3.4 4.8 4.9.2.2.5.5.7.6.2.2.4.3.6.4.2.2.4.2.6.3.6.2 1.2.2 1.8.1.2-.1.6-.2.8-.3.3-.2.6-.3.8-.6.3-.2.6-.5.9-.8 3.5-3.1 7.3-6 11.3-8.6.2-.1.3-.2.4-.4.2-.3.5-.6.8-.9.3-.3.8-.6 1.3-.6.4-.1.7-.1 1.1 0 .4.1.7.2 1 .6.2.2.2.3.4.6.1.2.2.5.2.7l.9 2.7c.1.2.2.6.2.8.1.3.1.6.1 1 0 .2-.1.5-.2.6l-.1.1c.1 0 .1.1.2 0 .2-.1.3-.2.5-.3 1.2-.9 2.1-2 2.7-3.4.2-.6.4-1.1.6-1.7.2-.6.2-1 .4-1.5s.3-1 .6-1.4c.6-.9 1.3-1.5 2.3-1.8 1.2-.4 2.3-.2 3.4.3.9.5 1.5 1.2 1.8 2.2h.1c.3.2.7.5 1 .7-.3-.7-.5-1-.6-1.2zm-24.4-11.9h.2-.2zM227.4 44s.1 0 0 0c.1 0 .1 0 0 0-.1.1-.1.1-.2.1.1-.1.2-.1.2-.1zm-12.5 2.3c-.4.1-.8.2-1.3.1-.2 0-.4 0-.6-.1l-.6-.3v-.1s0-.1.1-.1h1.4c.7 0 1.4-.1 2.2-.2 1.4-.2 2.7-.3 4.1-.6 1.2-.2 2.4-.4 3.7-.6 1-.2 2.1-.3 3.1-.6.2 0 .3 0 .5-.1v.1c-.2.1-.3.1-.5.2-.6.2-1 .2-1.6.4-1.4.2-2.8.5-4.2.7-1.2.2-2.3.4-3.5.6-1.1.3-2 .5-2.8.6zm7.7 5.1c-.1.1-.1.1 0 0-.1 0-.1 0 0 0-.1-.2-.1-.5 0-.7.2-1.7.9-3.1 1.9-4.5.1-.1.2-.2.2-.3v-.1s-.1 0-.1.1c-.1.1-.2.1-.3.2-3.3 2.1-6 4.6-8.1 7.8-.1.2-.2.2-.2.4 0 0-.1 0-.1.1 0-.1 0-.2.1-.2.3-.9.8-1.7 1.3-2.4.8-1.3 1.8-2.4 3-3.4 1.3-1.1 2.8-2.1 4.4-2.9 1.4-.6 2.8-1.3 4.3-1.7.1 0 .2-.1.3-.1.2-.1.5-.2.7-.3.9-.4 1.8-.7 2.7-1 1.3-.3 2.6-.5 3.9-.4.5 0 1 0 1.5.1h.1c-.1.1-.2.1-.2.1-.2 0-.6 0-.8.1-.6 0-1.4.1-2 .2h-.2c-.2.1-.6.2-.8.2-1.1.1-2.2.4-3.4.8-.8.2-1.5.6-2.2.9-.1 0-.2.1-.2.2v-.1c.2-.1.3-.2.5-.3h-.2c-.3.2-.6.2-1 .4-.2.1-.2.2-.3.2-.7.5-1.3 1-1.8 1.6-.5.6-.8 1.1-1.2 1.8-.5.8-.8 1.6-1.2 2.5-.3 0-.5.4-.6.7zm.7 1.1c0-.1 0-.1 0 0 .1-.1 0 0 0 0zm4.8 5.2c0-.1 0-.1 0 0 0-.1.1 0 0 0zm.1-.1c.1 0 0 0 0 0zm2.7-2.6l-1.9 1.9-.6.6h-.1c0-.1.1-.1.1-.2.8-.8 1.5-1.7 2.2-2.6.6-.8 1.3-1.6 1.9-2.3.6-.8 1.4-1.5 2.1-2.2h-.1c-.1.1-.2.1-.2.2-.6.5-1.4.7-2.2.9-.6.1-1.1.2-1.8.2h-2.9c-.7 0-1.4.1-2.1.2-.6.2-1.2.3-1.8.6-.1 0-.2.1-.2.1h-.1l.3-.3c.6-.4 1.3-.7 1.9-1 .6-.2 1.3-.4 1.9-.5.7-.1 1.4-.2 2.1-.2.6-.1 1.3-.1 1.9-.2.9-.1 1.8-.2 2.6-.4.3-.1.7-.2 1-.2l.6-.3c.4-.3.8-.6 1.2-.8.5-.3 1-.6 1.5-.7.6-.2 1-.3 1.6-.3.6 0 1.3.1 1.9.3.4.2.7.4.9.7h-.1s-.1 0-.1-.1c-.7-.5-1.4-.6-2.3-.5-.5.1-1 .2-1.4.4-.9.3-1.7.8-2.4 1.3-.6.4-1.3.9-1.8 1.4-.7.6-1.4 1.3-2 1.9-.3.7-.9 1.5-1.6 2.1zm24.9.5c.1 0 .1.1.2.1-.1 0-.1 0-.2-.1 0 .1-.1 0 0 0-.1 0-.1 0 0 0zm-.1-.2c-.1 0-.1 0 0 0zm-.3.1v-.2.2zm-.1-.3c0 .1 0 .1 0 0zm-.2 0c.1 0 .1.1.2.1-.2.1-.2 0-.3-.1 0-.1.1-.1.1 0zm-.1-.1s-.1-.1 0-.2c-.1.1 0 .2 0 .2zm2.4 7c-.6-.6-1-1.1-1.4-1.7-.5-.7-.9-1.5-1.2-2.4l-.9-2.4c-.2-.6-.4-1-.6-1.6-.1-.2-.1-.2-.2-.3l-.2-.2c0-.1-.1-.2-.1-.2-.1-.4-.2-.8-.4-1.1 0-.1-.1-.2-.1-.2.1.1.2.2.2.3.4.8 1 1.5 1.6 2.2.2.2.5.4.7.6h-.2c-.2-.1-.4-.2-.6-.4-.2-.2-.4-.2-.6-.4h-.1v.2c.4 1 .8 2 1.1 3 .3.8.6 1.5 1 2.2.4.8 1 1.6 1.6 2.3.1.1.1.1.1.2l.3-.1zm6.7 3.2c-.1-.1-.1-.2-.1-.2 0-.9-.2-1.7-.6-2.5-.4-.9-1-1.6-1.6-2.3-.5-.6-1-1-1.6-1.4-.6-.5-1.4-1-2-1.4-.7-.5-1.4-1-2.1-1.4-.1-.1-.2-.1-.2-.2v-.1c.2.1.2.2.4.2.5.2 1 .5 1.4.8.6.3 1.1.6 1.7.9.6.3 1.1.6 1.7 1 .3.2.7.6 1 .9 1 1 1.6 2.1 1.8 3.4.1.5.2 1 .2 1.5.2.2.1.5 0 .8z"/><path class="st4" d="M207.6 50.8zm-12.4 56.1v-.2c-.1.1-.1.2-.2.3l.2-.1zm7.4-2.5c.1.1.1.2.1.2 0-.1 0-.1-.1-.2-.2-.3-.3-.6-.6-1 .3.3.4.7.6 1zm3.3-34.5zm.1-.1zm1.3-1.2zm8.3 5.4zm-4.8-9.2zm7.6 57.7zm21.7-3.3zm-21-32.6zm6.7-21.4zm2-7.2zm.2-.2zm39.1 40.7zm4.4-24.5z"/><path class="st6" d="M218.5 122.5c-.1-.1-.1-.2 0-.2.4-.6.6-1.4.6-2.1.1-.6.1-1.2.2-1.8 0-1.3.1-2.6.1-4 0-.6 0-1.1.1-1.7v-.2c-.1.1-.1.2-.2.2-.6 1-1.1 2-1.6 3-1 2.2-2 4.3-3 6.6-.5 1.2-1 2.4-1.4 3.6-.1.2-.1.3-.2.4-.1 0-.1-.1-.1-.1.4-1.5.9-3 1.3-4.5.6-2.2 1.5-4.5 2.6-6.6 1-1.9 2-3.8 3.2-5.6.6-.8 1.1-1.7 1.7-2.5.1-.1.2-.2.2-.3v-.1h-.2c-.7.1-1.5.2-2.2.3-1.3.2-2.5.6-3.7 1-1.4.6-2.6 1.4-3.8 2.4-1.1 1-2.1 2.2-2.9 3.4-.1.2-.2.2-.2.4.1-.1.1-.1.1-.2.6-1.7 1.7-3.1 3.1-4.4 1-.9 2.2-1.7 3.4-2.3.8-.5 1.7-.8 2.6-1.2 1-.4 1.9-.7 2.9-1.1 1-.4 1.9-.7 2.9-1.2.1 0 .2-.1.2-.1.2-.1.3-.2.5-.3.1-.1.2-.2.2-.3.2-.2.4-.5.5-.7.1-.1.1-.2.2-.2s.2-.1.2-.2l1.5-1.8c.4-.5.8-1 1.2-1.4.2-.2.4-.6.6-.8.1-.1.1-.2.2-.2-.1-.2-.2-.4-.5-.6-.8-.4-1.7-.7-2.6-.8-.7-.1-1.5-.2-2.2-.1-1 .1-1.9.2-2.9.4-.3.1-.7.2-1 .2-.2.1-.4.2-.6.2-.6.4-1.3.9-1.8 1.4-.6.6-1.3 1.1-1.8 1.7l-1.4 1.4c-.4.4-.9.8-1.3 1.3-.6.6-1.1 1-1.8 1.4-.5.3-1 .6-1.5 1-.1 0-.2.1-.2.1v-.1c.1-.1.2-.1.2-.2.6-.4 1.2-.9 1.7-1.4.6-.6 1.1-1.2 1.6-1.8.6-.6 1-1.3 1.6-1.9.3-.4.6-.8 1-1.1.4-.4.9-.9 1.4-1.2.1-.1.2-.1.2-.2h-.1c-.9.2-1.8.3-2.7.4-.8.1-1.7.2-2.5.3-1 .1-1.8.2-2.8.2-.8.1-1.5.1-2.3.1h-2.6c-.8 0-1.6-.1-2.4-.1-.5 0-.9-.1-1.4-.1-.3 0-.6-.1-1-.1-.2 0-.2-.1-.4-.1.1-.1.2 0 .2-.1.6 0 1.3-.1 1.9-.1 1-.1 2.1-.1 3.1-.2.9-.1 1.8-.1 2.6-.2.6 0 1.2-.1 1.8-.1.7-.1 1.4-.1 2.2-.2.5 0 1-.1 1.4-.1.5-.1 1-.1 1.4-.2.3 0 .6-.1.9-.1.2 0 .5-.1.8-.1.1 0 .2 0 .2-.1 0 0 .1-.1.2-.1.5-.1 1-.1 1.5-.2.2 0 .4-.1.6-.1.2 0 .3-.1.5 0h.2c1.2-.2 2.4-.4 3.5-.6.7-.2 1.4-.2 2.1-.3.8-.1 1.5-.1 2.3.1.8.2 1.5.4 2.2.9.2.2.3.2.5.1s.4-.2.6-.4c.2-.2.2-.6.1-.8 0-.1-.1-.2-.1-.2 0-.1-.1-.1-.2-.2-.3-.1-.6-.3-.9-.6l-.6-.6c-.3-.3-.7-.6-1.1-.7-.4-.2-.8-.3-1.2-.4-.2-.1-.5-.2-.7-.2-1.4-.5-2.6-1.2-3.6-2.2-1-1-1.8-2.1-2.3-3.4 0 0 0-.1-.1-.1v-.2c0 .1 0 .1.1.2 1.6 2.1 3.5 3.8 5.9 5 .5.2.9.4 1.4.6.3.1.6.2 1 .4s.7.3 1.1.6c.2.2.5.3.7.6.2.2.3.4.5.7 0 .1.1.2.1.3 0 .2.1.2.2.3h.1l.1-.1c.2-.4.3-.7.5-1.1.1-.1.1-.2.1-.2-.2-1.8-.9-3.5-2-5.1-.3-.5-.7-.9-1.1-1.3-1-1-2.2-1.8-3.6-2.2-.6-.2-1.4-.4-2.1-.6-.8-.2-1.7-.3-2.5-.5-.7-.2-1.5-.3-2.2-.6-1-.3-1.9-.7-2.7-1.4-.1-.1-.1-.1-.2-.1h.1v.2c.2.4.2.8.3 1.2.1.5 0 1-.1 1.5-.2 1-.7 1.9-1.5 2.7-.4.4-1 .8-1.4 1.1-.5.3-1 .6-1.5.8-.4.2-.7.3-1.1.5-.3.2-.6.2-.9.4-1.2.5-2.2 1.2-3.3 2-.6.6-1.3 1.1-1.9 1.7-.6.5-1 1-1.6 1.4-.6.5-1.1 1-1.8 1.4-.5.3-1 .6-1.4.8-.5.2-1 .4-1.4.5-.2 0-.4.1-.6.1h-.3c-.2.4-.2.9-.4 1.4v-.4c.1-.7.1-1.4.2-2.2.1-.9.3-1.7.5-2.5.4-1.3.9-2.5 1.6-3.6.5-.7 1-1.4 1.8-2.1.6-.6 1.3-1 2-1.4.3-.2.7-.3 1.1-.4h.1l-.1.1c-1.5 1.4-2.7 2.9-3.8 4.5-1.1 1.7-2 3.5-2.6 5.4 0 .1-.1.2-.1.2v.1h.1c.4-.3.9-.5 1.4-.7.4-.2.7-.4 1-.6.8-.6 1.4-1.3 2.1-2 .6-.6 1-1.2 1.5-1.8.4-.5.9-1 1.3-1.4.5-.6 1-1 1.6-1.5.2-.2.5-.4.8-.6.7-.5 1.5-.9 2.3-1.2.4-.1.7-.2 1.1-.3.4-.1.8-.2 1.1-.4.3-.1.6-.2.8-.4.6-.4 1-.8 1.3-1.4.2-.5.3-1 .4-1.4.1-.9 0-1.8-.2-2.7l-.6-1.8c0-.1-.1-.2-.1-.2h.1l.1.1c.9.7 1.8 1.3 3 1.7.4.2.9.3 1.4.4h.2c.1 0 .1 0 .2-.1s.1-.2.2-.3c.2-.2.2-.5.4-.7.2-.4.6-.7 1-1 .2-.1.2-.2.4-.3.1-.1.2-.2.3-.2.5-.4.6-1 .5-1.5-.1-.3-.2-.6-.3-.8-.2-.2-.2-.4-.4-.6-.1-.1-.1-.2-.2-.2h.1c.1 0 .1 0 .2.1.6.2 1.2.2 1.8.2.5-.1 1-.1 1.4-.2.6-.1 1.1-.2 1.7-.1.8 0 1.6.2 2.2.7.6.5 1.1 1 1.4 1.6.2.4.4.8.5 1.2 0 .1.1.2.1.2l.1.1h.1l.1-.1c.2-.5.6-.8 1-1.1.5-.3 1-.5 1.8-.5.2 0 .5.1.6.2.3.1.6.2 1 .3l.9.3c.5.2.9.2 1.4.2.2 0 .3-.1.5-.1.1 0 .1-.1 0-.2l-.2-.2c-1.4-1-2.8-2.2-4.1-3.4-1.5-1.4-3-2.8-4.3-4.3-.3-.3-.6-.7-1-1-.2-.2-.6-.5-.8-.7-.2-.2-.6-.4-.9-.6-.5-.2-1-.3-1.6-.3h-.2c-.2 0-.4.2-.5.2-.6.5-1 1-1.4 1.7-.2.4-.5.8-.7 1.3-.2.3-.4.6-.6 1l-.6.9c-.2.2-.4.5-.6.6-.1.1-.2.2-.3.2-.1.1-.2.1-.3.1.5-.4.9-.9 1.3-1.4.2-.3.5-.6.6-1 .2-.4.5-.9.6-1.3.2-.4.5-.9.7-1.3.2-.3.4-.6.6-1 .2-.2.2-.4.3-.6 0-.1.1-.2.1-.2l.1-.1.6-.3c.3-.3.8-.6 1.2-.7.5-.2 1-.2 1.4-.2.3 0 .6.1.9.2-.1.1-.2.1-.2.1-.6.1-1.2.3-1.8.6-.1 0-.2.1-.2.2.1.1.2.1.2.1.6.2 1.2.4 1.8.7.6.3 1.1.7 1.6 1.1.6.5 1.1 1 1.7 1.7.6.6 1.1 1.3 1.8 1.9.3.4.6.7 1 1.1.8.9 1.8 1.6 2.8 2.2.4.2.9.5 1.3.7.5.2 1 .6 1.4.9.6.4 1 .8 1.5 1.3.1.1.1.1.1.2.1-.1.1-.1.1-.2s-.1-.2-.1-.2c-.4-1.2-.9-2.4-1.4-3.5-.1-.2-.2-.5-.4-.7-.1-.2-.2-.4-.4-.6-1.1-1.2-2.2-2.5-3.1-3.8-.1-.1-.2-.2-.2-.3-.1-.2-.2-.2-.2-.4-.1-.2-.2-.3-.2-.4-.2-.2-.2-.4-.4-.6-.2-.3-.5-.6-.7-.8-.2-.2-.4-.6-.6-.8-.7-1-1.5-2.2-2.3-3.2-.4-.5-.7-1-1.1-1.4-.2-.2-.3-.4-.5-.6l-.9-.9s0-.1-.1-.1h-.1l-.1.1c-.4-.7-.9-1.4-1.3-2.1-.3-.5-.6-1-1-1.4-.2-.3-.5-.6-.8-.9-.1-.1-.2 0-.2.1v.1c-.2.4-.1.7.2 1 .1.2.2.3.3.4l.4.4.5.5c.2.2.4.6.5.9.1.3 0 .6-.2.8l-.3.3-.3.3-.2.2c-.2.3-.2.6-.1 1 .2.3.5.5.9.6.2.1.4.1.6.1.2 0 .6 0 .8.1.6.1 1 .4 1.3.9.2.4.2.9.1 1.4-.2.4-.4.7-.8.9-.1.1-.2 0-.2 0 .2-.1.2-.2.3-.4.1-.3.1-.6-.2-.9-.2-.3-.6-.5-1-.6-.3-.1-.6-.1-.9-.1h-.5c-.2 0-.4 0-.6-.1-.2 0-.4-.1-.6-.2-.5-.3-.7-.8-.6-1.3.1-.2.1-.4.2-.6l.3-.6.3-.6c.1-.2.2-.3.2-.6.1-.4-.1-.7-.4-1-.1-.1-.2-.2-.4-.2-.2-.1-.2-.2-.4-.2-.2-.1-.3-.2-.4-.3-.2-.2-.2-.4-.2-.6v-.2s0-.1-.1-.1h-.2c-1 .2-1.8 0-2.6-.5-.1-.1-.2-.1-.2-.2h-1c0 .1-.1.2-.1.2-.2.4-.4.7-.8 1-.2.2-.6.3-.9.5-.3.1-.6.2-.9.2-.3.1-.6.2-1 .2-1 .3-1.8.9-2.4 1.7-.3.5-.6 1-.8 1.6-.2.5-.2 1-.3 1.4 0 .1-.1.2-.1.3-.1 0-.1 0-.1-.1-.2-.2-.3-.3-.4-.6-.2-.3-.2-.7-.2-1l.3-1.2.3-.6c.5-.8 1-1.5 1.7-2.2.6-.6 1.3-1 2-1.4.2-.1.5-.2.7-.3.1-.1.1-.1.1-.2-1.4-2.1-3.4-3.7-6-4.6-.2-.1-.5-.2-.7-.2-.2 0-.2-.1-.4-.1l-.4-.2c-.1 0-.2.1-.3.2-.1 0-.2.1-.3.1 0 0-.1 0-.1-.1s.1-.2.1-.2 0-.1-.1-.1h-.3s-.1-.1 0-.1c.2-.3.5-.6.7-.9v.2c-.1.2-.2.3-.2.5v.1h.1c.2-.1.2-.2.4-.3.2-.2.4-.5.6-.7.2-.4.3-.8.4-1.3.1-.6.1-1.1 0-1.7s-.1-1-.1-1.6c0-.5.1-1 .2-1.4.1-.2.2-.5.4-.7.4-.6 1-1 1.6-1.1.2-.1.4-.1.6-.1h1.4c.6.1 1.4.2 2 .2.6.1 1.4.1 2 .1h2.9c.8 0 1.5-.1 2.3-.2.4 0 .8-.1 1.2-.1.5-.1 1-.1 1.5-.2.8-.1 1.5-.2 2.3-.4 2.4-.5 4.7-1 7-1.9 1-.4 1.8-.8 2.7-1.3.3-.2.7-.4 1.1-.6.4-.2.8-.3 1.2-.5s.9-.2 1.4-.2c.5 0 .9 0 1.4.2.6.2 1 .6 1.4 1 .3.5.6 1 .7 1.4.2.8.1 1.5-.1 2.3-.2.5-.3 1-.6 1.4-.1.1-.1.2-.2.3.1.2.2.3.5.3.2.1.5.1.7.1.3-.1.6-.2.8-.2.2-.1.5-.2.8-.2 1.1-.2 2.2-.1 3.1.6 0 0 0 .1.1.1-.2 0-.2-.1-.4-.1-.5-.2-1-.2-1.4-.3-.6-.1-1.2-.1-1.8.1-.3.1-.6.2-1 .4-.5.2-.8.6-1 1.1-.1.1-.1.2 0 .3 0 .1.1.2.1.3.2.6.3 1.3.5 1.8 0 0 0 .1.1.1h.1c.1-.1.1-.2.2-.2.2-.3.4-.6.7-.8.6-.6 1.3-.9 2.2-1 .2 0 .4-.1.6 0 0 .1 0 .1-.1.1-.2 0-.2.1-.4.1-1.2.4-2.2 1-2.9 2.1-.1.1-.1.2-.2.2-.1.1-.1.2-.1.3s0 .2.1.3h.1c.1 0 .2-.1.2-.1.9-.6 1.8-.7 2.9-.6h.8c.6-.1 1.3-.2 1.9-.3.7-.2 1.4-.2 2.2-.2.4 0 .7.1 1.1.2.2.1.5.2.7.3.1.1.2.1.2.2-.1.1-.1 0-.2 0-1-.2-2.2-.2-3.2-.1-.6.1-1.3.2-1.9.2 0 0-.1 0-.1.1 0 0 0 .1.1.1 1 .5 1.9 1.2 2.6 2 .1.1.1.1.1.2-.1 0-.1-.1-.2-.1-.2-.1-.2-.2-.4-.4-.5-.5-1-.9-1.8-1.2-.6-.3-1.2-.5-1.8-.6-.7-.1-1.4.1-2.2.4-.4.2-.6.5-.9.8-.1.2-.2.3-.1.5v1.4c0 .7-.1 1.4-.2 2.1-.1.6-.2 1.1-.2 1.6 0 .2-.1.3-.1.5s0 .2.1.4c.2.3.3.6.5.9.3.5.8 1 1.2 1.4.4.3.7.6 1.2.9.4.2.9.6 1.3.8.5.3 1 .6 1.4.9.4.2.8.6 1.1.9l.6.6c.1.2.2.2.4.2.2.1.5.2.7.2.2.1.6.1.8.2.2.1.6.2.8.2.3.2.6.4.8.6.1.1.1.2.2.3h.1c-.3-.4-.8-.6-1.4-.7-.2-.1-.4-.1-.6-.2-.3-.1-.6-.2-.9-.2h-.1v.1c0 .1.1.1.1.2l.3.6c.2.5.2 1 .2 1.4 0 .2-.1.5-.1.6 0 .1-.1.1-.1.2v-.2c.1-1.3-.2-2.4-1-3.4-.4-.6-.9-1-1.4-1.4-.4-.2-.7-.4-1.1-.6l-1.2-.6c-.4-.2-.8-.3-1.1-.6-.6-.2-1-.6-1.4-1-.4-.4-.8-.9-1-1.4 0 0 0-.1-.1-.1h-.1c-.1.5-.2.9-.2 1.4-.2.9-.4 1.8-.6 2.6-.1.2-.1.5-.2.7 0 .1 0 .2.1.2l.6.9c.1.2.2.3.4.5s.5.4.7.6l.9.6c1.2 1 1.8 2.1 2.2 3.5.2.6.2 1.3.1 1.9v.1c0-.1 0-.1-.1-.1 0-.2-.1-.6-.1-.8-.2-1.4-.8-2.6-1.9-3.4-.2-.2-.5-.4-.7-.6l-.9-.6c-.5-.4-1-.8-1.4-1.4l-.2-.2h-.1c0 .1-.1.2-.1.2-.1.6-.2 1.1-.2 1.7-.1.6-.2 1.1-.2 1.6-.1.6-.1 1.3-.2 2 0 .2 0 .3.1.5.2.3.3.6.6.8l.6.6.6.6c.2.2.4.5.6.7.1.2.2.4.2.6 0 .1.1.2 0 .3-.1 0-.1-.1-.1-.2-.2-.3-.3-.6-.6-1-.2-.2-.5-.4-.6-.6-.2-.2-.5-.4-.7-.6l-.4-.4h-.1v.2c0 .6.1 1.1.2 1.7l.3 1.8v.2c-.1-.1-.1-.2-.2-.2-.2-.6-.5-1.3-.6-1.9-.1-.3-.2-.6-.2-1v-.1l-.1-.1s-.1 0-.1.1l-.9 1.2c-.2.2-.2.4-.3.6-.2.4-.3.8-.4 1.2l-.1.1s-.1 0-.1-.1c-.1-.2-.1-.5-.1-.7.1-.3.2-.7.2-1 .2-.2.2-.6.4-.8.2-.2.3-.6.6-.8.2-.2.3-.6.5-.9.1-.2.2-.4.1-.6v-1.7c0-.3.1-.6.1-1v-.4l-.1-.1c-.1.1-.2.1-.2.2-1 .6-1.8 1.5-2.5 2.5-.4.6-.7 1.3-1 1.9 0 .1-.1.2-.1.2 0-.1-.1-.2-.1-.3-.1-.8.1-1.5.5-2.2.2-.4.6-.7 1-1 .2-.2.5-.3.7-.5.2-.2.6-.3.9-.5.4-.2.7-.5 1-.8.1-.1.2-.2.2-.3 0-.2.1-.5.1-.8l.6-3.3c.2-.7.3-1.5.6-2.2v-.2h-.2c-.4.2-.9.4-1.3.6-.3.1-.6.2-.8.3-1.8.6-3.1 1.5-4.2 2.9-.9 1-1.4 2.2-1.8 3.6 0 .1-.1.2-.1.2v.1h-.1c-.1-.5 0-1 .1-1.5.2-1 .5-1.8 1-2.7.3-.6.8-1 1.3-1.4.6-.5 1.2-.9 1.8-1.1.5-.2.9-.3 1.4-.5.4-.2.7-.2 1.1-.4.5-.2.9-.4 1.3-.6.2-.2.5-.4.7-.6.1-.1.2-.2.2-.3.2-.9.3-1.7.5-2.6.2-1 .2-2.2.3-3.2v-1.1c-.1-.2-.1-.4-.1-.6s0-.5-.1-.7v.1s0 .1-.1.1c-.1-.2-.2-.3-.2-.4-.6-1-1.4-1.8-2.6-2.4-.3-.2-.7-.2-1.1-.3-.1 0-.1 0-.2-.1.1 0 .1-.1.2-.1.2-.1.4-.1.6 0 1.3.1 2.2.6 3 1.5.1.1.2.2.2.3v-.2c-.2-.4-.3-.8-.5-1.2-.2-.3-.4-.7-.7-1-.4-.5-.9-.8-1.4-1.1-.3-.2-.6-.2-.9-.3-.3-.1-.6-.1-1-.2-.2 0-.2-.1-.3-.1.2-.1.4-.2.6-.1.5.1.9.2 1.3.3.2.1.3.1.6.2.4.1.8.2 1.2 0 .1 0 .2-.1.2-.1.1-.1.2-.1.2-.2.1-.6.1-1.4-.1-2-.2-.6-.4-1-.8-1.4-.2-.2-.5-.5-.7-.6-.3-.2-.6-.2-.9-.3-.3-.1-.6 0-1 .1-.3.1-.7.2-1 .5-.3.2-.6.4-.8.6l-.6.6-.8.8c-.2.2-.5.4-.8.6-.7.5-1.5.6-2.4.6-.4-.1-.8-.2-1.3-.2-.4-.1-.7-.2-1.1-.2-.4-.1-.9-.1-1.3-.1-.3 0-.6.1-1 .2-.3.1-.7.2-1 .4-.3.2-.7.3-1 .5-.8.3-1.6.5-2.5.6-.7.1-1.5.1-2.2.1s-1.5 0-2.2-.1h-.2c-1.3 0-2.5-.1-3.8-.1-.7 0-1.4-.1-2.2-.1h-1c-.3 0-.6.1-1 .2-.6.2-1.1.6-1.4 1-.2.4-.4.8-.5 1.2-.1.3-.1.6-.1.9v1.1c0 .3 0 .6-.1 1 0 .3-.1.6-.2 1-.2.5-.4.9-.7 1.3 0 0-.1.1-.1.2v.1h.1c.6 0 1 .1 1.5.2 2 .6 3.8 1.7 5.1 3.2.4.5.7 1 1 1.4 0 .1.1.1.2.1 0-.1.1-.1.1-.2.2-.6.6-1 1.1-1.5.4-.3 1-.6 1.4-.6 1-.2 1.8-.1 2.7.2.6.2 1.2.6 1.8 1 .5.4.9.9 1.3 1.4.4.5.6 1 1 1.6.2.4.4.8.6 1.3.1.1.1.2.2.3l.7.7.6.6 2.7 3.3c1.4 1.7 2.9 3.4 4.4 5 1.5 1.7 3.1 3.4 4.8 4.9.2.2.5.5.7.6.2.2.4.3.6.4.2.2.4.2.6.3.6.2 1.2.2 1.8.1.2-.1.6-.2.8-.3.3-.2.6-.3.8-.6.3-.2.6-.5.9-.8 3.5-3.1 7.3-6 11.3-8.6.2-.1.3-.2.4-.4.2-.3.5-.6.8-.9.3-.3.8-.6 1.3-.6.4-.1.7-.1 1.1 0s.7.2 1 .6c.2.2.2.3.3.6.1.2.2.5.2.7l.9 2.7c.1.2.2.6.2.8.1.3.1.6.1 1 0 .2-.1.5-.2.6l-.1.1c.1 0 .1.1.2 0 .2-.1.3-.2.5-.3 1.2-.9 2.1-2 2.7-3.4.2-.6.4-1.1.6-1.7.2-.6.2-1 .4-1.5s.3-1 .6-1.4c.6-.9 1.3-1.5 2.3-1.8 1.2-.4 2.3-.2 3.4.3.9.5 1.5 1.2 1.8 2.2v.2h-.1c-.1-.1-.2-.1-.2-.2-.3-.2-.6-.5-1-.7-.3-.2-.7-.4-1-.6-.6-.2-1.1-.3-1.8-.3-.7.1-1.4.3-1.8.8-.2.2-.4.5-.6.8-.2.4-.4.9-.5 1.4-.1.4-.2.7-.2 1.1l-.3 1.8c-.2.8-.6 1.5-1.2 2.2-.2.3-.6.6-.9.8-.3.2-.6.5-1 .8-.3.2-.7.6-1 .8-.2.2-.5.4-.6.6-.4.4-.8.9-1 1.4 0 .1-.1.1-.1.2h-.1c-.1 0-.1-.1-.1-.1-.2-.3-.3-.6-.4-.9-.1-.5-.2-.9-.1-1.4.1-.6.2-1.1.2-1.7.2-.9.1-1.8-.2-2.6-.2-.7-.5-1.4-.7-2-.1-.2-.2-.5-.4-.6-.1-.1-.2-.1-.2-.2-.1.1-.2.2-.3.2-1.8 1.4-3.5 2.7-5.3 4.1-2.6 2.1-5.4 4.2-8 6.2-.2.2-.4.3-.5.6-.6.9-1 1.8-1.3 2.8-.3 1-.6 2-.8 3-.1.6-.2 1.3-.3 1.9s-.2 1.4-.2 2v1c.1.5.1.9.2 1.4.1.6.1 1.1.2 1.8.1.6.1 1.2.1 1.8v.2l.1-.1c.2-.2.2-.3.3-.5.4-.6.9-1.1 1.4-1.7.8-.8 1.6-1.6 2.5-2.4l.2-.2c.1-.1.1-.2.1-.2-.1-.2-.2-.4-.2-.6-.1-.1-.1-.2-.2-.3 0-.1.1-.1.1 0l.9 1.2c.6 1 1.1 2.2 1.4 3.4.2 1 .3 2 .2 3-.1 1.2-.3 2.3-.7 3.4-.1.2-.2.3-.2.4-.2.3-.3.6-.6 1 0 .1-.1.1 0 .2 0-.1-.1-.2-.1-.2.2-.4.2-.8.3-1.2.2-.6.2-1.3.3-2 .1-1 .1-1.9.1-2.9-.1-1.1-.2-2.2-.6-3.4 0 0 0-.1-.1-.1h-.1c-.1.1-.2.1-.2.2-.4.3-.7.7-1 1.1s-.7.9-1 1.3c-.2.2-.5.6-.6.8-.2.2-.4.6-.6.9-.2.4-.5.8-.7 1.2-.3.6-.7 1.2-1.1 1.8-.1.1-.1.2-.1.3 0 .2-.1.6-.1.8v.2l.1.1c.6.5 1.2 1 1.9 1.4.6.4 1.2.7 1.8 1 .4.2.8.2 1.2.3.6.1 1.1.1 1.7-.1.1 0 .2-.1.2 0v.1c0 .1-.1.1-.1.1-.4.3-.7.8-1 1.3-.3.6-.6 1.1-.6 1.8-.2.6-.2 1.3-.2 1.8 0 .7.1 1.4.2 2.1.1.5.2 1 .2 1.5v.2l-.1.1c-.2-.2-.4-.5-.5-.8-.4-.7-.6-1.5-.8-2.3-.1-.4-.1-.8-.2-1.2-.1-1.1.2-2.2.6-3.3.1-.1.1-.2.1-.3 0 0 0-.1-.1-.1h-.2c-.5.2-1 .1-1.4-.1-.3-.1-.6-.2-1-.4l-.9-.6c-.4-.3-.8-.6-1.1-1-.3-.2-.6-.6-.9-.8-.3-.2-.6-.5-1-.7-1-.7-2.1-1.2-3.3-1.4-.3-.1-.6-.1-1-.1-.8-.1-1.5.1-2.3.3-.3.2-.6.2-1 .4s-.8.3-1.1.6c-.1 0-.1.1-.2.1s-.1.1-.1.2c.1.2.2.4.4.5h.4c.7-.2 1.4-.2 2.2-.1 1.3.2 2.5.6 3.7 1.2.7.3 1.4.7 2 1.1 1 .6 1.9 1.4 2.9 2.1l.1.1h-.2c-.5 0-.9-.1-1.3-.2s-.7-.3-1.1-.5c-.4-.2-.7-.4-1-.6s-.7-.5-1-.7c-.4-.2-.7-.5-1.1-.7-.8-.5-1.7-.8-2.6-1-.4-.1-.9-.2-1.3-.1h-.9c-.3 0-.6-.1-.8-.2-.2.1-.4.3-.6.5v.1c.2.2.3.6.4.8.2.4.3.7.6 1s.4.6.6.9c.4.5.7 1 1 1.5l.2.2c.4.2.8.5 1.2.6.5.2 1 .4 1.4.6l1.2.6c.4.2.9.5 1.3.7.6.5 1.1 1 1.5 1.6.4.6.6 1.3.7 1.9-.1 0-.1-.1-.1-.1-.4-.9-1-1.6-1.9-2.2-.4-.3-.8-.6-1.3-.7-.3-.2-.7-.4-1.1-.6-.3-.2-.7-.3-1-.6-.5-.2-1-.6-1.4-1-.1 0-.1-.1-.2-.1v.2c.3.9.5 1.8.6 2.6.2.7.2 1.5.3 2.2.2.9.2 1.8.4 2.7.5 2.4 1.4 4.7 2.8 6.8.2.3.5.6.7 1 0 .1.1.1 0 .2l-.2-.2c-.8-.9-1.6-1.8-2.2-2.7-.6-1-1.1-2.2-1.5-3.3-.2-.9-.5-1.8-.6-2.6-.2-.8-.3-1.7-.5-2.5 0-.2-.1-.3-.1-.6-.1.1-.1.2-.1.2 0 .2 0 .3-.1.5-.1.8-.2 1.6-.4 2.4-.2.7-.4 1.5-.6 2.2-.2.7-.3 1.4-.5 2.2-.1.6-.2 1.4-.1 2s.2 1.3.4 1.9c.1.1.1.2.1.3-.1 0-.1 0-.2-.1-.2-.2-.3-.5-.5-.7-.3-.6-.5-1-.6-1.6-.2-.6-.2-1.3-.2-1.9 0-.6.1-1.1.2-1.7.2-1 .5-2 .7-3 .2-.7.4-1.4.6-2.2.2-.8.3-1.7.3-2.5v-.2c0-.2 0-.3-.1-.5-.2-.7-.5-1.4-.8-2-.2-.3-.4-.6-.6-1-.3-.5-.6-1-1-1.4-.2-.3-.3-.6-.5-.9-.2-.2-.2-.6-.4-.8 0-.1-.1-.2-.2-.2-.2 0-.4 0-.6.1-.2.1-.2.2-.4.3-.5.6-.7.9-1.2 1.4-.5.6-1 1-1.4 1.6-.4.4-.8.9-1.1 1.3-.2.2-.2.3-.2.5-.2.6-.2 1.1-.3 1.7 0 .7 0 1.4.1 2.2.1.6.2 1.4.2 2 .1.7.2 1.5.2 2.2 0 1 0 2-.2 3-.2 1.1-.5 2.2-.9 3.2 0 .1-.1.2-.1.3 0 .1-.1.1-.1.1.1-.2.1-.5.2-.7.2-.6.2-1.1.2-1.7 0-.7 0-1.4-.1-2.2s-.2-1.4-.2-2.2c-.1-.6-.2-1.2-.2-1.8-.1-1-.2-1.8-.2-2.8 0-.6.1-1.1.2-1.8 0 0 0-.1-.1-.1l-.2.2c-1.4 1.8-2.6 3.6-3.8 5.4-.1.2-.2.3-.3.5-.2.2-.2.4-.2.6-.1.7-.1 1.5-.1 2.2 0 .6.1 1.3.1 1.9.1 1 .1 1.8-.1 2.8-.1.8-.2 1.6-.6 2.3-.2.5-.4.9-.7 1.3 0-.2-.1-.1-.1 0zm17.6-41.3l.1.2c.2.2.2.3.3.5.3.5.6 1 1 1.5.6.8 1.2 1.5 2 2.2.4.3.8.6 1.1 1 0 0 .1 0 .1.1h.1v-.2c0-.2-.1-.2-.1-.4-.1-.5-.1-1-.2-1.4-.2-1.1-.5-2.2-.8-3.4 0-.2-.1-.2-.1-.4 0-.1-.1-.2-.1-.2-.1 0-.1-.1-.2-.1-1.1-.7-2.2-1.4-3.3-2.2-.1-.1-.2-.1-.2-.2h-.1v.1c-.2.5-.2.9 0 1.4.1.4.2.7.4 1 .1.2.2.3.3.6 0 .1.1.1 0 .2h-.2c0-.3-.1-.3-.1-.3zm7.7-4.9c-.1 0-.1.1 0 0l-.2.1-.2.2c-.3.2-.7.6-1 .8-.1.1-.2.1-.2.2h-.2c-.1 0-.1-.1-.2-.1-.2-.2-.4-.2-.6-.4-.1 0-.1-.1-.2 0 0-.1 0-.1-.1 0h.1c0 .1 0 .2.1.2.3.6.6 1.1.7 1.8V79s.1 0 .1.1c0-.1.1-.1.1-.2.2-.6.6-1.2 1-1.8.2-.2.5-.6.6-.8.1.1.1 0 .2 0zm-20.9 5.3c-.3.1-.5.2-.7.3 0 0-.1.1-.2.1.2.1.4.2.6.2h.1c.1-.2.2-.4.2-.6.1 0 .1 0 0 0 0-.1 0 0 0 0zm17.8-2.1v-.2c-.2-1-.5-1.8-.8-2.8 0-.2-.1-.2-.2-.3-.5-.4-1-.8-1.4-1.2-.1 0-.1-.1-.2-.1h-.1c.1.2.2.3.2.6.7 1.3 1.4 2.5 2.2 3.8.1-.1.2 0 .3.2zm-5.3.9s.1 0 0 0c.1 0 0 0 0 0v-.2c-.2-.2-.2-.6-.2-.9-.1-.2 0-.4-.1-.6 0 0 0-.1-.1-.1s-.2 0-.2.1c-.2.1-.4.1-.6.1-.2 0-.4 0-.6-.1-.2-.1-.4-.2-.6-.2-.2-.1-.5-.2-.7-.3-.6-.2-1.1-.2-1.7-.2-.5.1-1 .2-1.3.6-.1 0-.1.1-.1.2h.1c.7-.1 1.4-.1 2.1 0 1.4.2 2.7.7 3.8 1.6.1-.1.1 0 .2 0-.1 0 0 0 0 0zM219.9 76s.1.1 0 0c.5.6.6 1.1.4 1.7-.1.4-.3.7-.6 1-.2.2-.4.5-.6.6l-.6.6c-.3.2-.6.6-.7.9 0 .1-.1.1-.1.2.1 0 .1.1.1.1.2 0 .2.1.4.1 1 .2 2.1.4 3.1.6h.2c.1 0 .2 0 .2-.1l-.1-.1c-.6-.2-1-.3-1.6-.4-.4-.1-.7-.1-1.1-.1 0 0-.1 0-.1-.1 0 0 .1 0 .1-.1.1 0 .1-.1.2-.1.6-.2 1.3-.2 1.9 0 .2.1.3.1.5.2.3.1.6.2 1 .2.3-.2.6-.3.9-.4.3-.2.6-.3 1-.5.2-.1.3-.2.6-.3l.6-.3c.2-.1.5-.2.7-.3.4-.1.8-.2 1.2-.1h.2c.1 0 .2 0 .2-.1.1-.1.1-.2.1-.2 0-.1-.1-.3-.2-.4-.2 0-.5-.2-.6-.2-.2-.1-.4-.2-.6-.2h-.8c-.3 0-.6 0-1-.1-.8-.2-1.4-.6-2-1.1.1.1.2.2.4.2 1 .6 2 .8 3.1.9.2 0 .5 0 .6.1.4.1.7.2.9.5.1 0 .2.1.3 0 0 0 .1 0 .1-.1s0-.2-.1-.2c-.2-.6-.6-1.1-1.1-1.6-.3-.3-.6-.6-1-.7-.6-.3-1.1-.4-1.8-.4-.4 0-.8.1-1.2.1-.4.1-.9.2-1.3.2h-.9c-.2 0-.3-.1-.5-.1-.3.1-.3.1-.4.1zm11.3 7.3c.1-.1.1-.1 0 0 .1-.1 0-.1 0 0 0-.1.1-.1 0 0 .2.5.2 1 .2 1.4 0 .3.1.6.1 1 .1.3.2.6.2 1 .1.2.2.5.4.7 0 .1-.1.1-.1 0-.3-.2-.6-.6-.7-.9-.2-.4-.3-.8-.3-1.2-.1-.4-.1-.8-.1-1.2s-.1-.7-.1-1.1c0-.2-.1-.5-.2-.8 0-.1-.1-.2-.2-.3-.2-.3-.5-.6-.7-.8-.2-.2-.4-.2-.6-.4-.2-.2-.4-.3-.6-.4h-.5l-.1.1c-.2.3-.2.6-.4.9-.2.3-.2.6-.4 1-.1.2-.1.3-.1.5v.2c.1.4.2.8.4 1.1.2.2.3.6.4.8.1.2.2.2.2.4.7.8 1.3 1.8 1.8 2.7.1.2.2.5.3.7 0 .1.1.2.1.2s.1.1.2.1.2-.1.2-.1c1.3-.6 2.6-.8 4-.8h.3c.3-.2.6-.3.9-.6.1-.1.2-.2.1-.2-.1-.1-.1-.2-.2-.3-.2-.5-.3-1-.4-1.5-.1-1-.1-2 .3-3 0-.1 0-.2.1-.2-.1-.1-.1-.2-.2-.2-.2-.2-.3-.5-.5-.8-.3-.5-.7-.9-1.2-1.2-.2-.1-.3-.2-.5-.3-.1-.1-.2-.2-.3-.2-.1-.1-.2-.1-.3-.1-.4 0-.8-.2-1.2-.2-.2-.1-.3-.1-.5-.1-.3-.1-.7-.1-1-.2-.3 0-.6 0-.8.2-.2.2-.3.3-.6.5 0 0 0 .1-.1.1l.2.2c.1.1.2.2.3.2.2.2.6.4.8.6.1.1.2.1.2.1s.2 0 .2.1c.2 0 .6.1.8.1s.6.1.8.1c.6.1 1.2.4 1.6.9l.1.1c-.1.1-.2 0-.2 0-.3-.2-.7-.4-1-.5-.2 0-.2-.1-.4-.1-.5-.1-1-.2-1.4-.2v.1c.2.2.2.4.4.6.2.4.4.8.6 1.1.2.4.4.7.6 1 .4.7 1 1.3 1.6 1.8.1.1.2.1.2.2v.1c-.1 0-.2 0-.2-.1-.6-.3-1.1-.8-1.5-1.4-.2-.2-.3-.5-.5-.7-.2-.2-.3-.6-.5-.8-.1-.1-.1-.2-.2-.2.3.1.3.1.2.2zm10 9.6v-1.5c0-.2 0-.2-.1-.3l-.6-.9c-.2-.2-.4-.4-.7-.6-.6-.3-1.1-.4-1.7-.4-.6.1-1 .2-1.6.5-.4.2-.8.6-1.1.9l-.9 1.2c-.3.6-.6 1.3-.9 1.9v.1h.1c.2-.1.3-.2.5-.2.7-.3 1.4-.5 2.2-.6 1.2-.1 2.3.2 3.4.6.4.2.7.4 1 .6.1 0 .1.1.2.1 0 0 .1 0 .1-.1v-.3c0-.2.1-.6.1-1zm-14.1-13.1c-.3 0-.5 0-.7.1-.3.1-.7.2-1 .3-.3.2-.6.3-1 .5-.6.3-.6.3-.9.8-.1.1-.1.2-.2.2-.1.2-.2.2-.2.4-.1.2-.1.2.1.2.1 0 .2.1.2.1.8.2 1.5.6 2.2.9.1 0 .1.1.2.1h.2c.2-.2.3-.2.5-.4.1-.1.2-.2.2-.3 0-.1.1-.2.1-.3 0-.1 0-.2.1-.2.1-.2.2-.4.2-.6.2-.5.3-.9.6-1.4 0-.1.1-.2.1-.2s0-.1-.1-.1c-.1-.1-.2-.1-.2-.1h-.4zm8.9 4.7c0 .5.1 1 .1 1.4.1.5.2.9.3 1.3.1.2.1.2.2.2s.2-.1.3-.1c1-.3 1.9-.3 2.9.1.1 0 .2.1.2.1-.1-.1-.1-.2-.2-.2-.6-.6-1-1.1-1.5-1.7-.6-.8-1.3-1.6-1.9-2.4-.1-.1-.1-.2-.2-.2h-.1c0 .1-.1.2-.1.2v1.3zm-1.7 4c-.3 0-.7.1-1 .1-.9.2-1.7.5-2.4.9 0 0-.1 0-.1.1l-.1.1c0 .1 0 .2.1.2.2.9.4 1.8.5 2.6v.1s0 .1.1.1h.1c.1-.1.1-.2.2-.2.4-.6.9-1.3 1.4-1.9.6-.6 1.1-1.3 1.8-1.8l.1-.1s0-.1-.1-.1c-.4-.1-.5-.1-.6-.1zm-15.1-34.6c-.5 0-1 .1-1.4.3-.6.2-1 .6-1.3 1-.1.1-.1.2-.2.3v.1h.3c.4-.1.8-.2 1.3-.2.6-.1 1.3-.1 1.9-.1h2.7s.1 0 0-.1l-.1-.1c-.4-.3-.8-.6-1.3-.8-.7-.3-1.3-.4-1.9-.4zm7.5 30c.2.2.2.2.3.2h.1c-.1-.2-.1-.4-.2-.6-.2.1-.2.2-.2.4z"/><path class="st6" d="M258.8 63.8c.2 0 .5 0 .6-.1l-.1-.1c-.1 0-.3 0-.5.2.1-.1.1 0 0 0zM243.3 126c-.2-.6-.6-1-1-1.4-.3-.3-.7-.6-1.2-.9-.4-.2-.9-.5-1.4-.6-1-.4-2-.6-3-1-1.1-.2-2.2-.5-3.3-.6-.6-.1-1.1-.1-1.7-.1-1.4 0-2.7 0-4.2.2-1 .2-1.8.3-2.7.6-2.1.6-4.1 1.4-5.9 2.4-1.9 1-3.6 2.3-5.2 3.7-.5.4-1 .9-1.4 1.4-.4.5-.8 1-1 1.6-.2.3-.2.6-.4 1 0 .1-.1.2-.1.2v-.1c0-.1.1-.2.1-.3.2-1 .3-1.9.3-3 0-.6-.1-1-.2-1.6-.1-.8-.3-1.5-.6-2.2-.2-.6-.6-1.3-1-1.8-.2-.4-.6-.8-.8-1.3-.2-.4-.5-.8-.6-1.2-.2-.5-.4-1-.6-1.6-.1-.5-.2-.9-.2-1.4 0-.6-.1-1.2-.2-1.8-.2-1.2-.7-2.2-1.4-3.1-.3-.3-.6-.6-1-.9-.3-.2-.7-.5-1.1-.6-.1 0-.2-.1-.2-.1h-.1c.1.2.2.3.3.4.2.2.4.3.6.5.3.2.6.5.9.8.3.5.6.9.9 1.4.4.8.6 1.7.6 2.6 0 .4 0 .9-.1 1.3-.1.6-.2 1-.5 1.5 0 .1-.1.2-.1.2.1 0 .1.1.2.2.9.7 1.7 1.5 2.3 2.5 1.4 2.1 2.1 4.4 2.2 6.8.1 1.2 0 2.3-.2 3.4v.2s.1 0 .1-.1l.3-.3 1.2-1.2c1.5-1.4 3.2-2.9 5-4.1 2.1-1.4 4.3-2.7 6.7-3.7 2.2-.9 4.4-1.5 6.8-1.8.6-.1 1.2-.1 1.8-.1.9 0 1.8.1 2.7.2 1.1.2 2.2.4 3.2.8.1 0 .2 0 .2.1l.4.2c.4.1.8.2 1.1.4.6.2 1.2.5 1.6 1 .1.1.2.1.2.2.1 0 .1.1.1.2.4.2.8.6 1.1.9.1.1.2.2.3.2h.1v-.1c.2 0 .1 0 .1-.1zm23.8-27.5c-.3-.5-.5-1-.6-1.6-.1-.7 0-1.4.1-2.1.2-.6.2-1.2.4-1.8.2-.6.2-1.2.3-1.8V91c0-.2 0-.4-.1-.6-.6-1.5-1.3-3-2-4.5 0-.1-.1-.2-.2-.2 0 .2-.1.2-.1.4-.1.7-.2 1.4-.4 2-.2.6-.4 1.1-.6 1.7-.2.6-.5 1.3-.6 1.9-.2.8-.3 1.7-.3 2.6v.2c-.1 0-.1 0-.1-.1-.1-.3-.2-.6-.2-1-.1-.6-.1-1.4 0-2 .1-.7.2-1.4.5-2.2.2-.5.3-1 .5-1.4.2-.6.4-1.1.5-1.7.1-.5.2-1 .2-1.5 0-.2-.1-.4-.2-.6-.4-.7-.9-1.4-1.4-2.1l-.6-.9c-.1-.1-.2-.2-.2-.3-.1-.2-.3-.3-.6-.4-.1 0-.2 0-.2.1-.4.6-1 1.1-1.5 1.7l-.6.6c-.4.4-.7.9-1 1.4-.1.2-.2.3-.2.5-.1.6-.2 1.3-.1 1.9 0 .8.1 1.5.2 2.2.1.6.1 1.3 0 2s-.2 1.4-.5 2c-.2.4-.4.8-.7 1.1l-.2.2h-.1c0-.1.1-.1.1-.2.3-.5.5-1 .6-1.4s.2-1 .2-1.5 0-1-.1-1.5-.1-1-.1-1.5c0-.6 0-1.2.1-1.8-.1 0-.1.1-.1.2l-.3.9c-.2.6-.5 1.2-.8 1.8-.2.3-.3.6-.5 1-.5.8-1 1.6-1.8 2.2-.4.4-.8.7-1.3 1-.1.1-.1.1-.2.1v-.1l.2-.2c1.4-1.2 2.4-2.6 3-4.3.2-.6.5-1.3.7-1.9.2-.7.6-1.4.8-2.2l.6-1.2v-.1h-.1c-.6.3-1.4.5-2 .7-.4.1-.9.2-1.3.4-.3.1-.6.2-.8.3-.5.2-1 .6-1.3 1-.1.1-.1.1-.2.1.2-.4.4-.8.7-1.1.4-.4.8-.7 1.4-1 .5-.2 1-.3 1.4-.5l1.5-.3c.3-.1.7-.2 1-.3.1 0 .2-.1.2-.2.2-.3.6-.6.9-.9l.6-.6.3-.3c.2-.2.3-.5.5-.6 0-.1.1-.1 0-.2l-.2-.2s-.1 0-.1-.1h-.1c-.2.1-.5.1-.6 0-.2-.1-.4-.1-.6-.1-.3-.1-.6-.1-1-.1-.6 0-1.4.1-2 .3-.3.1-.7.2-1 .4-.3.2-.6.2-1 .4s-.7.2-1.1.3c-.4.1-.8.1-1.2 0h-.1v-.1s0-.1.1-.1c1-.5 2.2-1 3.3-1.4.7-.2 1.4-.4 2.1-.5.6-.1 1-.1 1.6 0 .4 0 .8.1 1.2.3.1 0 .1.1.2.1h.2c.2 0 .2-.1.3-.2v-.2c-.5-.3-.9-.6-1.4-1-.6-.4-1.3-.6-2-.6-.7-.1-1.4 0-2.2.2-.4.1-.9.3-1.3.5-.3.2-.6.4-1 .6-.3.2-.6.3-.9.5-.3.2-.7.3-1 .4-.4.1-.7.1-1.1.1-.2 0-.4-.1-.6-.2 0 0-.1 0-.1.1v.1c0 .2.1.3.1.4.1.5.1.9 0 1.4-.1.6-.3 1.3-.6 1.9-.2.5-.6.9-1 1.3-.1.1-.2.1-.2.2v-.1c0-.1.1-.2.1-.3l.6-1.5c.2-.7.3-1.5.3-2.2 0-.5-.2-1-.3-1.4-.1-.2-.2-.5-.5-.7v-.1h.2c.6.2 1.2.3 1.8.2.6-.1 1.2-.2 1.8-.5.4-.2.8-.3 1.1-.6.4-.2.7-.4 1-.6.4-.2.8-.4 1.3-.6.5-.2 1-.3 1.4-.4.5-.1 1 0 1.4.1.2 0 .2.1.4.1.2.1.2.1.4-.2.4-.6 1.2-.7 1.9-.5.5.2.8.5 1 .9.1.2.2.2.2.4l.1.1c.1-.1.1-.2.1-.2.2-.9.6-1.8 1.1-2.6.4-.6.8-1.1 1.4-1.6 1-.9 2.1-1.4 3.4-1.7.7-.2 1.5-.2 2.2-.2h3.9c.6 0 1.3-.1 1.9-.2.6-.2 1-.3 1.5-.6.1 0 .1-.1.2 0 0 .1 0 .1-.1.2-.2.2-.3.5-.5.7-.2.3-.4.7-.5 1-.2.6-.3 1.2-.2 1.8.1.6.3 1.1.9 1.6.2.2.5.3.7.5s.5.2.7.4l.6.3c.6.3 1.1.7 1.6 1.2.3.3.6.7 1 1.1.3.4.6.9.9 1.3.3.5.6 1 .9 1.4.2.4.6.9.9 1.3.2.2.3.4.4.6.3.3.6.6 1 .9.2.2.5.3.7.6.2.2.2.2.3.5 0 0 0 .1-.1.1h-.1c-.3 0-.6-.1-.9-.2s-.6-.3-.9-.5c-.4-.2-.7-.6-1.1-1-.5-.4-.9-.9-1.3-1.4-.3-.4-.6-.7-.9-1.1s-.6-.8-1-1.2c-.5-.6-1.1-1-1.8-1.5l-.9-.6c-.3-.2-.7-.5-1-.7-.4-.3-.8-.6-1.1-1-.4-.5-.7-1-.8-1.6-.2-.6-.2-1.1.1-1.7.1-.3.2-.6.5-.9-.1 0-.2 0-.2.1-.3.2-.6.3-1 .4-.5.1-.9.2-1.4.2h-3.7c-.6 0-1.2.1-1.8.2-1 .2-1.8.6-2.6 1.3-1 .7-1.7 1.7-2.2 2.7-.3.6-.5 1.3-.6 1.9v.1c0 .1.1.1.1.1.2 0 .4-.1.6-.2.1-.1.1-.2.1-.2.1-.2.2-.4.5-.6s.4-.2.7-.3c.4-.1.7-.2 1.1-.2l1.5-.3c1.6-.4 3-1.1 4.2-2.1.2-.2.4-.3.6-.4.1 0 .1-.1.1-.2 0 .1.1.1 0 .2 0 0 0 .1-.1.1-.8 1.1-1.8 1.9-3.1 2.5-.6.2-1.3.4-2 .5-.4.1-.8.1-1.2.2-.3.1-.7.2-1 .4-.1.1-.2.2-.3.2-.2.2-.5.3-.8.3-.1 0-.2.1-.2.2-.1.1-.1.2-.2.3-.1.4.2.6.5.8h.2c.1 0 .2-.1.2-.1.6-.2 1-.2 1.6-.2.5 0 1 .1 1.4.2.4.1.8.2 1.2.4l2.4.9.4.2c.1 0 .1.1.2.1.3 0 .6.2 1 .2s.6.2.9.3c.1 0 .2.1.2.1h.1c.1-.1.2-.1.4-.2l.9-.3c.3-.2.6-.2.9-.4.6-.2 1.1-.5 1.8-.6.6-.1 1.2-.2 1.8-.1.2 0 .6.1.8.2 0 0 0 .1-.1.1s-.2.1-.3.1c-1.7.2-3.3.6-4.7 1.4-.1 0-.1.1-.2.1v.1c.1 0 .2.1.3.1.5.2 1 .2 1.4.4 2 .6 3.9 1 5.9 1.4.7.2 1.4.3 2.1.5.1 0 .2.1.3.1h-.4c-.8-.1-1.6-.2-2.5-.3-1-.2-2.1-.3-3.1-.6-2.2-.5-4.3-1-6.4-1.8-.1 0-.2-.1-.3-.1 0 .1.1.1.1.2.4.4.8.9 1 1.4l.9 1.5c.2.4.4.7.6 1.1.4.7.9 1.4 1.5 2h-.1c-.1-.1-.2-.1-.2-.2-.4-.3-.7-.7-1.1-1.1-.4-.4-.7-.9-1-1.4-.3-.4-.6-.8-.9-1.3-.4-.6-.8-1.1-1.2-1.6-.3-.4-.7-.8-1.1-1.2-.1-.1-.2-.2-.3-.2-.9-.3-1.8-.7-2.6-1-.6-.2-1.4-.3-2-.3-.6 0-1.2.1-1.8.2-.2.1-.3.2-.4.2 0 .1-.1.1 0 .2 0 .1.1.2.1.2.2.2.3.5.5.8.4.7.9 1.4 1.3 2.2.1.1.1.2.2.2.1.1.2.2.2.3.1.3.2.6.4.8 0 .1.1.1.2.2.2.1.3.2.5.3.6.4 1.1.7 1.8 1 .6.3 1.1.6 1.7 1 .6.3 1.1.7 1.7 1.1.8.6 1.5 1.2 2.1 1.9.6.8 1.2 1.7 1.5 2.6.1.2.2.5.2.7v.2s-.1 0-.1-.1c-.1-.2-.2-.2-.2-.4-.5-1.2-1.2-2.2-2.2-3.2-.8-.8-1.7-1.4-2.7-2-1-.5-2-.8-3-1.1 0 .1-.1.1 0 .1 0 .1.1.2.2.3.6 1.4 1.3 2.7 1.8 4.2.5 1.3.8 2.5 1 3.8.2.6.2 1.2.3 1.8.1.9.2 1.7.2 2.6 0 .4.1.9.2 1.3v.4s-.1 0-.1-.1c-.2-.7-.3-1.4-.5-2.2-.5-2.4-1.1-4.9-1.9-7.2-.1-.2-.1-.3-.2-.5l-.1-.1c-.1.1-.1.2-.1.2-.2.7-.2 1.4-.3 2.2-.1.6-.2 1.1-.3 1.6-.1.5-.2 1-.2 1.4.3.7.3 1.1.5 1.5-.1.1-.1.2 0 .2v-.2zm-6.8-21.6c-.1 0-.1-.1-.2-.1-.2-.2-.3-.2-.5-.3h-.1c.2.1.3.2.5.3.1.2.2.1.3.1zm13 4.7zm-.3 0c-.1 0 0 0 0 0zm-12.2-32c0 .1 0 .2.1.2 1.4 1.8 2.9 3.6 4.3 5.4l2.4 3c.1.1.2.2.2.3v.1h-.1c-.2-.1-.2-.2-.4-.3-1.4-1-2.6-2.2-3.7-3.4-.8-1-1.6-1.9-2.2-3-.2-.4-.5-.8-.7-1.1l-.6-.9c-.2-.3-.5-.6-.8-.8-.4-.4-1-.6-1.5-.8-.2-.1-.5-.2-.8-.2-.2-.1-.5-.2-.7-.2-.5-.2-1-.4-1.4-.7-.2-.2-.4-.3-.6-.6-.2-.2-.3-.3-.6-.5l-.4-.4c-.2-.2-.3-.2-.5-.4-.6-.4-1.1-.6-1.8-.6-.1 0-.2-.1-.2-.1 0-.2 0-.2-.1-.4 0-.1-.1-.2-.2-.2-.7-.4-1.4-.9-2-1.3-.3-.2-.6-.4-1-.6-.4-.2-.7-.3-1.2-.5-.3-.1-.6-.2-1-.1-.2 0-.4.1-.6.1-.3 0-.6.1-1 0 0 0-.1 0-.1-.1v-.1c0-.1.1-.1.1-.1.4-.2.9-.4 1.3-.6 1-.2 1.9-.2 2.8.2.3.1.6.2.8.4.3.2.6.3.8.6.3.2.6.4.8.6.2.2.5.3.7.5.8.5 1.6.6 2.6.5.6-.1 1-.2 1.5-.2.4-.1.9-.2 1.3-.2.6 0 1 .1 1.4.3.2.1.5.2.7.4.2.2.4.3.6.4.2.2.5.3.7.5.5.2 1 .4 1.4.5.3.1.7.1 1 .1.4 0 .8 0 1.1.1.7.1 1.4.2 2 .6.5.2 1 .5 1.4.8.4.3.8.6 1.1 1l1.4 1.4.1.1h-.1c-.1 0-.1-.1-.2-.1-.9-.7-1.8-1.2-2.9-1.6-.9-.4-1.8-.6-2.8-.9-1.4-.4-3-.8-4.4-1.1-.6-.2-1-.2-1.6-.4-.6-.2-1.2-.2-1.8-.2h-1.7c-.5 0-1 0-1.4-.1-.3 0-.6-.1-.8-.2h-.1s0 .1.1.1.1.1.2.1c.6.4 1.1.8 1.8 1.2.3.2.6.4 1 .6.5.3 1 .5 1.5.6.2.1.6.2.8.2.6.2 1.3.5 1.8.9.2.2.5.3.7.5.5.3 1 .6 1.5.8.6.2 1.4.5 2 .7l1.8.6c.3.1.7.2 1 .4 1.4.6 2.5 1.5 3.4 2.7.7 1 1.2 2.1 1.4 3.2 0 .2.1.4.1.6v.1c-.1-.1-.1-.2-.2-.3-.2-.5-.3-1-.6-1.5-.7-1.4-1.8-2.6-3.1-3.5-.6-.4-1.2-.7-1.8-1l-1.5-.6c-.5-.2-1-.3-1.5-.6-.6-.2-1.2-.5-1.7-.8.8-.1.8-.1.7-.1-.1 0-.1 0 0 0-.1 0-.1 0 0 0zm-66.2 37c.4-.3.8-.6 1.4-.6h.4v.1l-.2.2c-.5.5-1 .9-1.5 1.4l-.2.2c-.1.1-.2.2-.2.3-.2.3-.3.7-.4 1.1-.1.4-.2.8-.2 1.3-.1.6-.1 1.2-.1 1.8 0 1.6-.1 3.3-.1 4.9v.7c0 .7.2 1.4.4 2.2.2.3.2.7.4 1 .2.5.4.9.6 1.4 0 .1 0 .2.2.2 0-.1 0-.1.1-.2 0-.2 0-.4.1-.6 0-.5.1-1 .2-1.4 0-.1.1 0 .1 0 .1.6.1 1.3.1 2 0 .2-.1.6-.2.8-.1.2-.1.3 0 .5.2.6.2 1.3.2 1.9 0 .5-.2.9-.3 1.3-.1.2-.2.3-.3.5 0 0-.1 0-.1-.1v-.1c0-1.2-.2-2.3-.6-3.4-.2-.8-.5-1.5-.8-2.2-.2-.7-.5-1.4-.7-2.2-.2-.8-.3-1.7-.4-2.5-.1-1-.1-2-.1-3v-1.8c.1-.5.1-.9.2-1.4.1-.6.2-1.3.5-1.8.1-.2.2-.4.2-.6.2-.3.3-.6.4-.9.4-.8.9-1.5 1.4-2.2.4-.6.8-1 1.2-1.6.3-.5.7-1 1-1.4.2-.4.5-.7.7-1.1.6-.9 1-1.8 1.4-2.9 0-.1 0-.2-.1-.2h-.7c-.3.1-.6.2-1 .4-.2.2-.6.4-.7.6-.2.2-.4.5-.6.7-1.3 1.6-2.4 3.4-3.3 5.2-.2.2-.2.5-.3.7l-.1.1v-.1c0-.2.1-.4.1-.6.3-1.7 1-3.2 2.1-4.6 1.1-1.4 2.4-2.6 4.1-3.4.3-.2.7-.4 1.1-.6.1-.1.2-.1.2-.2.5-1 1.1-1.8 1.9-2.7l1-1c.9-.8 1.8-1.6 2.6-2.4.1-.1.2-.1.2-.2 0 .1 0 .1-.1.2-.1.2-.2.2-.4.4-.7.8-1.5 1.6-2.2 2.5-.3.3-.6.7-.9 1.1-1 1.1-1.7 2.4-2.2 3.8-.2.6-.5 1.2-.7 1.8-.1.3-.2.6-.3.8-.4 1-1 1.9-1.7 2.7-.3.4-.6.8-1 1.1-.5.6-1 1.1-1.4 1.7-.2.1-.4.2-.4.4 0-.1 0-.1 0 0zm.2.4c0-.1.1-.1.2-.1v-.1c.1 0 .1 0 .1-.1.1 0 .1 0 .1-.1.1 0 .1-.1.1-.1.1 0 .1 0 .1-.1.1 0 0-.1.1-.2h.2c0-.1 0-.1.1-.1 0-.1 0-.1.1-.2v.2c0 .1-.1.1-.1.1h-.2v.2c-.1 0-.1 0-.1.1 0 0 0 .1-.1.1s-.1 0-.1.1l-.1.1s-.1.1 0 .1c-.3 0-.3.1-.4.1.1 0 .1 0 0 0z"/><path class="st6" d="M210.6 64.7l-.2-.2c-.3-.2-.6-.5-1-.6-1-.6-2.2-.6-3.4-.2-.6.2-1.2.6-1.6 1.2-.2.2-.4.6-.6.8-.2.3-.3.6-.5 1-.2.3-.3.7-.5 1-.2.2-.3.6-.5.8-.4.7-1 1.2-1.8 1.5-.3.2-.6.2-1 .4-.3.1-.6.2-1 .3-.2.1-.6.2-.8.3-.6.3-1.1.7-1.4 1.3l-.6 1.2c-.2.6-.3 1-.4 1.6-.2.6-.2 1.2-.4 1.8-.1.4-.2.8-.4 1.2l-.3.6c-.2.4-.6.8-.9 1s-.6.5-.9.6c-.3.2-.6.4-1 .6-.2.2-.5.4-.7.6-.4.4-.6.9-.7 1.4-.1.3-.1.6 0 1s.2.7.2 1c.6 2 1.2 4.1 1.8 6.1.1.2.1.4.2.6 0-.1-.1-.1-.1-.1-.1-.2-.2-.3-.2-.4-.8-2.2-1.7-4.2-2.5-6.4-.2-.3-.2-.6-.3-1-.1-.2-.1-.4-.1-.6-.1-.8.2-1.5.8-2.1.2-.2.4-.3.6-.4.2-.2.5-.3.7-.5.2-.2.6-.3.8-.5.6-.3 1-.8 1.3-1.3l.6-1.2.6-1.8c.2-.6.4-1.4.6-2 .2-.5.3-1 .6-1.4.1-.1.1-.2.2-.3.5-.8 1.1-1.4 2-1.8.3-.2.6-.2 1-.4l.9-.3c.2-.1.6-.2.8-.4.6-.3 1-.7 1.4-1.3.2-.3.3-.6.5-.9.2-.3.3-.7.4-1 .2-.4.3-.7.5-1 .3-.6.8-1.1 1.4-1.6.6-.4 1.2-.6 1.9-.7.6-.1 1.4 0 2 .2.9.3 1.6.9 2.2 1.6-.2.6-.1.6-.2.7zm38.3 32.8c.1 0 .1-.1.2-.1.4-.4.9-.7 1.4-1 .5-.2.9-.3 1.4-.4 1-.2 2.1-.2 3.1-.2 3.4 0 6.6.9 9.4 2.6 1.5.9 2.9 2 4.1 3.2.4.4.8.8 1.1 1.3.3.4.6.8 1 1.2.3.5.6 1 .7 1.6 0 .2.1.3.2.5.1-.1 0-.2 0-.2v-.8c.1-1.3.4-2.4 1-3.5.2-.4.5-.7.8-1.1l.7-.7c.2-.2.5-.5.6-.7.5-.6.8-1.1 1-1.8.1-.4.2-.7.3-1.1.1-.2.1-.3.2-.6.3-.8.9-1.5 1.7-2.1.5-.3 1-.6 1.5-.6h.2v.1c0 .1-.1.1-.1.1-.2.1-.3.2-.5.2-.7.3-1.3.8-1.7 1.4-.4.6-.6 1.2-.8 1.9-.1.6-.1 1 0 1.6 0 .1 0 .2.1.2 0 .1 0 .1-.1.2l-.1.1c-1.2.6-2.2 1.4-3 2.5-.9 1.2-1.4 2.5-1.7 3.8-.1.5-.2 1-.2 1.5v.3s-.1 0-.1-.1c-.1-.1-.2-.2-.2-.3-1-1.4-2.2-2.9-3.4-4.2-1.4-1.4-3-2.7-4.9-3.8-1.1-.6-2.2-1.2-3.5-1.6-1-.3-2.1-.6-3.1-.7-.9-.1-1.8-.1-2.6 0-1.2.1-2.3.4-3.4.8-.4.2-.7.3-1 .5-.1.1-.2.1-.2.1h-.1v-.1c-.1.1 0 0 0 0zm-25.5-45.1l.3-.3c.6-.4 1.3-.7 1.9-1 .6-.2 1.3-.4 1.9-.5.7-.1 1.4-.2 2.1-.2.6-.1 1.3-.1 1.9-.2.9-.1 1.8-.2 2.6-.4.3-.1.7-.2 1-.2l.6-.3c.4-.3.8-.6 1.2-.8.5-.3 1-.6 1.5-.7.6-.2 1-.3 1.6-.3.6 0 1.3.1 1.9.3.3.2.7.4.9.7h-.1s-.1 0-.1-.1c-.7-.5-1.4-.6-2.3-.5-.5.1-1 .2-1.4.4-.9.3-1.7.8-2.4 1.3-.6.4-1.3.9-1.8 1.4-.7.6-1.4 1.3-2 1.9-.6.6-1.3 1.4-1.9 2l-1.9 1.9-.6.6h-.1l.2-.2c.8-.8 1.5-1.7 2.2-2.6.6-.8 1.3-1.6 1.9-2.3.6-.8 1.4-1.5 2.2-2.2h-.1c-.1.1-.2.1-.2.2-.6.5-1.4.7-2.2.9-.6.1-1.1.2-1.8.2h-2.9c-.7 0-1.4.1-2.1.2-.6.2-1.2.3-1.8.6 0 .2-.1.2-.2.2zm5.5-8.5c-.1 0-.2-.1-.3 0-.3.2-.6.2-1 .4-.2.1-.2.2-.3.2-.7.5-1.3 1-1.8 1.6-.5.6-.8 1.1-1.2 1.8-.5.8-.8 1.6-1.2 2.5-.2.4-.3.7-.5 1.1h-.1c0-.2 0-.5.1-.7.2-1.7.9-3.1 1.9-4.5.1-.1.2-.2.2-.3v-.1s-.1 0-.1.1c-.1.1-.2.1-.3.2-3.3 2.1-6 4.6-8.1 7.8-.1.2-.2.2-.2.4 0 0-.1 0-.1.1 0-.1 0-.2.1-.2.3-.9.8-1.7 1.3-2.4.8-1.3 1.8-2.4 3-3.4 1.3-1.1 2.8-2.1 4.4-2.9 1.3-.8 2.7-1.4 4.2-1.7.2-.1.2-.2.4-.2.2-.1.5-.2.7-.3.9-.4 1.8-.7 2.7-1 1.3-.3 2.6-.5 3.9-.4.5 0 1 0 1.5.1h.1c-.1.1-.2.1-.2.1-.2 0-.6 0-.8.1-.6 0-1.4.1-2 .2h-.2c-.2.1-.6.2-.8.2-1.1.1-2.2.4-3.4.8-.8.2-1.5.6-2.2.9-.1 0-.2.1-.2.2v-.1c.1-.5.3-.6.5-.6zm19.3 64.5c0 .2-.1.2-.2.3-.6.8-1.1 1.6-1.6 2.5-1 1.8-1.8 3.6-2.2 5.6l-.6 2.7c-.1.6-.2 1.2-.2 1.8-.1 1-.1 1.9-.1 2.9 0 .4 0 .7.1 1.1v.5l-.1.1c0-.1-.1-.2-.1-.2-.2-.5-.3-1-.4-1.4-.1-.2-.2-.5-.2-.7-.1-.8-.2-1.6-.2-2.4 0-2.6.6-5.2 1.8-7.7.6-1.3 1.4-2.4 2.4-3.4.5-.5.9-1 1.4-1.4.1-.2.1-.3.2-.3zm-40.2-26c-.2-.4-.2-.7-.3-1.1-.1-.6-.2-1.2-.2-1.8-.1-.6-.1-1.2 0-1.8 0-.4.1-.7.1-1.1.1-.9.2-1.8.5-2.6v-.1l-.1.1c-.1.1-.2.2-.2.3-.1.2-.2.2-.3.4-.4.3-.8.7-1.1 1-1.3 1.4-2.2 2.9-3 4.6-.4 1-.7 2.1-1 3.2v.1s0 .1-.1.1-.1 0-.1-.1c-.1-.2-.2-.3-.2-.5-.2-.5-.2-.9-.1-1.4.1-.5.2-1 .5-1.4.2-.3.4-.6.6-1 .2-.3.5-.6.7-.9 1.7-2.1 3.4-4.2 5.1-6.2l.2-.2c0-.1.1-.1.2-.1s.2 0 .2.1v.2c-.1.2-.1.5-.2.7 0 .1-.1.2-.1.2s0 .1.1.1h.3c.6 0 1 .1 1.5.4.6.3 1 .7 1.3 1.3.1.1.1.2 0 .2 0 0-.1 0-.1-.1l-.2-.2c-.6-.4-1.1-.6-1.8-.6-.5 0-.9.1-1.3.3-.2.1-.2.2-.3.3-.1.3-.2.6-.2 1-.2.6-.2 1.4-.3 2.1-.1.8-.1 1.6-.1 2.3 0 .6 0 1 .1 1.6-.1.3-.1.5-.1.6zm-3.6 24.9c0 1-.2 1.8-.5 2.6-.2.6-.6 1.1-1 1.6-.2.2-.3.3-.5.4 0-.1.1-.1.1-.2.5-.7.8-1.5.9-2.3.1-.6.2-1.2.2-1.8-.1-1.1-.3-2.2-.9-3.3-.9-1.8-2.2-3.2-3.8-4.2-.4-.2-.9-.6-1.4-.8-.4-.2-.8-.5-1.2-.7-.1-.1-.2-.1-.2-.2v-.2c.1 0 .1-.1.2-.1h.4c.2.1.4.2.6.2.3.2.6.3.9.5.8.5 1.7 1 2.4 1.5 1.5 1.1 2.6 2.6 3.4 4.2.2 1.1.4 2 .4 2.8z"/><path class="st6" d="M215.5 74.3c-.1.2-.1.2-.2.3-1.3 1.5-2.9 2.9-4.7 3.8-.1.1-.2.1-.2.2l-.1.1v.1c.1.4.2.7.2 1.1.1.5.1.9.2 1.4 0 .4 0 .7.1 1.1 0 .2-.1.6-.1.8-.1.6-.2 1-.4 1.6-.2.4-.3.7-.6 1l-.2.2h-.1c0-.2-.1-.3-.1-.5-.1-.5-.1-.9-.1-1.4v-4.5c0-.2 0-.6.1-.8.1-.4.3-.7.7-1 .2-.1.2-.2.4-.2.2-.1.3-.1.4-.2 1.7-.6 3.1-1.5 4.3-2.7l.2-.2c.1-.1.2-.1.2-.2zm60.6-11.5c0-.1 0-.1 0 0-.2-.1-.2-.2-.2-.2-.9-1.2-1.4-2.4-1.8-3.8-.2-.6-.2-1.2-.2-1.8 0-.4-.1-.8-.2-1.2s-.3-.8-.6-1.1l-.5-.5c-.2-.2-.4-.3-.6-.6-.2-.2-.4-.4-.5-.6-.2-.2-.2-.5-.3-.8 0-.3 0-.6.2-.8l.1-.1h.1c0 .1.1.2.1.3.1.3.2.6.6.9.2.2.3.2.6.3.2.1.3.2.5.2.2.1.3.2.6.3.5.3.8.8.8 1.4v.6c-.1.6 0 1.3 0 2 .1.6.2 1.4.3 2 .2 1.1.6 2.2 1.1 3.2-.1 0-.1.1-.1.3zm-66.9 8.6c.1-.1.1-.2.1-.2.2-.5.2-1 .4-1.4 0-.1 0-.1.1-.2 0-.1 0-.2-.1-.3-.2-.2-.3-.5-.5-.7-.1-.1-.1-.2-.2-.2.1-.4.2-.7.5-1 .1-.1.2-.2.2-.3h-.1c-.2.1-.2.2-.4.2-.6.3-1 .6-1.5 1-.1.1-.1.1-.2.1v-.1c.4-.5.9-1 1.4-1.4.2-.2.3-.2.5-.4.1-.1.2-.2.4-.2.3-.2.7-.2 1.1-.2 1.1-.6 2.2-.8 3.4-.8l-.1.1c-.2 0-.2.1-.4.1-.3.1-.6.2-.9.2-.7.2-1.4.7-1.9 1.3-.1.1-.2.2-.2.3-.2.6-.4 1.1-.6 1.7-.1.2-.1.4-.1.6v.3c0 .1-.1.1-.1 0-.1-.1-.1-.1-.2 0s-.1.2-.2.4c-.2.3-.2.6-.4 1 .2-.1.2 0 0 .1zM280 93.3s-.1 0 0 0c-.2-.1-.2-.2-.3-.3-.2-.4-.4-.9-.5-1.4-.2-1.4.2-2.6 1-3.8.6-.8 1.5-1.4 2.5-1.9.8-.4 1.7-.7 2.6-1 .2-.1.6-.2.8-.2h.2s.1 0 .1.1c.1 0 .1.1 0 .2s-.2.1-.2.1c-.4.2-.8.2-1.1.4l-.9.3c-1.4.6-2.5 1.4-3.4 2.6-.6.7-.9 1.5-1 2.4-.1.7-.1 1.5.2 2.2v.3zm-64.7 3.6c-.4.1-.9.1-1.3.2h-.2c-.2-.1-.2-.2-.3-.2-1.2-1-2.5-1.8-3.8-2.5-.8-.4-1.6-.6-2.4-.9-.1 0-.2-.1-.2-.1h1.1c1.4.2 2.6.6 3.8 1.2.4.2.7.5 1.1.7l.9.6c.4.4.8.7 1.3 1zM256 55.6c.2.1.2.2.4.2.5.2 1 .5 1.4.8.6.3 1.1.6 1.7.9.6.3 1.1.6 1.7 1 .3.2.7.6 1 .9 1 1 1.6 2.1 1.8 3.4.1.5.2 1 .2 1.5 0 .3-.1.6-.1 1h-.1v-.2c0-.9-.2-1.7-.6-2.5-.4-.9-1-1.6-1.6-2.3-.5-.6-1-1-1.6-1.4-.6-.5-1.4-1-2-1.4-.7-.5-1.4-1-2.1-1.4-.1-.1-.2-.1-.2-.2l.1-.3zm-58.8 30c0-.1 0-.1 0 0 .1-.2.2-.2.2-.2.6-.2 1.3-.5 2-.6.8-.2 1.7-.2 2.5-.2.9 0 1.8.2 2.7.3 1.1.2 2.3.5 3.4.8.1 0 .2.1.2.1 0 .1-.1 0-.2 0-.4-.1-.8-.1-1.2-.2-.6-.1-1.1-.2-1.8-.2-.4-.1-.9-.1-1.3-.1s-.8-.1-1.2-.1c-.9 0-1.8-.1-2.6-.1-.6 0-1.3.1-1.8.2-.3.1-.6.2-.9.2.2 0 .1 0 0 .1zM227.3 44c-.2.1-.3.2-.5.2-.6.2-1 .2-1.6.4-1.4.2-2.8.5-4.2.7-1.2.2-2.3.4-3.5.6-.9.2-1.7.3-2.6.5-.4.1-.8.2-1.3.1-.2 0-.4 0-.6-.1l-.6-.3V46s0-.1.1-.1h1.4c.7 0 1.4-.1 2.2-.2 1.4-.2 2.7-.3 4.1-.6 1.2-.2 2.4-.4 3.7-.6 1-.2 2.1-.3 3.1-.6-.1.1.1.1.3.1zm-10.1 15.7s0 .1 0 0c-.2.2-.2.2-.4.3-.2.2-.6.4-.8.6-.7.6-1.4 1.1-2 1.8-.6.6-1 1.2-1.6 1.8l-.5.5h-.1v-.2c.1-.3.2-.7.4-1 .2-.3.4-.6.6-1 .7-.9 1.6-1.6 2.6-2.1.5-.2 1-.5 1.5-.7h.3zm35.2-7.8c.1.1.2.2.2.3.4.8 1 1.5 1.6 2.2.2.2.5.4.7.6-.1 0-.1.1-.2 0-.2-.1-.4-.2-.6-.4-.2-.2-.4-.2-.6-.4h-.1v.2c.4 1 .8 2 1.1 3 .3.8.6 1.5 1 2.2.4.8 1 1.6 1.6 2.3.1.1.1.1.1.2V62c0-.1-.1-.1-.1-.1-.6-.5-1-1-1.4-1.6-.5-.7-.9-1.5-1.2-2.4l-.9-2.4c-.2-.6-.4-1-.6-1.6-.1-.2-.1-.2-.2-.3l-.2-.2c0-.1-.1-.2-.1-.2-.1-.4-.2-.8-.4-1.1.3-.1.3-.1.3-.2z"/><path class="st6" d="M216 71.2c0 .3-.1.6-.2.9 0 0-.1 0-.1-.1v-.4c-.2-1-1-1.9-2.2-2.1-.6-.1-1.1-.1-1.7.1-.3.1-.7.2-1 .4-.2.1-.5.2-.7.3h-.1l.2-.2c.3-.2.6-.3.9-.4.7-.2 1.4-.4 2.1-.5h1c.8.2 1.4.6 1.6 1.3.2.3.2.5.2.7zm4.5-6c-.3.2-.6.2-1 .2-.8.1-1.5.1-2.3 0-.5-.1-1-.1-1.5-.1h-.2c.1-.1.2 0 .3 0h1.6c.8.1 1.6.1 2.4 0 .2 0 .3 0 .5-.1h.2zm34.8-10.1c-.2.1-.2 0-.3-.1h.2c0 .1.1.1.1.1zm-3.2 38.3c.1 0 .1-.1.2-.1.1-.1.1-.1.2 0-.2 0-.3 0-.4.1zm-44.1-11zm7.6-8.1v-.2c0-.1.1-.1.1-.2 0 .2-.1.3-.1.4zM256 55.6c-.1.1-.2.1-.2 0-.1 0-.1-.1-.1-.1h.1c0 .1.1.1.2.1zM227.3 44c.1-.1.1-.1.2-.1-.1.1-.2.1-.2.1zm1.1.3c0-.1-.1-.1 0 0-.1 0-.1 0 0 0zm-11.2 15.3zm34.2-9.2v.2c.1 0 .1-.1 0-.2.1 0 .1 0 0 0zm-42.1 21c0 .1 0 .1 0 0-.1 0 0 0 0 0zm46.4-16.1h-.2.2zm20.4 7.5l.1.2c0-.2-.1-.2-.1-.2zm-83.9 29.1c0 .1 0 0 0 0zm5-6.3zm82.8 7.8c0-.1.1-.1 0 0 .1 0 .1 0 0 0zm-70.4 12c-.1 0 0 0 0 0zm-.6 8.8s0 .1 0 0c0 .1 0 .1 0 0 .1 0 0 0 0 0zm3.9 12.5zm-6.8-57c-.1 0-.1 0 0 0 0 .1 0 0 0 0zm-.2.2c-.1 0-.1 0 0 0 0 .1.1 0 0 0zm11.3 3.5c0 .1 0 .1 0 0zm-1.4.5z"/><path class="st6" d="M215.6 74c.1 0 .1 0 .2-.1 0 .1-.1.1-.2.1zm-.1.3c0-.1.1-.1 0 0 .1 0 .1.1 0 0zm56-.3zm-48.2-21.5zm-15.9-2.9v.1zm44 .8c-.1 0-.1 0-.2-.1.1.1.2.1.2.1zm.1.3c0-.1 0-.1 0 0zm.9 1.2c-.1 0-.1 0 0 0zm-29.1.6c0-.1 0-.1.1-.2 0 .1-.1.2-.1.2zm31.6 2.4c0 .1.1.1 0 .2v-.2zm.4.2c0 .1 0 .1 0 0 0 .1 0 .1 0 0zm.1.3v-.2.2zm.3.1c-.1 0-.1-.1 0-.2v.2zm-27.6 2.1zm0 0zm24.2 28.2c-.1 0-.1 0 0 0 0 0-.1 0 0 0-.1 0 0 0 0 0zm-24.2-28.1c0 .1 0 0 0 0zm-.1.2v-.2.2zm-8.9 28.7zm8.7-28.6c.1 0 .1-.1.2-.1l-.2.1c0-.1 0 0 0 0zm47.8 29.8s.1.1 0 0c.1 0 .1 0 0 0zm.1.2c0-.1 0-.1-.1-.2.1.1.1.1.1.2zm0 0c.1 0 .1 0 0 0zm-47.9-30c.1 0 .1 0 0 0zm-10.3 1.6zm-.3.1c0-.1 0-.1 0 0 0-.1 0-.1 0 0zm8.8.2zm26.5 33.2s0 .1 0 0c-.1.1-.1.1 0 0zm4.9-31.1c.1.1 0 .1 0 0zm.1.2c0-.1 0-.1 0 0zm-5.4 31.1s0 .1 0 0c0 .1 0 0 0 0zm24.1-30.4zm-65.6 1.8c.1 0 .1 0 .2.1-.1 0-.1 0-.2-.1zm56.5 33.8zm-56.3-33.7zm-4.8 4.9c-.1 0-.1.1-.2.1.2.1.2 0 .2-.1zm19.8-4.5zm-18.2 3.1c0 .1 0 .1 0 0 0 .1 0 0 0 0zm40.8 40.1s0-.1 0 0c0-.1 0-.1 0 0-.1-.1-.1-.1 0 0zm-.2.1c0-.1.1-.1 0 0 .1-.1.1-.1 0 0zm-40.6-40.1zm-.1.1zm-.1 0c-.1 0-.2 0-.2.1.1 0 .2 0 .2-.1.1 0 0 0 0 0zm26.3 50.6zm6.4.1h-.2.2zm0 0zm.1.3c0-.1 0-.1 0 0-.1-.1-.1-.1 0 0-.1 0-.1 0 0 0zm-.1 0c.1 0 .1 0 0 0 .1 0 0 0 0 0s.1 0 0 0c.1 0 0 0 0 0zm-32.8-50.9s0 .1 0 0c0 .1 0 0 0 0zm-1.1 1s.1 0 0 0c.1 0 .1 0 0 0zm12.2 52.9c.1 0 .2-.1.2 0h-.2zm0 0zm-12.2-52.9c0 .1 0 .1 0 0z"/><path class="st5" d="M234 82.3c-.5-.6-1-.9-1.7-1-.2-.1-.6-.1-.8-.1s-.6-.1-.8-.1c-.1 0-.2 0-.2-.1-.1 0-.2-.1-.2-.1-.2-.2-.6-.4-.8-.6-.1-.1-.2-.2-.3-.2l-.2-.2c0-.1 0-.1.1-.1.2-.2.3-.3.6-.5s.5-.2.8-.2.7.1 1 .2c.2 0 .3.1.5.1.4.1.8.2 1.2.2.1 0 .2.1.3.1.1.1.2.1.3.2.2.1.3.2.5.3.5.3.9.7 1.2 1.2.2.2.3.5.5.8.1.1.1.2.2.2 0 .1 0 .2-.1.2-.3 1-.4 1.9-.3 3 .1.6.2 1 .4 1.5 0 .1.1.2.2.3 0 .1 0 .2-.1.2-.3.2-.6.3-.9.6h-.3c-1.4 0-2.7.2-4 .8-.1 0-.2.1-.2.1s-.2 0-.2-.1-.1-.2-.1-.2c-.1-.2-.2-.5-.3-.7-.5-1-1-1.9-1.8-2.7-.1-.1-.2-.2-.2-.4-.2-.2-.3-.6-.4-.8-.2-.4-.3-.7-.4-1.1v-.2c0-.2 0-.3.1-.5.2-.3.2-.6.4-1s.2-.6.4-.9l.1-.1h.5c.2.2.3.3.6.4.2.2.4.2.6.4.3.2.6.5.7.8.1.1.2.2.2.3.1.2.2.5.2.8.1.4.1.7.1 1.1s.1.8.1 1.2l.3 1.2c.2.3.4.6.7.9 0 0 .1.1.1 0-.2-.2-.3-.5-.4-.7-.1-.3-.2-.6-.2-1-.1-.3-.1-.6-.1-1 0-.5-.1-1-.2-1.4h.1c.1.1.1.2.2.2.2.2.3.6.5.8.2.2.3.5.5.7.4.6 1 1 1.5 1.4.1 0 .1.1.2.1l.2.2c-.1 0-.1-.1-.2-.1h-.1v-.1c-.1-.1-.2-.1-.2-.2-.6-.6-1.2-1.1-1.6-1.8-.2-.3-.4-.7-.6-1-.2-.4-.4-.8-.6-1.1-.1-.2-.2-.4-.4-.6v-.1c.5.2 1 .2 1.4.2.2 0 .3.1.4.1.4.1.7.2 1 .5-.2-.3-.1-.3 0-.3zM219.9 76h.2c.2 0 .3.1.5.1.3.1.6.1.9 0 .4-.1.9-.1 1.3-.2s.8-.1 1.2-.1c.6 0 1.2.2 1.8.4.4.2.7.4 1 .7.5.5.9 1 1.1 1.6 0 .1.1.2.1.2s0 .1-.1.1h-.3c-.2-.3-.6-.5-.9-.5-.2 0-.5-.1-.6-.1-1.1 0-2.2-.3-3.1-.9-.1-.1-.2-.2-.4-.2.6.6 1.2 1 2 1.1.3.1.6.1 1 .1h.8c.2 0 .4.1.6.2.2.1.4.2.6.2.2 0 .2.2.2.4 0 .1-.1.2-.1.2-.1.1-.2.1-.2.1h-.2c-.4-.1-.8 0-1.2.1-.2.1-.5.2-.7.3l-.6.3-.6.3c-.3.2-.6.3-1 .5-.3.2-.6.3-.9.4-.3 0-.6-.2-1-.2-.2-.1-.3-.1-.5-.2-.6-.2-1.3-.2-1.9 0-.1 0-.1 0-.2.1 0 0-.1 0-.1.1 0 0 0 .1.1.1.4 0 .7 0 1.1.1.6.1 1.1.2 1.6.4l.1.1c-.1.1-.1.1-.2.1h-.2c-1-.2-2.1-.4-3.1-.6-.2 0-.2-.1-.4-.1l-.1-.1c0-.1.1-.1.1-.2.2-.3.5-.6.7-.9l.6-.6c.2-.2.5-.4.6-.6.2-.3.5-.6.6-1 .3-.6.3-1.2-.2-1.8.1.1 0 0 0 0z"/><path class="st5" d="M227.1 79.8h.3c.1 0 .2 0 .2.1l.1.1c0 .1 0 .2-.1.2-.2.5-.3.9-.6 1.4-.1.2-.2.4-.2.6 0 .1-.1.2-.1.2 0 .1-.1.2-.1.3s-.1.2-.2.3c-.2.2-.3.2-.5.4-.1 0-.1.1-.2 0-.1 0-.1-.1-.2-.1-.7-.4-1.4-.6-2.2-.9-.1 0-.2-.1-.2-.1-.2-.1-.2-.1-.1-.2.1-.2.2-.2.2-.4.1-.1.1-.2.2-.2.3-.5.3-.5.9-.8.3-.2.6-.3 1-.5.3-.2.6-.2 1-.3.3 0 .5-.1.8-.1zm8.3.6s-.1 0 0 0l-.2-.1c-1-.9-2.3-1.4-3.8-1.6-.7-.1-1.4-.1-2.1 0h-.1c0-.1 0-.1.1-.2.4-.3.8-.5 1.3-.6.6-.1 1.2 0 1.7.2.2.1.5.2.7.3.2.1.4.2.6.2.2.1.4.1.6.1.2 0 .4 0 .6-.1.1 0 .1 0 .2-.1 0 .1.1.1.1.1 0 .2 0 .4.1.6.1.3.2.6.2.9v.3zm-12.5 1.2l-.3.6h-.1c-.2 0-.3-.1-.6-.2.1 0 .1-.1.2-.1l.6-.3h.2zm3.8 2.3c.1-.2.1-.3.2-.4.1.2.2.5.2.6h-.1c-.1 0-.1 0-.3-.2 0 .1 0 0 0 0z"/><path class="st4" d="M258.9 63.8s0-.1 0 0c.2-.2.4-.2.6-.2 0 0 .1 0 .1.1-.3 0-.6.1-.7.1zm-27.6 19.5s-.1-.1 0 0c0-.1 0-.1 0 0 0-.1 0-.1 0 0-.1 0 0 0 0 0zm27.5-19.5s-.1 0 0 0zm3.7 6.1c0 .1 0 .1 0 0 0 .1 0 .1 0 0zM219.9 76zm23.9.3zm0 0c-.1.1-.1 0 0 0zm-2.8.8s-.1 0 0 0c0-.1 0 0 0 0zm-2.3 1.2zm4.6-31.9zm-2.6 33.1s0-.1 0 0zm-5.3.9s.1 0 0 0c.1 0 0 0 0 0zm.7.8zm.1 0c-.1 0-.1 0 0 0-.1 0 0 0 0 0zm-13.3.4s0-.1 0 0c.1 0 .1 0 0 0zm-8.5.4c-.1 0-.1 0 0 0-.1-.1-.1-.1 0 0 0 0-.1 0 0 0zm58.9-.4zm-.3 0s-.1 0 0 0zm2.7-10.2c-.1 0-.1 0 0 0zm-15-21.9zm0 0c0 .1 0 .1 0 0zm-65.1 37h-.2.2zm.2-.3zm0 .1c0-.1.1-.1 0-.2v.2zm0 0c-.1 0-.1.1 0 0-.1.2-.1.1 0 0zm-.4.2v-.2c0 .2.1.2 0 .2zm-.8.1zm.7 0c.1 0 .1 0 .2-.1-.1 0-.2.1-.2.1zm0 0c0 .1 0 .1-.1.2 0-.1 0-.2.1-.2zm-.1.2c0-.1 0-.1 0 0 0-.1 0 0 0 0zm-.2.1zm-.2.1c.1 0 .1-.1.2-.1-.1 0-.2 0-.2.1zm0 0c.1 0 0 0 0 0zm.4-.2c0 .1-.1.1 0 0-.1.1-.1 0 0 0zm39.6-36.5zm-5.9-6.4z"/><path class="st6" d="M234.5 86.5c-.2 0-.2 0-.2-.2h.1c0 .2 0 .2.1.2zm-.5-4.2zm.5 4.2zm1.9-5.3s.1.1 0 0c0 .1 0 .1 0 0zm46.6 33.3c0-2.3-.9-4.3-2.6-6s-3.8-2.5-6.3-2.5H273c-.2 0-.5.2-.5.5v25c0 .2.2.5.5.5h1.1c.2 0 .5-.2.5-.5v-8.6c2.1-.1 4-.9 5.8-2.5 1.7-1.5 2.6-3.5 2.6-5.9zm-8.4 6.5v-13c1.6.1 3 .7 4.3 2 1.4 1.3 2 2.8 2 4.6s-.6 3.3-2 4.6c-1.2 1.1-2.6 1.7-4.3 1.8zm18.9-15.3c-.1-.2-.2-.2-.4-.2s-.3.1-.4.2l-12.6 25.6c-.1.2-.1.3 0 .5s.2.2.4.2h1c.2 0 .3-.1.4-.2l4.6-9.3h13l4.6 9.3c.1.2.2.2.4.2h1.2c.2 0 .3-.1.4-.2.1-.2.1-.3 0-.5l-12.6-25.6zm5 14.8h-11.1l5.5-11.2 5.6 11.2zm24-14.4h-1.1c-.2 0-.5.2-.5.5v17.9c0 1.8-.6 3.2-1.7 4.4-1.1 1.1-2.5 1.7-4.2 1.7-1.8 0-3.1-.6-4.2-1.8-1.1-1.2-1.7-2.6-1.7-4.4v-17.8c0-.2-.2-.5-.5-.5h-1.1c-.2 0-.5.2-.5.5v18c0 2.2.8 4.2 2.3 5.7 1.5 1.4 3.4 2.2 5.6 2.2h.3c2.2 0 4-.8 5.5-2.3s2.3-3.4 2.3-5.8v-17.8c-.1-.4-.2-.5-.5-.5zm14 24h-7.4v-23.6c0-.2-.2-.5-.5-.5h-1.1c-.2 0-.5.2-.5.5v25c0 .2.2.5.5.5h9c.2 0 .5-.2.5-.5v-1c0-.2-.3-.4-.5-.4zm11.7-24.5c-3.8 0-7 1.4-9.7 3.9-2.6 2.6-4 5.8-4 9.4s1.4 6.8 4 9.4c2.6 2.7 5.8 4.1 9.4 4.1h.5c3.7 0 6.8-1.4 9.4-4s3.9-5.8 3.9-9.4c0-3.6-1.4-6.8-4-9.4-2.6-2.7-5.8-4-9.5-4zm8.1 21.5c-2.2 2.2-5 3.4-8.2 3.4-3.2 0-5.9-1.1-8.2-3.4s-3.4-5-3.4-8.1c0-3.1 1.1-5.8 3.4-8.1 2.2-2.2 5-3.4 8.2-3.4 3.2 0 5.9 1.1 8.2 3.4s3.4 5 3.4 8.1-1.1 5.9-3.4 8.1zm38-21h-.9c-.2 0-.4.1-.5.3l-9.8 22-4.2-9.8 5.2-11.8c.1-.2.1-.3 0-.5s-.2-.2-.4-.2h-1c-.2 0-.4.1-.5.3l-4.4 9.9-4.2-9.9c-.1-.2-.2-.3-.5-.3h-1.2c-.2 0-.3.1-.4.2-.1.2-.1.3-.1.5l5.1 11.9-4.2 9.6-9.6-21.9c-.1-.2-.2-.3-.5-.3H361c-.2 0-.3.1-.4.2s-.1.3 0 .5l11.1 25.4c.1.2.2.3.5.3.2 0 .4-.1.5-.3l4.9-11.2 4.9 11.2c.1.2.2.3.5.3.2 0 .4-.1.5-.3l11.2-25.4c.1-.2.1-.3 0-.5s-.2-.2-.4-.2zm22.9 0h-1c-.2 0-.5.2-.5.5v20.9L398 105.8c-.1-.1-.2-.2-.4-.2h-.2c-.2.1-.3.2-.3.5v25.4c0 .2.2.5.5.5h1c.2 0 .5-.2.5-.5v-21l17.8 21.6c.1.1.2.2.4.2h.2c.2-.1.3-.2.3-.5v-25.3c-.1-.3-.4-.4-.6-.4zm6.3 0h-1.1c-.2 0-.5.2-.5.5v25c0 .2.2.5.5.5h1.1c.2 0 .5-.2.5-.5v-25c0-.4-.2-.5-.5-.5zm29.5 25.2l-12.6-25.6c-.1-.2-.2-.2-.4-.2s-.3.1-.4.2L427 131.3c-.1.2-.1.3 0 .5s.2.2.4.2h1c.2 0 .3-.1.4-.2l4.6-9.3h13l4.6 9.3c.1.2.2.2.4.2h1.2c.2 0 .3-.1.4-.2.1-.1.1-.3 0-.5zm-7.6-10.8h-11.1l5.5-11.2 5.6 11.2zm-204.5 2c.1 1.3.2 3.1.3 5.3.1 1.9.4 8.6.2 18.5-.1 5.9-.3 13.4-.9 21.9 1.5 0 3-.1 4.6-.1-.1-2.4-.1-5.6-.2-9.5-.1-3.1-.2-8.3-.5-13.8-.2-5-.6-11.8-1.4-19.9-.6-.8-1.3-1.6-2.1-2.4z"/><path class="st7" d="M236.4 123.8c-11.5 2.5-19.8 12.5-19.8 23.6 0 12.7 10.6 24 24 24 13.3 0 24-10.7 24-24 0-10.6-6.8-19.4-16.2-22.7-.2.4-.2.7-.4 1 0 .1 0 .1-.1.2 8.6 2.6 14.8 10.6 14.8 19.9 0 11.4-9.3 20.8-20.8 20.8-11.4 0-20.8-9.3-20.8-20.8 0-2.9.6-5.3 1-6.2 2.6-8.1 9.6-11.9 11.6-12.9.9-.9 1.8-1.8 2.7-2.9z"/><path class="st4" d="M224.9 119.6zm17.2-2.6zm21.6-16.6z"/><path class="st6" d="M273.8 96.3c.1.1.1.1 0 0 0 .1 0 .1 0 0 0 .1 0 .1 0 0zm-53.2 26.6zm43.1-22.5s-.1 0 0 0c0 .1 0 0 0 0zm-26.5 16.5zm4.9.1zm0 0zm.1.3s0-.1 0 0c0-.1 0 0 0 0zm0 0zm-17.3 2.3c.1 0 .1-.1.2 0h-.2zm0 0c.1 0 .1 0 0 0zm239.1-7.8l2.3 3.5h-1.7l-2.1-3.4H461v3.4h-1.5v-8.4h3c2.1 0 3.3.8 3.3 2.6 0 1.2-.7 2-1.8 2.3zm-1.5-3.6h-1.4v2.6h1.4c1.2 0 1.7-.4 1.7-1.3.1-.9-.5-1.3-1.7-1.3z"/><path class="st6" d="M462.5 104.8c3.5 0 6.4 2.9 6.4 6.4 0 3.5-2.9 6.4-6.4 6.4s-6.4-2.9-6.4-6.4c0-3.5 2.9-6.4 6.4-6.4m0-1c-4.1 0-7.4 3.3-7.4 7.4s3.3 7.4 7.4 7.4 7.4-3.3 7.4-7.4c0-4.1-3.3-7.4-7.4-7.4z"/><path class="st7" d="M248.4 124.8c-.2.4-.2.8-.4 1.1.1 0 .1 0 .2.1.2-.4.2-.8.4-1.1-.1-.1-.1-.1-.2-.1z"/><path d="M385 136.1c-.7 0-1 .3-1 1 0 .6.4 1 1 1 .7 0 1-.3 1-1 0-.6-.4-1-1-1zm-100.7 6.4c-1.4-1.4-3-2.1-5-2.1-1.2 0-2.4.3-3.5 1-.9.5-1.5 1.1-2.1 1.8V141c0-.2-.1-.2-.2-.2h-.9c-.2 0-.2.1-.2.2l.1 15.8v2.4c0 .2.1.2.2.2h.9c.2 0 .2-.1.2-.2v-7.6c.6.8 1.3 1.4 2.2 1.9 1.1.6 2.3 1 3.5 1 1.9 0 3.7-.7 5-2.1s2.1-3 2.1-5c-.2-1.8-.9-3.5-2.3-4.9zm-1 9c-1.1 1.1-2.4 1.7-4 1.7-1.5 0-2.9-.6-4-1.7s-1.7-2.5-1.7-4 .6-2.9 1.7-4.1c1.1-1.1 2.5-1.8 4-1.8s2.9.6 4 1.7 1.7 2.5 1.7 4c0 1.7-.5 3.1-1.7 4.2zm14.4-11c-1 0-1.8.2-2.6.6-.5.3-.9.6-1.3 1V141c0-.2-.1-.2-.2-.2h-.9c-.2 0-.2.1-.2.2v13c0 .2.1.2.2.2h.9c.2 0 .2-.1.2-.2v-8.6c0-1 .4-1.8 1.1-2.5.7-.7 1.5-1 2.5-1s1.8.4 2.6 1.2c.1.1.2.1.2.1l.2-.2v-1.1c0-.1 0-.2-.1-.2-.7-.9-1.7-1.2-2.6-1.2zm15 0c-1.9 0-3.6.7-5 2.1-1.4 1.4-2.1 3-2.1 4.9s.7 3.5 2.1 5c1.4 1.4 3 2.2 4.9 2.2h.2c1.9 0 3.6-.7 4.9-2.1 1.4-1.4 2-3 2-5 0-1.9-.7-3.5-2.1-4.9-1.3-1.5-3-2.2-4.9-2.2zm4 11c-1.1 1.1-2.4 1.7-4 1.7-1.5 0-2.9-.6-4-1.7s-1.7-2.5-1.7-4 .6-2.9 1.7-4.1c1.1-1.1 2.5-1.8 4-1.8s2.9.6 4 1.7 1.7 2.5 1.7 4.1c-.1 1.6-.7 3-1.7 4.1zM331 148h-3.8v-7.3c0-1.1.4-2 1.1-2.7.7-.7 1.6-1 2.6-1 .2 0 .2-.1.2-.2v-.8c0-.2-.1-.2-.2-.2-1.4 0-2.6.5-3.7 1.4-1 1-1.5 2.2-1.5 3.7v13.3c0 .2.1.2.2.2h.9c.2 0 .2-.1.2-.2v-4.7h3.8c.2 0 .2-.1.2-.2v-.8c.3-.4.1-.5 0-.5zm14-7.5c-2 0-3.8.7-5.1 2.1-1.4 1.4-2.1 3-2.1 4.9s.7 3.5 2.1 5c1.4 1.4 3 2.2 5 2.2h.2c2 0 3.7-.8 5.1-2.3.1-.1.1-.1.1-.2v-1.4c0-.1-.1-.2-.2-.2s-.2 0-.2.1c-.6.9-1.3 1.5-2.2 2-.9.5-1.8.7-3 .7-1 0-2.1-.4-3.2-1.3l8.8-8.7c.1-.1.1-.2 0-.3-1.4-1.8-3.2-2.6-5.3-2.6zm-4.4 10.5c-.9-1-1.3-2.3-1.3-3.7 0-1.4.6-2.8 1.7-3.9s2.4-1.7 3.9-1.7c1.4 0 2.6.5 3.7 1.4l-8 7.9zm21.2-4.5c-.6-.4-1.2-.7-1.8-1.1-.6-.3-1.1-.7-1.5-1-.4-.3-.6-.7-.6-1.1 0-.4.2-.7.5-1s.7-.4 1.2-.4c.9 0 1.5.4 2.2 1.3.1.1.2.2.2.1.1 0 .2-.2.2-.2v-1.2c0-.1 0-.2-.1-.2-.6-.7-1.4-1.1-2.4-1.1-.9 0-1.7.2-2.2.8-.6.5-.9 1.1-.9 1.9 0 .7.2 1.4.7 1.9.5.6 1 1 1.6 1.4.6.3 1.2.7 1.8 1 .6.3 1.1.8 1.5 1.3.4.5.6 1 .6 1.8 0 .7-.3 1.3-1 1.8-.6.6-1.4.9-2.3.9-1.5 0-2.6-.7-3.3-2.2l-.2-.2-.2.2v1.5c.3.6.9 1 1.5 1.4.7.3 1.4.6 2.2.6 1.3 0 2.3-.4 3.3-1.3.9-.9 1.4-1.8 1.4-3 0-.8-.2-1.5-.7-2.2-.5-.8-1.1-1.3-1.7-1.7zm13.6 0c-.6-.4-1.2-.7-1.8-1.1-.6-.3-1.1-.7-1.5-1-.4-.3-.6-.7-.6-1.1 0-.4.2-.7.5-1 .3-.3.7-.4 1.2-.4.9 0 1.5.4 2.2 1.3.1.1.2.2.2.1.1 0 .2-.2.2-.2v-1.2c0-.1 0-.2-.1-.2-.6-.7-1.4-1.1-2.4-1.1-.9 0-1.7.2-2.2.8-.6.5-.9 1.1-.9 1.9 0 .7.2 1.4.7 1.9.5.6 1 1 1.6 1.4.6.3 1.2.7 1.8 1 .6.3 1.1.8 1.5 1.3s.6 1 .6 1.8c0 .7-.3 1.3-1 1.8-.6.6-1.4.9-2.3.9-1.5 0-2.6-.7-3.3-2.2l-.2-.2c-.1 0-.2.2-.2.2v1.5c.3.6.9 1 1.5 1.4.7.3 1.4.6 2.2.6 1.3 0 2.3-.4 3.3-1.3.9-.9 1.4-1.8 1.4-3 0-.8-.2-1.5-.7-2.2-.5-.8-1-1.3-1.7-1.7zm10-5.7h-.9c-.2 0-.2.1-.2.2v12.9c0 .2.1.2.2.2h.9c.2 0 .2-.1.2-.2V141c0-.1-.1-.2-.2-.2zm13.7-.3c-1.9 0-3.6.7-5 2.1-1.4 1.4-2.1 3-2.1 4.9s.7 3.5 2.1 5c1.4 1.4 3 2.2 4.9 2.2h.2c1.9 0 3.6-.7 4.9-2.1 1.4-1.4 2-3 2-5 0-1.9-.7-3.5-2.1-4.9-1.2-1.5-2.9-2.2-4.9-2.2zm4.1 11c-1.1 1.1-2.4 1.7-4 1.7-1.5 0-2.9-.6-4-1.7s-1.7-2.5-1.7-4 .6-2.9 1.7-4.1c1.1-1.1 2.5-1.8 4-1.8s2.9.6 4 1.7 1.7 2.5 1.7 4.1-.7 3-1.7 4.1zm15.3-11c-2.1 0-3.7.8-4.7 2.3V141c0-.2-.1-.2-.2-.2h-.9c-.2 0-.2.1-.2.2v13c0 .2.1.2.2.2h.9c.2 0 .2-.1.2-.2v-7.5c0-1.3.5-2.3 1.4-3.3 1-1 2.1-1.4 3.4-1.4 1.3 0 2.3.5 3.2 1.4.9 1 1.4 2 1.4 3.3v7.5c0 .2.1.2.2.2h.9c.2 0 .2-.1.2-.2v-7.5c0-1.7-.6-3-1.7-4.2-1.3-1.3-2.6-1.8-4.3-1.8zm25.8.3h-.9c-.2 0-.2.1-.2.2v2.2c-.5-.7-1.1-1.4-2-1.8-1.1-.6-2.4-1-3.7-1-1.9 0-3.6.7-5 2.1-1.4 1.4-2.1 3-2.1 5 0 1.9.7 3.6 2.1 5 1.4 1.4 3 2.1 5 2.1 1.3 0 2.5-.3 3.6-1 .9-.5 1.5-1.1 2.1-1.9v2.3c0 .2.1.2.2.2h.9c.2 0 .2-.1.2-.2v-12.8c.1-.3 0-.4-.2-.4zm-2.8 10.7c-1.1 1.1-2.4 1.7-4 1.7-1.5 0-2.9-.6-4-1.7s-1.7-2.5-1.7-4 .6-2.9 1.7-4.1c1.1-1.2 2.5-1.8 4-1.8s2.9.6 4 1.7 1.7 2.5 1.7 4.1c0 1.7-.5 3-1.7 4.1zm15 1.7c-1 0-1.9-.3-2.6-1-.7-.7-1.1-1.6-1.1-2.7v-13.6c0-.2-.1-.2-.2-.2h-.9c-.2 0-.2.1-.2.2v13.5c0 1.5.5 2.7 1.5 3.7s2.2 1.4 3.7 1.4c.2 0 .2-.1.2-.2v-.8c-.2-.2-.2-.3-.4-.3z" fill="#724930"/><path d="M1440 24c-16.8.9-34.6 1.9-51.3 3.3-26.7 2.2-53.5 4.7-80.1 8-35.2 4.3-70.3 9.1-105.3 14.4-103 15.6-204.8 35.9-306.8 55.5-68.9 13.2-137.8 26.4-207.3 37.3-43.9 6.9-88.1 13-132.3 18.7-37.9 4.9-76.3 8.1-114.7 10.6-46.2 2.9-92.6 4.1-139 3-35.1-.8-69.9-3-104.7-6.7C130.6 160.9 64.4 147.7.2 128c0 42.9-.1 85.9-.1 128.7 489.5.7 951 1.6 1439.9 2.3V24z" fill="#5b9600"/><path class="st1" d="M-240 664h1930.2v444.5H-240z"/><path d="M1395 85.4c-27 1.5-53.8 3.2-80.6 5.5-35.3 3-70.7 6.3-105.9 10-103.5 10.9-205.8 24.9-308.3 38.5-69.3 9.1-138.5 18.3-208.4 25.8-44.3 4.7-88.6 8.9-133 12.9-38.2 3.4-76.7 5.6-115.3 7.3-46.6 2-93.1 2.8-139.8 2-35.3-.6-70.3-2.1-105.2-4.7-68-5.1-134.2-14.2-198.5-27.8V470c488.9.7 951.6-.7 1439.9 0V83.3c-14.9.6-29.9 1.3-44.9 2.1z" fill="#74bd00"/></svg>