<svg version="1.1" id="Слой_1" xmlns="http://www.w3.org/2000/svg" x="0" y="0" viewBox="0 0 4081.9 663.3" xml:space="preserve"><path d="M4081 661c0-227.4.1-414.4.1-648.2C2684.5 26.5 1401.8 20.3.9 34.1c0 136 1.4 116.8 1.4 246.5 187-52.3 374.7-71.1 568.9-88.1 99.3-8.7 198.6-13.3 297.9-13.9 131.6-.7 262.5 4.7 392.7 15.2 108 8.7 215.6 19.6 321.9 35.3 123.6 18.2 246.9 37.4 369.6 58.9 193.9 33.9 385.5 74.3 577 114.8 283.5 59.9 566.4 121.8 853.8 170.9 97.6 16.6 195.8 31.8 294.2 45.6 74.5 10.5 149.5 18.9 224.7 26.4 71.3 7.1 107.2 8.9 178.8 14.5" fill="#5b9600"/><path d="M4081.1 567.5c-.5-140.5.5-416.2 0-567.5H.2c0 85 0 199.8-.2 280.6 185.5-31.8 375.1-51.5 568.6-60.3 98.9-4.5 198-6.2 297.1-5.4 131.4 1.1 262.1 6.2 392.3 14.6 108 7 215.6 15.4 322.1 26.8 123.8 13.3 247.3 27.3 370.2 42.7 194.3 24.4 386.5 53 578.6 81.7C2813.3 423.3 3097 467 3385 502.4c97.8 12 196.1 23 294.7 33.2 74.6 7.7 149.7 14.1 224.9 19.9 71.4 5.5 102.7 7.5 174.3 12" fill="#74bd00"/><path fill="none" d="M1082.9 230.3H3003v276.9H1082.9z"/></svg>