<svg width="1440" height="447" fill="none" xmlns="http://www.w3.org/2000/svg"><path d="M1430.3 1.785l4.04-.297c-.1 78.358 0 157.654 0 236.012-489.229-.7-948.966-1.646-1438.195-2.346 0-42.877.101-85.854.101-128.731 63.498 19.69 128.933 32.883 196.202 40.079 34.348 3.698 68.798 5.897 103.451 6.696 45.866 1.1 91.731-.1 137.392-2.998 37.916-2.499 75.831-5.697 113.338-10.595 43.725-5.697 87.348-11.793 130.767-18.69 68.696-10.894 136.781-24.087 204.865-37.28 100.802-19.589 201.399-39.878 303.219-55.47a3615.549 3615.549 0 01104.06-14.392c26.3-3.298 52.8-5.797 79.2-7.996 25.07-2.099 50.35-3.298 75.42-4.797 6.32-.5-19.97 1.104-13.86.805z" fill="#5B9600"/><path d="M1442.77 59.38c-.1-.2.41.1 0 0 .21.4-5.07-.202-5.07.198 0 54.476 5.07 332.946 5.07 387.422-492.021-.7-956.951.7-1448.77 0V131.675c63.847 13.694 129.642 22.89 197.281 27.987 34.537 2.599 69.176 4.099 104.021 4.698 46.117.8 92.133 0 138.148-1.999 38.124-1.699 76.248-3.898 113.961-7.297 43.863-3.998 87.727-8.196 131.487-12.894 69.074-7.497 137.533-16.693 205.992-25.789 101.356-13.594 202.51-27.588 304.79-38.483 34.74-3.699 69.68-6.997 104.63-9.996 26.44-2.299 52.99-3.998 79.63-5.498 25.21-1.399 50.53-2.299 75.84-3.298 6.15-.4-13.26.474-7.01.274z" fill="#74BD00"/></svg>