<svg width="13" height="13" fill="none" xmlns="http://www.w3.org/2000/svg"><path d="M12.035.998c-.16.012-.318.05-.467.112h-.002c-.142.056-.82.341-1.85.773l-3.69 1.555C3.375 4.553.772 5.65.772 5.65l.031-.012s-.18.059-.367.187c-.116.074-.215.17-.293.284a.83.83 0 00-.138.555c.045.36.279.577.447.697.17.12.332.177.332.177h.004l2.441.823c.11.351.744 2.437.897 2.918.09.287.177.466.287.603.053.07.115.129.19.176a.6.6 0 00.122.053l-.025-.007c.008.002.014.008.02.01.02.006.033.008.058.012.387.117.697-.123.697-.123l.018-.014 1.441-1.313L9.35 12.53l.055.024c.504.22 1.014.098 1.283-.12.272-.218.377-.498.377-.498l.018-.044 1.867-9.565c.053-.236.066-.457.008-.671a.903.903 0 00-.924-.659zm-.05 1.025c-.003.032.003.028-.01.089v.005l-1.85 9.465c-.008.013-.022.043-.059.072-.039.031-.07.051-.232-.014L6.879 9.375l-1.785 1.627.375-2.395 4.828-4.5c.199-.185.132-.224.132-.224.014-.227-.3-.066-.3-.066L4.04 7.588l-.002-.01-2.918-.982v-.002l-.008-.002a.136.136 0 00.015-.006l.016-.008.016-.005L6.414 4.36l3.69-1.555c1.027-.432 1.786-.748 1.83-.765.04-.016.02-.017.05-.017z" fill="#575756"/></svg>