<svg width="1440" height="234" fill="none" xmlns="http://www.w3.org/2000/svg"><path d="M1439 233.4c.4-.2 1-.3 1.1-.5.2-.5.1-1.1.1-1.7-.1-78.4-.1-153.3-.1-231.7-480 .7-960-.7-1440 0v127.4C62.4 107.2 126.6 94 192.6 86.8c33.7-3.7 67.5-5.9 101.5-6.7 45-1.1 90 .1 134.8 3 37.2 2.5 74.4 5.7 111.2 10.6 42.9 5.7 85.7 11.8 128.3 18.7 67.4 10.9 134.2 24.1 201 37.3 98.9 19.6 197.6 39.9 297.5 55.5 33.9 5.3 68 10.1 102.1 14.4 25.8 3.3 51.8 5.8 77.7 8 24.6 2.1 49.4 3.3 74 4.8 6.2.5 12.3.7 18.3 1z" fill="#5B9600"/><path d="M1437.7 187.5c.4-.1 1-.2 1.1-.4.2-.4.1-.8.1-1.2 0-54.5-.1-108.9-.1-163.4L.4 24.6v90.5c62.3-13.7 125.1-23.9 191.1-29C225.2 83.5 259 82 293 81.4c45-.8 89.9 0 134.8 2 37.2 1.7 74.4 3.9 111.2 7.3 42.8 4 85.6 8.2 128.3 12.9 67.4 7.5 134.2 16.7 201 25.8 98.9 13.6 197.6 27.6 297.4 38.5 33.9 3.7 68 7 102.1 10 25.8 2.3 51.7 4 77.7 5.5 24.6 1.4 49.3 2.3 74 3.3 6 .4 12.1.6 18.2.8z" fill="#74BD00"/></svg>