<svg width="16" height="17" fill="none" xmlns="http://www.w3.org/2000/svg"><path fill-rule="evenodd" clip-rule="evenodd" d="M13.336 2.929A7.421 7.421 0 0010.91 1.22 7.126 7.126 0 008.044.625C3.921.625.564 4.149.562 8.48c0 1.384.345 2.735.999 3.927L.5 16.477l3.966-1.093a7.204 7.204 0 003.575.956h.003c4.123 0 7.48-3.524 7.481-7.855a8.153 8.153 0 00-.565-3.008 7.846 7.846 0 00-1.624-2.548zM8.044 15.014h-.002a5.982 5.982 0 01-3.165-.91l-.227-.142-2.353.648.627-2.409-.147-.247a6.76 6.76 0 01-.951-3.474c.001-3.6 2.79-6.528 6.22-6.528a5.923 5.923 0 012.381.494c.755.33 1.44.812 2.016 1.42a6.523 6.523 0 011.35 2.118c.312.793.471 1.643.469 2.501-.002 3.6-2.791 6.53-6.218 6.53zm3.411-4.89c-.188-.099-1.106-.573-1.277-.639-.171-.065-.296-.098-.42.098a11.64 11.64 0 01-.593.77c-.11.13-.218.146-.405.048-.187-.098-.79-.305-1.503-.973-.556-.521-.931-1.163-1.04-1.36-.11-.197-.012-.303.082-.401.084-.087.187-.23.28-.344.094-.114.124-.196.187-.327.062-.131.032-.246-.016-.344-.047-.099-.42-1.065-.577-1.458-.15-.38-.305-.33-.42-.335a7.651 7.651 0 00-.357-.007.662.662 0 00-.274.068.692.692 0 00-.225.177c-.172.197-.655.671-.655 1.637s.67 1.9.764 2.031c.093.131 1.318 2.113 3.193 2.964.447.202.795.323 1.066.414.447.15.855.127 1.178.077.359-.056 1.105-.474 1.261-.932.156-.459.156-.852.11-.934-.047-.082-.173-.132-.359-.23z" fill="#575756"/></svg>