<svg width="21" height="23" fill="none" xmlns="http://www.w3.org/2000/svg"><path d="M10.493 12.393h.152c1.396-.024 2.526-.514 3.36-1.453 1.834-2.067 1.53-5.61 1.496-5.948-.12-2.54-1.32-3.754-2.311-4.32C12.45.248 11.589.019 10.626 0h-.081c-.529 0-1.568.086-2.564.653-1 .566-2.22 1.78-2.34 4.339-.033.338-.338 3.881 1.497 5.948.829.939 1.958 1.43 3.355 1.453zm-3.58-7.282c0-.015.006-.029.006-.039.157-3.415 2.582-3.781 3.621-3.781h.057c1.287.028 3.474.552 3.622 3.781 0 .015 0 .03.005.039.005.033.338 3.272-1.177 4.977-.6.676-1.401 1.01-2.454 1.02h-.048c-1.048-.01-1.854-.344-2.45-1.02C6.586 8.392 6.91 5.139 6.915 5.11z" fill="#fff"/><path d="M20.362 18.27v-.014c0-.038-.005-.076-.005-.119-.029-.943-.09-3.148-2.159-3.853l-.047-.014c-2.15-.548-3.937-1.786-3.956-1.8a.643.643 0 10-.738 1.052c.08.057 1.977 1.377 4.35 1.986 1.11.395 1.235 1.581 1.268 2.667 0 .043 0 .081.005.12.005.428-.024 1.09-.1 1.471-.772.438-3.798 1.953-8.402 1.953-4.584 0-7.629-1.52-8.406-1.958-.076-.38-.11-1.043-.1-1.471 0-.038.005-.077.005-.12.033-1.085.157-2.271 1.268-2.667 2.373-.61 4.27-1.933 4.35-1.986a.642.642 0 10-.738-1.052c-.02.014-1.797 1.252-3.955 1.8a.6.6 0 00-.048.014c-2.068.71-2.13 2.915-2.159 3.854 0 .042 0 .08-.005.119v.014c-.004.248-.01 1.52.243 2.157a.611.611 0 00.248.3C1.424 20.82 4.851 23 10.583 23c5.733 0 9.16-2.186 9.302-2.276.11-.072.2-.177.248-.3.238-.634.234-1.906.229-2.153z" fill="#fff"/></svg>