<svg width="21" height="25" fill="none" xmlns="http://www.w3.org/2000/svg"><path d="M20.777 21.61L19.345 5.49a.69.69 0 00-.685-.628h-2.947A4.944 4.944 0 0010.772 0c-2.7 0-4.9 2.173-4.941 4.862H2.884a.686.686 0 00-.685.629L.767 21.61c0 .02-.005.04-.005.06 0 1.838 1.683 3.33 3.754 3.33h12.512c2.072 0 3.754-1.493 3.754-3.328 0-.02 0-.041-.005-.062zM10.772 1.38a3.563 3.563 0 013.56 3.482h-7.12a3.563 3.563 0 013.56-3.482zm6.256 22.24H4.516c-1.299 0-2.353-.86-2.373-1.918l1.37-15.455h2.313v2.097c0 .383.307.69.69.69.384 0 .69-.307.69-.69V6.247h7.126v2.097c0 .383.307.69.69.69a.688.688 0 00.691-.69V6.247h2.312l1.376 15.456c-.02 1.058-1.079 1.917-2.373 1.917z" fill="#fff"/></svg>