<svg width="14" height="15" fill="none" xmlns="http://www.w3.org/2000/svg"><path d="M12.925 2.159H9.803v-.51A1.65 1.65 0 008.154 0H5.187c-.91 0-1.65.74-1.65 1.65v.509H.417A.415.415 0 000 2.575c0 .231.185.416.416.416h.753v9.782A2.23 2.23 0 003.395 15h6.55c1.228 0 2.227-1 2.227-2.227V2.991h.752a.415.415 0 00.417-.416.415.415 0 00-.416-.416zm-8.555-.51c0-.45.367-.816.817-.816h2.967c.45 0 .817.367.817.817v.509H4.37v-.51zm6.97 11.124c0 .768-.627 1.394-1.394 1.394h-6.55A1.396 1.396 0 012 12.773V2.991h9.341v9.782h-.003z" fill="#5B9600"/><path d="M6.67 12.675a.415.415 0 00.417-.417V4.9a.415.415 0 00-.417-.416.415.415 0 00-.416.416v7.355c0 .232.185.42.416.42zm-2.717-.46a.415.415 0 00.417-.416V5.357a.415.415 0 00-.417-.417.415.415 0 00-.416.417v6.442c0 .231.188.416.416.416zm5.434 0a.415.415 0 00.416-.416V5.357a.415.415 0 00-.416-.417.415.415 0 00-.416.417v6.442c0 .231.185.416.416.416z" fill="#5B9600"/></svg>