<svg width="65" height="40" fill="none" xmlns="http://www.w3.org/2000/svg"><path d="M4.112 1.5h57.094c1.001 0 1.763.788 1.763 1.7v33.6c0 .912-.762 1.7-1.763 1.7H4.112c-1 0-1.762-.788-1.762-1.7V3.2c0-.912.761-1.7 1.762-1.7z" stroke="#C4C4C4" stroke-width="3"/><path d="M7.312 13.464L6.18 10.767l-1.126 2.697h2.26zM32.3 12.438c-.227.135-.496.14-.818.14H29.47v-1.503h2.038c.289 0 .59.013.785.122.215.099.348.309.348.598 0 .296-.127.534-.341.643z" fill="#C4C4C4"/><path d="M53.549 8.303v1.114l-.644-1.114h-4.72v1.114l-.59-1.114h-6.376c-1.067 0-2.005.146-2.762.55v-.55h-4.4v.55c-.482-.417-1.139-.55-1.869-.55H16.116l-1.078 2.437-1.108-2.437H8.868v1.114l-.556-1.114H3.995L1.99 12.79v3.588l2.965-6.765h2.46l2.815 6.405V9.612h2.702l2.167 4.59 1.99-4.59h2.756v6.765h-1.697l-.006-5.298-2.4 5.298h-1.455l-2.406-5.303v5.303H8.514l-.636-1.509H4.43l-.643 1.509H1.99v1.36h2.83l.638-1.502h1.428l.636 1.503h5.565v-1.149l.497 1.154h2.89l.496-1.171v1.166H30.8l-.006-2.467h.268c.187.007.242.024.242.326v2.14h7.154v-.573c.576.301 1.474.574 2.655.574h3.01l.643-1.503h1.428l.63 1.503h5.8V16.31l.877 1.428h4.648V8.303h-4.6zm-26.95 2.718h-3.874v1.22h3.782v1.386h-3.782v1.351h3.874v1.399h-5.53V9.612h5.53v1.409zm7.446 2.786c.234.336.274.637.274 1.241v1.329h-1.67l-.006-.853c0-.407.04-.993-.261-1.318-.242-.238-.61-.29-1.207-.29h-1.777v2.46h-1.655V9.613h3.808c.846 0 1.469.022 2.004.324.524.302.838.744.838 1.498a1.906 1.906 0 01-1.167 1.803c.363.135.672.373.82.57zm1.314 2.57V9.612h1.688v6.765H35.36zm21.298 0h-2.346L51.173 11.3v5.077h-3.372l-.644-1.509h-3.439l-.624 1.509h-1.938c-.805 0-1.823-.174-2.4-.748-.582-.575-.885-1.353-.885-2.583 0-1.003.181-1.92.893-2.645.535-.54 1.373-.789 2.514-.789h1.603v1.45h-1.57c-.604 0-.945.087-1.273.4-.282.285-.476.824-.476 1.533 0 .725.147 1.247.455 1.589.255.267.718.348 1.154.348h.743l2.333-5.32h2.481l2.803 6.399V9.612h2.52l2.91 4.712V9.612h1.696v6.765z" fill="#C4C4C4"/><path d="M46.595 13.464l-1.145-2.697-1.14 2.697h2.285zM23.355 26.66h-4.07v-1.346h3.634v-1.38h-3.634v-1.23h4.15l1.812 1.971-1.892 1.986zm6.559.775l-2.541-2.756 2.541-2.668v5.424zm3.758-3.008h-2.139v-1.723h2.159c.597 0 1.012.238 1.012.83 0 .584-.395.893-1.032.893zm8.148-.343c-.22.128-.495.14-.817.14h-2.01v-1.52h2.038c.294 0 .59.006.79.122.214.11.343.319.343.608 0 .29-.129.523-.343.65z" fill="#C4C4C4"/><path d="M63.331 27.178c-.402.574-1.186.866-2.247.866h-3.197v-1.451h3.184c.316 0 .538-.041.67-.168a.59.59 0 00.196-.441.55.55 0 00-.202-.448c-.12-.103-.295-.15-.584-.15-1.554-.051-3.493.047-3.493-2.094 0-.982.638-2.015 2.375-2.015h3.298v-1.346h-3.064c-.925 0-1.596.216-2.072.553v-.553h-4.532c-.724 0-1.575.176-1.977.553v-.553h-8.093v.553c-.644-.454-1.73-.553-2.232-.553h-5.338v.553c-.51-.482-1.643-.553-2.333-.553h-5.974l-1.367 1.445-1.28-1.445h-8.924v9.442H24.9l1.408-1.468 1.327 1.468 5.397.004v-2.22h.531c.716.01 1.56-.018 2.306-.332v2.548h4.451v-2.461h.215c.274 0 .301.011.301.279v2.181H54.36c.859 0 1.756-.214 2.253-.604v.604h4.29c.892 0 1.764-.122 2.428-.435v-1.759zm-29.697-1.364h-2.066v2.27H28.35l-2.038-2.24-2.119 2.24h-6.557v-6.767h6.658l2.037 2.218 2.106-2.218h5.29c1.313 0 2.79.355 2.79 2.23 0 1.88-1.436 2.267-2.883 2.267zm9.933-.307c.234.33.268.639.275 1.235v1.342h-1.663v-.847c0-.407.04-1.01-.267-1.325-.242-.242-.61-.3-1.215-.3h-1.769v2.471h-1.663v-6.766h3.822c.838 0 1.448.036 1.992.32.522.308.85.73.85 1.502 0 1.08-.737 1.63-1.173 1.8.369.133.67.371.811.568zm6.839-2.79h-3.877v1.23h3.782v1.38H46.53v1.347l3.877.005v1.405H44.88v-6.767h5.526v1.4zm4.254 5.366h-3.224v-1.45h3.211c.314 0 .537-.041.676-.168a.593.593 0 00.196-.441.574.574 0 00-.202-.448c-.127-.103-.301-.15-.59-.15-1.548-.051-3.487.047-3.487-2.094 0-.982.631-2.015 2.367-2.015h3.319v1.44h-3.037c-.3 0-.497.012-.663.123-.182.11-.249.272-.249.486a.52.52 0 00.362.505c.175.059.363.076.645.076l.89.023c.9.022 1.516.174 1.892.545.322.325.495.737.495 1.433 0 1.456-.932 2.135-2.601 2.135z" fill="#C4C4C4"/><path d="M63.335 22.704h-3.017c-.301 0-.502.01-.67.122-.175.11-.242.272-.242.487 0 .255.148.429.362.504.175.06.362.077.638.077l.897.023c.906.022 1.51.174 1.879.545.067.051.107.109.153.167v-1.925z" fill="#C4C4C4"/></svg>