<svg width="26" height="22" fill="none" xmlns="http://www.w3.org/2000/svg"><path d="M23.749 2.042a6.874 6.874 0 00-4.9-2.026 6.891 6.891 0 00-4.904 2.032l-.684.684-.696-.695A6.909 6.909 0 007.655 0a6.884 6.884 0 00-4.893 2.027A6.857 6.857 0 00.734 6.928c0 1.852.728 3.587 2.039 4.897l9.968 9.963a.722.722 0 00.504.212c.18 0 .366-.069.504-.207l9.99-9.947a6.884 6.884 0 002.032-4.902 6.852 6.852 0 00-2.022-4.902zm-1.02 8.79l-9.484 9.444-9.464-9.459a5.46 5.46 0 01-1.613-3.889 5.43 5.43 0 011.608-3.883 5.458 5.458 0 013.88-1.607c1.47 0 2.855.573 3.896 1.612l1.2 1.2a.715.715 0 001.013 0l1.189-1.189a5.475 5.475 0 013.89-1.613 5.48 5.48 0 013.886 1.608 5.455 5.455 0 011.608 3.888 5.433 5.433 0 01-1.608 3.889z" fill="#fff"/></svg>