<svg width="23" height="21" fill="none" xmlns="http://www.w3.org/2000/svg"><path d="M.404 7.068a6.23 6.23 0 001.852 4.439l8.695 8.673a.875.875 0 001.233.005s0 0 0 0l8.714-8.66h0a6.237 6.237 0 001.847-4.444M.405 7.068a6.213 6.213 0 011.841-4.445A6.261 6.261 0 016.692.786c1.682 0 3.27.659 4.46 1.846l.43.43.42-.42A6.268 6.268 0 0116.457.8c1.682 0 3.26.65 4.45 1.837a6.209 6.209 0 011.838 4.444M.405 7.068s0 0 0 0h.25-.25s0 0 0 0zm22.34.013s0 0 0 0h-.25.25s0 0 0 0zM3.483 3.864h0a4.516 4.516 0 013.209-1.327c1.217 0 2.361.473 3.222 1.331l1.046 1.044a.874.874 0 001.238 0l1.037-1.034a4.531 4.531 0 013.217-1.331c1.212 0 2.353.472 3.213 1.326a4.494 4.494 0 011.33 3.208h0a4.474 4.474 0 01-1.33 3.208s0 0 0 0l-8.097 8.045-8.08-8.059a4.498 4.498 0 01-1.334-3.208c0-1.213.47-2.35 1.33-3.203z" fill="#5B9600" stroke="#5B9600" stroke-width=".5"/></svg>