<svg width="15" height="15" fill="none" xmlns="http://www.w3.org/2000/svg"><path d="M12.159 0H2.432C1.787 0 1.168.263.712.732A2.536 2.536 0 000 2.5v10c0 .663.256 1.299.712 1.768a2.399 2.399 0 001.72.732h9.727a2.4 2.4 0 001.72-.732 2.536 2.536 0 00.712-1.768v-10c0-.663-.257-1.299-.713-1.768A2.398 2.398 0 0012.158 0zm.81 12.5a.846.846 0 01-.237.59.8.8 0 01-.573.243H2.432a.8.8 0 01-.573-.244.846.846 0 01-.238-.589v-10c0-.221.086-.433.238-.59a.8.8 0 01.573-.243h9.727a.8.8 0 01.573.244.845.845 0 01.237.589v10z" fill="#5B9600"/><path d="M9.484 4.492L6.42 8.658 5.098 6.9a.819.819 0 00-.54-.315.79.79 0 00-.599.17.828.828 0 00-.306.554.857.857 0 00.165.616l1.97 2.592a.793.793 0 00.997.23.815.815 0 00.283-.239l3.705-5a.856.856 0 00-.155-1.175.8.8 0 00-1.142.159h.008z" fill="#5B9600"/></svg>