<svg width="64" height="40" fill="none" xmlns="http://www.w3.org/2000/svg"><path d="M3.413 1.5h57.174c1.063 0 1.913.856 1.913 1.897v33.206c0 1.04-.85 1.897-1.913 1.897H3.413A1.905 1.905 0 011.5 36.603V3.397c0-1.04.85-1.897 1.913-1.897z" stroke="#C4C4C4" stroke-width="3"/><path d="M13.494 13.15c-.713-.49-1.644-.735-2.792-.735H6.256c-.352 0-.546.176-.583.528L3.867 24.279a.371.371 0 00.083.305.341.341 0 00.278.14H6.34c.37 0 .574-.176.611-.529l.5-3.056a.54.54 0 01.195-.36.857.857 0 01.416-.182c.167-.027.324-.041.473-.041.148 0 .324.01.528.028.203.018.333.027.389.027 1.592 0 2.843-.449 3.75-1.347.908-.898 1.362-2.144 1.362-3.737 0-1.093-.357-1.885-1.07-2.376zm-2.292 3.405c-.093.648-.333 1.074-.722 1.278-.39.204-.945.305-1.667.305l-.917.028.472-2.973c.037-.203.157-.305.361-.305h.528c.74 0 1.278.106 1.612.32.333.212.444.662.333 1.347zm49.206-4.14h-2.055c-.205 0-.325.102-.362.306l-1.806 11.558-.028.055c0 .093.038.181.112.264a.356.356 0 00.278.125h1.833c.352 0 .546-.175.584-.527L60.77 12.83v-.027c0-.26-.12-.39-.362-.39zM35.57 16.888a.395.395 0 00-.11-.264.33.33 0 00-.25-.125h-2.14c-.205 0-.371.093-.5.278l-2.946 4.334-1.222-4.167c-.093-.296-.297-.445-.611-.445h-2.084a.327.327 0 00-.25.125.392.392 0 00-.111.264c0 .037.18.583.541 1.64l1.167 3.417c.417 1.222.634 1.871.653 1.945-1.519 2.074-2.278 3.186-2.278 3.334 0 .24.12.361.361.361h2.14c.203 0 .37-.092.5-.278l7.085-10.225c.037-.036.055-.1.055-.194zm19.922-.389H53.38c-.26 0-.417.306-.472.917-.482-.74-1.361-1.111-2.64-1.111-1.334 0-2.468.5-3.403 1.5-.936 1-1.403 2.177-1.403 3.529 0 1.093.319 1.963.958 2.611.639.65 1.496.973 2.57.973.537 0 1.084-.111 1.64-.334.555-.222.99-.518 1.305-.889 0 .019-.018.102-.055.25a1.51 1.51 0 00-.056.334c0 .296.12.444.361.444h1.918c.351 0 .555-.175.61-.528l1.14-7.252a.375.375 0 00-.083-.305.343.343 0 00-.278-.139zm-3.626 5.474a2.352 2.352 0 01-1.709.694c-.537 0-.972-.148-1.306-.444-.333-.296-.5-.704-.5-1.223 0-.685.232-1.264.695-1.736.462-.473 1.037-.709 1.722-.709.519 0 .95.153 1.292.459.343.305.514.727.514 1.264 0 .667-.236 1.232-.708 1.695zm-27.938-5.474h-2.111c-.26 0-.417.306-.473.917-.5-.74-1.38-1.111-2.64-1.111-1.333 0-2.468.5-3.403 1.5s-1.403 2.177-1.403 3.529c0 1.093.32 1.963.959 2.611.639.65 1.495.973 2.57.973.518 0 1.056-.111 1.611-.334.556-.222 1-.518 1.334-.889a1.877 1.877 0 00-.111.584c0 .296.12.444.361.444h1.917c.352 0 .556-.175.611-.528l1.14-7.252a.374.374 0 00-.084-.305.342.342 0 00-.277-.139zm-3.625 5.487c-.473.455-1.052.681-1.737.681-.537 0-.968-.148-1.292-.444-.324-.296-.486-.704-.486-1.223 0-.685.231-1.264.694-1.736.463-.473 1.037-.709 1.723-.709.518 0 .95.153 1.292.459.343.305.514.727.514 1.264 0 .685-.236 1.255-.708 1.708zm24.755-8.835c-.713-.49-1.643-.736-2.792-.736h-4.417c-.371 0-.575.176-.612.528L35.43 24.279a.371.371 0 00.084.305.341.341 0 00.277.14h2.279c.222 0 .37-.12.444-.362l.5-3.223a.54.54 0 01.195-.36.857.857 0 01.417-.182c.166-.027.324-.041.472-.041.148 0 .324.01.528.028.204.018.334.027.389.027 1.593 0 2.843-.449 3.75-1.347.908-.898 1.362-2.144 1.362-3.737 0-1.093-.357-1.885-1.07-2.376zm-2.847 4.57c-.408.278-1.02.417-1.834.417l-.89.028.473-2.973c.037-.204.157-.305.361-.305h.5c.408 0 .732.018.973.055.24.037.472.153.694.347.223.195.334.477.334.848 0 .778-.204 1.306-.611 1.584z" fill="#C4C4C4"/></svg>