<svg width="100" height="60" fill="none" xmlns="http://www.w3.org/2000/svg"><rect width="100" height="60" rx="4" fill="#fff"/><path fill-rule="evenodd" clip-rule="evenodd" d="M41.49 39.547l3.075-19.074h4.915l-3.075 19.074H41.49M64.233 20.94c-.972-.382-2.5-.8-4.404-.8-4.86 0-8.28 2.589-8.308 6.296-.031 2.741 2.44 4.27 4.304 5.181 1.915.934 2.559 1.532 2.551 2.367-.013 1.278-1.529 1.863-2.942 1.863-1.967 0-3.013-.288-4.63-1l-.632-.304-.687 4.27c1.146.531 3.27.992 5.476 1.017 5.164 0 8.52-2.558 8.559-6.516.018-2.174-1.292-3.822-4.128-5.182-1.718-.885-2.772-1.47-2.76-2.366.001-.792.89-1.641 2.816-1.641a8.621 8.621 0 013.678.733l.441.218.666-4.135m6.544 11.843c.408-1.096 1.958-5.331 1.958-5.331-.028.05.405-1.105.653-1.82l.332 1.645s.943 4.553 1.138 5.506h-4.08zm6.064-12.292h-3.798c-1.179 0-2.06.338-2.577 1.581l-7.298 17.48h5.162s.842-2.351 1.033-2.867c.563 0 5.58.01 6.295.01.147.665.599 2.858.599 2.858h4.561l-3.977-19.062zm-39.474-.003l-4.81 13.004-.516-2.644c-.896-3.045-3.687-6.346-6.808-8l4.4 16.681 5.202-.003 7.74-19.038h-5.208" fill="#26337A"/><path fill-rule="evenodd" clip-rule="evenodd" d="M28.09 20.476h-7.925l-.066.395c6.168 1.58 10.248 5.394 11.942 9.978l-1.722-8.764c-.298-1.209-1.161-1.567-2.229-1.61" fill="#EC982D"/></svg>