<svg width="65" height="40" fill="none" xmlns="http://www.w3.org/2000/svg"><path d="M4.19 1.5h57.38c1.018 0 1.78.795 1.78 1.7v33.6c0 .905-.762 1.7-1.78 1.7H4.19c-1.017 0-1.779-.795-1.779-1.7V3.2c0-.905.762-1.7 1.78-1.7z" fill="#F5F5F5" stroke="#C4C4C4" stroke-width="3"/><path d="M24.923 28.004l2.735-15.66h4.374l-2.737 15.66h-4.372zm20.174-15.323c-.866-.317-2.224-.658-3.92-.658-4.322 0-7.366 2.124-7.392 5.168-.025 2.25 2.173 3.506 3.832 4.255 1.703.768 2.275 1.257 2.267 1.943-.01 1.05-1.36 1.529-2.617 1.529-1.75 0-2.68-.237-4.117-.822l-.564-.249-.614 3.506c1.022.437 2.911.816 4.873.835 4.598 0 7.583-2.1 7.617-5.35.016-1.782-1.15-3.137-3.673-4.255-1.529-.725-2.465-1.208-2.455-1.942 0-.65.792-1.347 2.505-1.347a8.242 8.242 0 013.273.6l.392.181.593-3.394zm11.257-.338h-3.38c-1.047 0-1.83.279-2.29 1.299l-6.497 14.352h4.593s.751-1.93.921-2.354l5.602.007c.131.549.532 2.347.532 2.347h4.06l-3.541-15.652zM50.99 22.456c.362-.903 1.743-4.378 1.743-4.378-.026.042.359-.907.58-1.495l.295 1.35 1.013 4.523h-3.63zM21.21 12.343l-4.283 10.68-.456-2.171c-.797-2.502-3.281-5.213-6.058-6.57L14.33 27.98l4.627-.006 6.887-15.63H21.21" fill="#C4C4C4"/><path d="M12.933 12.343H5.88l-.056.326c5.487 1.296 9.118 4.429 10.626 8.193l-1.534-7.197c-.264-.991-1.032-1.287-1.982-1.322" fill="#C4C4C4"/></svg>