<svg width="25" height="24" fill="none" xmlns="http://www.w3.org/2000/svg"><path d="M7.973 0h9.056c1.993 0 3.804.815 5.072 2.174a7.187 7.187 0 012.083 5.071v9.6c0 1.993-.815 3.713-2.083 5.072A7.187 7.187 0 0117.03 24H7.973A7.187 7.187 0 012.9 21.917C1.543 20.558.728 18.837.728 16.845v-9.6c0-1.992.815-3.803 2.173-5.071C4.17.815 5.981 0 7.973 0z" fill="#74BD00"/><path d="M12.597 6.171c1.72 0 3.26.634 4.347 1.812a6.158 6.158 0 011.812 4.347c0 1.72-.725 3.17-1.812 4.347a6.158 6.158 0 01-4.347 1.811c-1.72 0-3.26-.724-4.347-1.811-1.178-1.177-1.812-2.626-1.812-4.347 0-1.72.634-3.26 1.812-4.347 1.087-1.178 2.626-1.812 4.347-1.812zm2.898 3.17c-.724-.724-1.811-1.177-2.898-1.177-1.177 0-2.174.453-2.989 1.177-.724.815-1.177 1.812-1.177 2.989 0 1.087.453 2.174 1.177 2.898.815.725 1.812 1.177 2.989 1.177 1.087 0 2.174-.453 2.898-1.177.725-.724 1.268-1.811 1.268-2.898 0-1.178-.543-2.174-1.268-2.989zm3.715-2.083a1.45 1.45 0 100-2.898 1.45 1.45 0 000 2.898z" fill="#fff"/></svg>