<svg width="654" height="3327" fill="none" xmlns="http://www.w3.org/2000/svg"><rect x="379.25" y="3276.25" width="274.5" height="50.5" rx="25.25" fill="#fff" stroke="#C4C4C4" stroke-width=".5"/><path d="M432.581 3316c0-16.57 13.432-30 30-30h177.484v2c0 16.57-13.432 30-30 30H432.581v-2z" fill="#5B9600"/><path d="M496.269 3307.3h-1.08v-3.99h-4.392v3.99h-1.08v-8.57h1.08v3.63h4.392v-3.63h1.08v8.57zm7.719 0l-1.032-2.65h-3.396l-1.02 2.65h-1.092l3.348-8.6h.972l3.336 8.6h-1.116zm-2.316-6.2c-.024-.07-.064-.18-.12-.35-.056-.17-.112-.34-.168-.52a9.46 9.46 0 00-.12-.42 10.827 10.827 0 01-.372 1.29l-.972 2.59h2.712l-.96-2.59zm4.604 6.2v-8.57h6.432v8.57h-1.068v-7.62h-4.284v7.62h-1.08zm8.789-8.57h1.008v4.71a37.3 37.3 0 01-.048 1.79c-.008.27-.02.47-.036.6h.048l4.716-7.1h1.2v8.57h-1.008v-4.65c0-.3.004-.62.012-.95a93.252 93.252 0 01.084-1.53h-.048l-4.728 7.13h-1.2v-8.57zm19.303 8.57h-10.104v-8.57h1.08v7.61h3.42v-7.61h1.08v7.61h3.432v-7.61h1.092v8.57zm2.354-8.57h1.008v4.71a37.3 37.3 0 01-.048 1.79c-.008.27-.02.47-.036.6h.048l4.716-7.1h1.2v8.57h-1.008v-4.65c0-.3.004-.62.012-.95a93.252 93.252 0 01.084-1.53h-.048l-4.728 7.13h-1.2v-8.57zm11.911 8.57h-1.08v-7.62h-2.676v-.95h6.42v.95h-2.664v7.62zm8.744 0h-4.788v-8.57h4.788v.95h-3.708v2.68h3.492v.93h-3.492v3.06h3.708v.95zm11.631 0h-1.08v-3.99h-4.392v3.99h-1.08v-8.57h1.08v3.63h4.392v-3.63h1.08v8.57zm7.718 0l-1.032-2.65h-3.396l-1.02 2.65h-1.092l3.348-8.6h.972l3.336 8.6h-1.116zm-2.316-6.2c-.024-.07-.064-.18-.12-.35-.056-.17-.112-.34-.168-.52a9.46 9.46 0 00-.12-.42 10.827 10.827 0 01-.372 1.29l-.972 2.59h2.712l-.96-2.59zm8.384 6.2l-2.82-7.51h-.048c.024.25.044.58.06 1.01.016.41.024.85.024 1.31v5.19h-.996v-8.57h1.596l2.64 7.02h.048l2.688-7.02h1.584v8.57h-1.068v-5.27c0-.41.008-.82.024-1.23l.06-1h-.048l-2.856 7.5h-.888z" fill="#fff"/><circle cx="408" cy="3302" r="21" fill="#5B9600"/><path d="M12 32C12 15.431 25.431 2 42 2h104v2c0 16.569-13.431 30-30 30H12v-2z" fill="#5B9600"/><path d="M57.032 23.302l-2.82-7.511h-.048c.024.247.044.584.06 1.008.016.416.024.852.024 1.308v5.195h-.996v-8.567h1.596l2.64 7.02h.048l2.688-7.02h1.584v8.567H60.74v-5.267c0-.416.008-.829.024-1.236l.06-.996h-.048l-2.856 7.5h-.888zm12.483 0l-1.032-2.651h-3.396l-1.02 2.651h-1.092l3.348-8.604h.972l3.336 8.604h-1.116zM67.199 17.1a39.63 39.63 0 01-.288-.864 7.067 7.067 0 00-.12-.42 10.908 10.908 0 01-.372 1.284l-.972 2.591h2.712l-.96-2.591zm9.44-2.364v.96h-3.756v7.607h-1.08v-8.567h4.836zm5.989 8.567l-1.032-2.651H78.2l-1.02 2.651h-1.092l3.348-8.604h.972l3.336 8.604h-1.116zM80.312 17.1a39.63 39.63 0 01-.288-.864 7.067 7.067 0 00-.12-.42 10.908 10.908 0 01-.372 1.284l-.972 2.591h2.712l-.96-2.591zm9.668-.36c0 .584-.184 1.047-.552 1.392-.368.335-.86.552-1.476.648v.047c.72.096 1.268.32 1.644.672.376.352.564.813.564 1.38 0 .753-.288 1.364-.864 1.837-.576.471-1.44.707-2.592.707-.464 0-.908-.035-1.332-.108a4.028 4.028 0 01-1.164-.36v-.983c.376.175.784.316 1.224.42a6.03 6.03 0 001.26.144c.768 0 1.348-.145 1.74-.433.4-.288.6-.695.6-1.224 0-.544-.232-.94-.696-1.188-.464-.248-1.112-.372-1.944-.372h-1.224v-.9h1.164c.848 0 1.48-.14 1.896-.42.424-.288.636-.672.636-1.152 0-.431-.16-.764-.48-.995-.32-.233-.736-.349-1.248-.349-.536 0-.984.068-1.344.204a5.72 5.72 0 00-1.032.529l-.516-.732a4.58 4.58 0 011.236-.624 4.964 4.964 0 011.668-.264c.928 0 1.632.2 2.112.6.48.4.72.907.72 1.523zm2.003-2.005h1.008v4.705a36.742 36.742 0 01-.048 1.788 7.08 7.08 0 01-.036.6h.048l4.716-7.093h1.2v8.568h-1.008v-4.655c0-.296.004-.612.012-.948a98.023 98.023 0 01.084-1.525h-.048l-4.728 7.128h-1.2v-8.567zm15.751 8.568h-1.08v-3.995h-4.392v3.995h-1.08v-8.567h1.08v3.623h4.392v-3.623h1.08v8.567zM408.59 3307.41l3.58 3.59-3.59 3.59L410 3316l5-5-5-5-1.41 1.41zm7 0l3.58 3.59-3.59 3.59L417 3316l5-5-5-5-1.41 1.41z" fill="#fff"/><path d="M406 3310h-10v-15.09l11.43 7.91c.167.12.366.18.57.18.204 0 .403-.06.57-.18l11.43-7.91v9.09h2v-10c0-.53-.211-1.04-.586-1.41A1.984 1.984 0 00420 3292h-24c-.53 0-1.039.21-1.414.59-.375.37-.586.88-.586 1.41v16c0 .53.211 1.04.586 1.41.375.38.884.59 1.414.59h10v-2zm11.8-16l-9.8 6.78-9.8-6.78h19.6z" fill="#fff"/></svg>