<svg width="23" height="16" fill="none" xmlns="http://www.w3.org/2000/svg"><path fill-rule="evenodd" clip-rule="evenodd" d="M15.399 7.77l-5.941 3.183V4.561l2.68 1.446 3.26 1.762zm7.106-4.321s-.21-1.567-.873-2.255c-.834-.91-1.77-.916-2.203-.967C16.354 0 11.737 0 11.737 0h-.013S7.108 0 4.026.227c-.427.05-1.363.057-2.203.967C1.167 1.882.95 3.449.95 3.449S.728 5.293.728 7.13v1.732c0 1.838.222 3.683.222 3.683s.217 1.566.873 2.255c.84.91 1.936.878 2.426.973 1.764.177 7.482.227 7.482.227s4.623-.006 7.698-.234c.433-.057 1.37-.057 2.203-.966.662-.689.873-2.255.873-2.255s.223-1.845.223-3.683V7.131c0-1.838-.223-3.682-.223-3.682z" fill="#74BD00"/></svg>