<svg width="274" height="30" fill="none" xmlns="http://www.w3.org/2000/svg"><path d="M2.384 2.126h41.727c.517 0 .885.403.885.839v24.55c0 .435-.369.838-.885.838H2.384c-.516 0-.884-.403-.884-.838V2.965c0-.436.368-.839.884-.839z" stroke="#fff" stroke-width="3"/><path d="M42.858 15.24c0 6.567-5.46 11.912-12.172 11.912-2.8 0-5.38-.932-7.438-2.49a12.286 12.286 0 01-7.438 2.49c-6.71 0-12.17-5.345-12.17-11.912 0-6.568 5.46-11.91 12.171-11.91 2.8 0 5.38.928 7.438 2.489a12.276 12.276 0 017.438-2.49c6.712 0 12.172 5.343 12.172 11.911zM30.668 4.38c-2.468 0-4.748.792-6.59 2.128a11.87 11.87 0 013.496 5.722h-1.128a10.822 10.822 0 00-3.216-5.042 10.811 10.811 0 00-3.213 5.042h-1.13a11.88 11.88 0 013.497-5.722 11.192 11.192 0 00-6.592-2.128c-6.12 0-11.081 4.855-11.081 10.846 0 5.99 4.961 10.846 11.081 10.846 2.47 0 4.749-.792 6.592-2.127A11.908 11.908 0 0119 18.61h1.14a10.816 10.816 0 003.09 4.654 10.81 10.81 0 003.092-4.654h1.14a11.923 11.923 0 01-3.383 5.334 11.189 11.189 0 006.59 2.127c6.12 0 11.081-4.857 11.081-10.846 0-5.99-4.961-10.846-11.081-10.846h0z" fill="#fff" stroke="#fff"/><path d="M11.31 12.623H9.536l-1.109 3.235-.046-3.235H6.736l-.892 5.227h1.07l.687-3.994.096 3.994h.78l1.46-4.018-.654 4.018h1.143l.884-5.227zm2.945 5.222h-.947l.022-.441c-.289.348-.674.515-1.197.515-.62 0-1.043-.474-1.043-1.16 0-1.037.737-1.64 2.005-1.64.13 0 .296.012.466.034a1.05 1.05 0 00.044-.277c0-.28-.198-.386-.733-.386a3.81 3.81 0 00-1.21.191c.013-.071.16-.956.16-.956.568-.164.945-.225 1.367-.225.982 0 1.502.43 1.5 1.245.002.219-.035.489-.092.844-.1.615-.312 1.934-.341 2.256zm-.802-1.874a2.267 2.267 0 00-.256-.017c-.648 0-.975.218-.975.646 0 .265.16.434.408.434.467 0 .802-.434.823-1.063zm15.768-3.465c-1.514 0-2.574 1.305-2.574 3.174 0 1.388.767 2.255 1.997 2.255.316 0 .59-.04 1.01-.154l.2-1.19c-.378.182-.689.269-.97.269-.665 0-1.066-.48-1.066-1.274 0-1.151.597-1.958 1.45-1.958.317 0 .614.08 1.022.283l.187-1.134c-.168-.064-.757-.271-1.256-.271zm4.111 5.34h-.946l.022-.442c-.29.348-.677.515-1.199.515-.62 0-1.044-.474-1.044-1.16 0-1.037.74-1.64 2.006-1.64.13 0 .296.012.467.034.035-.142.043-.201.043-.277 0-.28-.198-.386-.731-.386-.56-.008-1.02.13-1.21.191l.158-.956c.57-.164.946-.225 1.366-.225.983 0 1.503.43 1.502 1.245.002.219-.035.489-.093.844-.098.615-.312 1.934-.34 2.256h-.001zm-.803-1.875a2.252 2.252 0 00-.257-.017c-.647 0-.975.218-.975.646 0 .265.16.434.41.434.466 0 .802-.434.822-1.063zm-12.65.889a.961.961 0 01-.307.04c-.272 0-.392-.095-.392-.315.003-.135.19-1.14.322-1.948h.586l.156-1.022h-.584l.132-.642h-1.136s-.43 2.502-.494 2.898c-.073.453-.165.946-.158 1.134 0 .605.319.934.902.934.266 0 .51-.043.823-.138l.15-.941zm3.492.888a3.998 3.998 0 01-1.166.17c-1.273-.002-1.936-.652-1.936-1.896 0-1.453.844-2.522 1.99-2.522.936 0 1.535.597 1.535 1.539 0 .311-.043.614-.141 1.046H21.39c-.076.614.327.87.988.87.406 0 .772-.08 1.18-.265l-.188 1.058zm-.596-2.494c.008-.088.12-.76-.528-.76-.362 0-.622.271-.726.76h1.254zm-7.615-.316c0 .538.265.908.87 1.187.463.214.534.276.534.47 0 .263-.204.382-.657.382-.34 0-.658-.05-1.024-.166l-.158.982c.262.055.492.107 1.19.126 1.207 0 1.763-.45 1.763-1.42 0-.586-.232-.926-.806-1.185-.478-.216-.534-.263-.534-.462 0-.23.191-.347.561-.347.224 0 .531.024.82.064l.163-.986a8.074 8.074 0 00-1.006-.083c-1.279 0-1.72.652-1.716 1.438zm24.605 2.912h-1.082l.055-.396c-.315.327-.636.47-1.054.47-.831 0-1.38-.7-1.38-1.763 0-1.416.851-2.607 1.86-2.607.442 0 .78.176 1.091.58l.253-1.511h1.127l-.87 5.227zm-1.683-.974c.532 0 .907-.591.907-1.433 0-.54-.212-.833-.606-.833-.519 0-.887.59-.887 1.427 0 .557.197.839.586.839zm-3.515-3.272c-.143 1.315-.397 2.647-.595 3.964l-.052.286h1.142c.409-2.599.508-3.106 1.148-3.042.102-.534.292-.999.435-1.234-.48-.098-.747.169-1.095.671.028-.218.078-.429.067-.645h-1.05zm-10.013 0c-.143 1.315-.398 2.647-.596 3.964l-.052.286h1.142c.41-2.599.508-3.106 1.148-3.042.103-.534.294-.999.435-1.234-.477-.098-.747.169-1.096.671.028-.218.078-.429.068-.645h-1.049zm233.877 4.684v-4.003h4.004v-2.669l5.337 4.67-5.337 4.671v-2.669h-4.004zm-1.334-8.406v1.734h-16.013V9.882l8.006-4.938 8.007 4.938zm-9.341 3.069h2.669v6.672h-2.669V12.95zm-5.338 0h2.669v6.672h-2.669V12.95zm13.345 0v3.336l-2.669 2.402V12.95h2.669zm-5.205 8.006l-.8.668 2.268 2.001h-10.942v-2.669h9.474zm10.542-1.334v4.003h-4.003v2.669l-5.338-4.67 5.338-4.67v2.668h4.003z" fill="#fff"/><path d="M59.323 2.126h41.927c.529 0 .896.41.896.839v24.55c0 .429-.367.838-.896.838H59.323c-.53 0-.896-.41-.896-.838V2.965c0-.429.366-.839.896-.839z" fill="#74BD00" stroke="#fff" stroke-width="3"/><path d="M74.472 21.089L76.47 9.646h3.197l-2 11.443h-3.195zM89.213 9.892a8.435 8.435 0 00-2.864-.48c-3.158 0-5.383 1.552-5.402 3.776-.018 1.644 1.588 2.561 2.8 3.109 1.245.56 1.663.918 1.657 1.42-.008.766-.994 1.117-1.912 1.117-1.28 0-1.959-.174-3.008-.601l-.412-.182-.449 2.562c.747.32 2.127.596 3.56.61 3.36 0 5.54-1.534 5.565-3.91.012-1.301-.839-2.292-2.683-3.108-1.117-.53-1.801-.883-1.794-1.419 0-.476.58-.984 1.83-.984a6.024 6.024 0 012.392.438l.287.132.433-2.48zm8.225-.247h-2.47c-.765 0-1.338.204-1.674.95L88.548 21.08h3.356s.549-1.41.673-1.72l4.093.005c.096.401.389 1.715.389 1.715h2.966L97.438 9.645zm-3.919 7.39c.265-.66 1.274-3.2 1.274-3.2-.02.031.262-.662.424-1.091l.216.986.74 3.305h-2.654zm-21.76-7.39l-3.128 7.803-.334-1.585c-.582-1.829-2.397-3.809-4.426-4.8l2.861 10.007 3.382-.004 5.031-11.421H71.76" fill="#fff"/><path d="M65.71 9.646h-5.154l-.04.238c4.009.947 6.662 3.236 7.764 5.986l-1.121-5.258c-.194-.725-.755-.941-1.449-.966" fill="#fff"/><path d="M116.258 2.126h41.717c.515 0 .883.403.883.839v24.55c0 .436-.368.838-.883.838h-41.717c-.516 0-.884-.402-.884-.838V2.965c0-.436.368-.839.884-.839z" stroke="#fff" stroke-width="3"/><path d="M118.597 10.464l-.828-1.97-.823 1.97h1.651zm18.258-.749c-.166.099-.363.102-.598.102h-1.47V8.72h1.49c.21 0 .43.01.573.09.157.071.254.225.254.436 0 .216-.092.39-.249.47z" fill="#fff"/><path d="M152.38 6.694v.814l-.47-.814h-3.449v.814l-.432-.814h-4.658c-.779 0-1.465.106-2.018.402v-.402h-3.214v.402c-.353-.305-.833-.402-1.366-.402h-11.744l-.788 1.78-.809-1.78h-3.698v.814l-.407-.814h-3.154l-1.465 3.277v2.622l2.166-4.943h1.797l2.058 4.68V7.65h1.974l1.583 3.353 1.454-3.353h2.014v4.943h-1.24l-.005-3.871-1.754 3.87h-1.062l-1.758-3.874v3.875h-2.461l-.464-1.102h-2.519l-.469 1.102h-1.314v.994h2.067l.466-1.098h1.043l.465 1.098h4.066v-.84l.363.844h2.111l.363-.856v.852h10.106l-.005-1.802h.196c.137.005.177.017.177.238v1.564h5.227v-.42c.421.221 1.077.42 1.94.42h2.199l.47-1.098h1.044l.46 1.098h4.237v-1.043l.642 1.043h3.396V6.693h-3.361zm-19.691 1.985h-2.831v.891h2.763v1.014h-2.763v.987h2.831v1.022h-4.041V7.65h4.041v1.03zm5.441 2.036c.17.246.2.466.2.907v.97h-1.22l-.005-.622c0-.298.029-.726-.191-.963-.177-.174-.446-.212-.881-.212h-1.299v1.798h-1.209V7.65h2.782c.618 0 1.073.016 1.464.237.383.22.613.543.613 1.094 0 .788-.539 1.196-.853 1.318.265.098.491.272.599.416zm.959 1.878V7.65h1.234v4.943h-1.234zm15.562 0h-1.714l-2.293-3.71v3.71h-2.463l-.471-1.103h-2.513l-.456 1.103h-1.416c-.588 0-1.332-.127-1.754-.547-.425-.42-.646-.988-.646-1.887 0-.733.132-1.403.652-1.933.391-.394 1.004-.576 1.837-.576h1.171v1.06h-1.146c-.442 0-.691.063-.931.292-.206.208-.348.602-.348 1.12 0 .53.108.91.333 1.16.186.196.524.255.843.255h.543l1.705-3.887h1.812l2.048 4.675V7.65h1.842l2.126 3.443V7.65h1.239v4.943z" fill="#fff"/><path d="M147.299 10.464l-.837-1.97-.832 1.97h1.669zm-16.98 9.643h-2.974v-.984H130v-1.008h-2.655v-.899h3.032l1.324 1.44-1.382 1.451zm4.792.566l-1.857-2.014 1.857-1.95v3.964zm2.747-2.198h-1.563v-1.26h1.577c.437 0 .74.175.74.607 0 .428-.289.653-.754.653zm5.953-.251c-.162.094-.362.102-.598.102h-1.469v-1.11h1.49c.215 0 .43.004.577.089.157.08.25.233.25.445a.53.53 0 01-.25.474z" fill="#fff"/><path d="M159.528 20.485c-.293.419-.866.632-1.641.632h-2.336v-1.06h2.326c.231 0 .393-.03.49-.123a.43.43 0 00.143-.322.402.402 0 00-.148-.327c-.088-.076-.215-.11-.426-.11-1.136-.037-2.553.035-2.553-1.53 0-.717.466-1.472 1.736-1.472h2.409v-.983h-2.239c-.675 0-1.166.158-1.514.403v-.403h-3.311c-.529 0-1.151.128-1.445.403v-.403h-5.912v.403c-.471-.331-1.265-.403-1.632-.403h-3.9v.403c-.372-.352-1.2-.403-1.705-.403h-4.365l-.998 1.055-.936-1.056h-6.52v6.9h6.397l1.03-1.073.969 1.072 3.944.003V20.47h.388c.523.008 1.14-.013 1.684-.243v1.862h3.253V20.29h.157c.2 0 .22.008.22.204v1.594h9.881c.628 0 1.283-.157 1.647-.442v.442h3.134c.652 0 1.289-.09 1.774-.318v-1.285h-.001zm-21.698-.997h-1.51v1.658h-2.351l-1.489-1.636-1.548 1.636h-4.791v-4.944h4.865l1.488 1.62 1.538-1.62h3.866c.959 0 2.038.26 2.038 1.629 0 1.373-1.049 1.657-2.106 1.657zm7.258-.224c.17.24.195.466.2.902v.98h-1.214v-.618c0-.298.029-.738-.196-.968-.177-.177-.446-.22-.887-.22h-1.293v1.806h-1.215v-4.944h2.792c.613 0 1.059.027 1.456.233.381.226.621.534.621 1.098 0 .79-.538 1.192-.857 1.316.269.097.489.27.593.415zm4.996-2.04h-2.832v.9h2.763v1.008h-2.763v.984l2.832.004v1.026h-4.037v-4.944h4.037v1.023zm3.109 3.922h-2.356v-1.06h2.346c.23 0 .393-.03.494-.123a.434.434 0 00.143-.322.42.42 0 00-.147-.327c-.093-.076-.22-.11-.431-.11-1.131-.037-2.548.035-2.548-1.53 0-.717.461-1.472 1.729-1.472h2.425v1.053h-2.218c-.22 0-.363.008-.485.089-.133.08-.182.199-.182.355a.38.38 0 00.265.369c.127.043.265.056.471.056l.651.017c.656.016 1.107.126 1.381.398.235.237.362.538.362 1.047 0 1.063-.681 1.56-1.9 1.56z" fill="#fff"/><path d="M159.531 17.216h-2.205c-.22 0-.366.008-.489.09-.128.08-.177.199-.177.355 0 .187.108.314.264.368.128.044.265.057.466.057l.656.017c.662.016 1.103.127 1.373.398.049.037.078.08.112.122v-1.407z" fill="#fff"/><path d="M172.74 2.126h41.775a.99.99 0 01.994.983V27.37a.988.988 0 01-.994.982H172.74a.988.988 0 01-.994-.982V3.109c0-.536.438-.983.994-.983z" stroke="#fff" stroke-width="3"/><path d="M180.106 10.236c-.521-.358-1.201-.538-2.04-.538h-3.249c-.257 0-.399.129-.426.386l-1.319 8.283a.27.27 0 00.06.223.25.25 0 00.203.102h1.543c.271 0 .42-.129.447-.386l.365-2.233a.398.398 0 01.142-.264.631.631 0 01.305-.132c.122-.02.237-.03.345-.03.108 0 .237.006.386.02.149.014.243.02.284.02 1.164 0 2.077-.328 2.741-.984.663-.657.995-1.567.995-2.731 0-.798-.261-1.377-.782-1.736zm-1.675 2.487c-.068.474-.244.785-.528.934-.284.15-.69.223-1.218.223l-.67.02.345-2.172c.027-.149.115-.223.264-.223h.386c.541 0 .934.078 1.178.233.243.156.324.485.243.985zm35.953-3.025h-1.502c-.149 0-.237.075-.264.224l-1.319 8.445-.021.04a.28.28 0 00.082.193.26.26 0 00.203.092h1.34c.256 0 .399-.129.426-.386l1.32-8.303v-.02c0-.19-.089-.285-.265-.285zm-18.149 3.269a.287.287 0 00-.081-.193.24.24 0 00-.183-.092h-1.563a.429.429 0 00-.365.203l-2.152 3.167-.893-3.045c-.068-.216-.217-.325-.447-.325h-1.523a.237.237 0 00-.182.092.284.284 0 00-.082.193c0 .027.132.426.396 1.197l.853 2.498c.304.893.463 1.367.477 1.42-1.11 1.517-1.665 2.329-1.665 2.437 0 .176.088.264.264.264h1.563a.43.43 0 00.366-.203l5.177-7.471c.027-.027.04-.074.04-.142zm14.556-.285h-1.543c-.189 0-.304.224-.345.67-.352-.54-.994-.812-1.928-.812-.975 0-1.804.366-2.487 1.097a3.647 3.647 0 00-1.025 2.578c0 .799.233 1.435.7 1.908.467.474 1.093.71 1.878.71.392 0 .791-.08 1.197-.243.407-.162.724-.379.955-.65 0 .014-.014.075-.041.183a1.11 1.11 0 00-.04.244c0 .217.087.325.263.325h1.401c.257 0 .406-.129.447-.386l.832-5.299a.271.271 0 00-.061-.223.25.25 0 00-.203-.102zm-2.649 4a1.718 1.718 0 01-1.249.507c-.392 0-.71-.108-.954-.325-.243-.216-.365-.513-.365-.893 0-.5.169-.923.507-1.268a1.692 1.692 0 011.259-.518c.379 0 .693.111.944.335.25.223.376.531.376.924 0 .487-.173.9-.518 1.238zm-20.413-4h-1.543c-.19 0-.304.224-.345.67-.365-.54-1.008-.812-1.929-.812-.974 0-1.803.366-2.487 1.097-.683.73-1.025 1.59-1.025 2.578 0 .799.234 1.435.701 1.908.467.474 1.092.71 1.877.71a3.17 3.17 0 001.178-.243c.406-.162.731-.379.974-.65a1.38 1.38 0 00-.081.427c0 .217.088.325.264.325h1.401c.257 0 .406-.129.447-.386l.832-5.299a.275.275 0 00-.061-.223.25.25 0 00-.203-.102zm-2.649 4.01a1.762 1.762 0 01-1.269.497c-.393 0-.707-.108-.944-.325-.237-.216-.355-.513-.355-.893 0-.5.169-.923.507-1.268a1.692 1.692 0 011.259-.518c.379 0 .693.111.944.335.25.223.375.531.375.924 0 .5-.172.917-.517 1.248zm18.088-6.456c-.521-.358-1.201-.538-2.04-.538H197.9c-.271 0-.42.129-.447.386l-1.319 8.283a.268.268 0 00.061.223.247.247 0 00.203.102h1.664c.163 0 .271-.088.325-.264l.366-2.355a.39.39 0 01.142-.264.623.623 0 01.304-.132c.122-.02.237-.03.345-.03.108 0 .237.006.386.02.149.014.244.02.284.02 1.164 0 2.078-.328 2.741-.984.663-.657.995-1.567.995-2.731 0-.798-.261-1.377-.782-1.736zm-2.081 3.34c-.298.203-.744.304-1.34.304l-.649.02.345-2.172c.027-.149.115-.223.264-.223h.365c.298 0 .535.013.711.04.175.028.345.112.507.254.163.142.244.349.244.62 0 .568-.149.954-.447 1.157z" fill="#fff"/><path d="M229.731 2.126h41.775c.556 0 .994.447.994.983V27.37a.988.988 0 01-.994.982h-41.775a.989.989 0 01-.994-.982V3.109a.99.99 0 01.994-.983z" stroke="#fff" stroke-width="3"/></svg>